{"glyphs":{"0":{"ha":685,"x_min":68,"x_max":618,"o":"m 144 450 q 162 247 144 329 q 207 116 179 165 q 270 45 235 67 q 343 24 306 24 q 416 45 381 24 q 479 117 451 67 q 524 248 507 167 q 540 450 540 329 q 524 653 540 571 q 479 787 507 736 q 416 859 451 838 q 343 881 381 881 q 270 859 306 881 q 207 788 235 838 q 162 655 179 738 q 144 450 144 572 m 343 922 q 446 896 396 922 q 534 813 496 869 q 595 667 572 757 q 618 450 618 576 q 595 235 618 324 q 534 90 572 146 q 446 8 496 33 q 343 -18 396 -18 q 240 8 290 -18 q 152 90 190 33 q 91 235 114 146 q 68 450 68 324 q 91 667 68 576 q 152 813 114 757 q 240 896 190 869 q 343 922 290 922 z "},"1":{"ha":685,"x_min":110,"x_max":603,"o":"m 122 847 l 381 917 l 400 901 l 394 700 l 394 294 q 395 175 394 235 q 397 53 396 115 l 603 36 l 603 0 l 110 0 l 110 36 l 324 54 q 326 175 325 115 q 326 294 326 235 l 326 843 l 122 808 l 122 847 z "},"2":{"ha":685,"x_min":65,"x_max":622,"o":"m 68 0 l 68 54 q 199 201 136 129 q 310 325 263 272 q 399 434 363 385 q 459 525 436 483 q 492 605 482 567 q 503 681 503 643 q 490 760 503 724 q 453 823 478 796 q 392 865 428 850 q 311 881 357 881 q 201 858 258 881 l 163 767 q 110 711 144 711 q 65 740 81 711 q 163 876 90 829 q 328 922 236 922 q 514 858 450 922 q 578 685 578 793 q 565 605 578 644 q 524 519 553 565 q 449 417 496 474 q 333 286 403 361 q 299 248 321 271 q 251 197 278 225 q 194 135 225 168 q 132 68 164 101 l 622 68 l 622 0 l 68 0 z "},"3":{"ha":685,"x_min":61,"x_max":608,"o":"m 226 497 l 282 497 q 443 550 381 497 q 506 700 506 603 q 458 832 506 783 q 321 881 410 881 q 210 861 263 881 l 181 775 q 160 735 171 747 q 128 724 150 724 q 101 731 113 724 q 85 757 90 739 q 120 832 96 800 q 178 883 144 864 q 251 913 211 903 q 332 922 290 922 q 435 906 389 922 q 513 860 481 889 q 562 790 544 831 q 579 701 579 750 q 528 561 579 622 q 383 475 476 500 q 551 398 494 460 q 608 239 608 336 q 586 133 608 181 q 525 53 564 86 q 433 1 486 19 q 317 -18 379 -18 q 153 23 221 -18 q 61 150 86 64 q 107 185 72 185 q 137 172 126 185 q 157 131 147 158 l 188 46 q 242 29 214 35 q 304 24 271 24 q 475 83 417 24 q 533 239 533 142 q 473 397 533 342 q 289 451 413 451 l 226 451 l 226 497 z "},"4":{"ha":685,"x_min":42,"x_max":664,"o":"m 664 292 l 506 292 l 506 0 l 438 0 l 438 292 l 42 292 l 42 336 l 460 915 l 506 915 l 506 347 l 664 347 l 664 292 m 438 347 l 438 819 l 99 347 l 438 347 z "},"5":{"ha":685,"x_min":53,"x_max":614,"o":"m 301 -18 q 140 24 206 -18 q 53 151 75 67 q 97 183 64 183 q 127 172 117 183 q 147 132 138 161 l 179 44 q 233 28 206 33 q 294 24 260 24 q 477 91 414 24 q 540 272 540 158 q 477 454 540 394 q 310 514 414 514 q 227 507 265 514 q 153 482 189 500 l 122 486 l 151 904 l 592 904 l 592 836 l 192 836 l 172 536 q 247 558 210 551 q 325 564 285 564 q 444 544 390 564 q 535 489 497 525 q 593 401 572 453 q 614 282 614 349 q 592 162 614 217 q 531 67 571 107 q 432 5 490 28 q 301 -18 374 -18 z "},"6":{"ha":685,"x_min":67,"x_max":619,"o":"m 349 -18 q 230 8 282 -18 q 141 83 178 35 q 85 201 104 132 q 67 354 67 269 q 102 554 67 458 q 206 726 138 650 q 371 854 274 803 q 593 922 468 906 l 600 892 q 281 730 394 849 q 146 439 167 611 q 371 550 242 550 q 474 531 428 550 q 552 476 519 511 q 602 390 585 440 q 619 278 619 340 q 599 156 619 211 q 541 63 578 101 q 455 3 504 24 q 349 -18 406 -18 m 351 24 q 427 40 392 24 q 488 89 463 57 q 529 165 514 121 q 544 267 544 210 q 494 441 544 383 q 356 499 443 499 q 246 476 297 499 q 143 394 194 453 q 142 378 142 386 q 142 363 142 371 q 156 224 142 286 q 196 117 169 161 q 262 48 222 72 q 351 24 301 24 z "},"7":{"ha":685,"x_min":67,"x_max":611,"o":"m 193 8 l 554 836 l 67 836 l 67 904 l 611 904 l 611 860 l 269 0 l 201 0 l 193 8 z "},"8":{"ha":685,"x_min":68,"x_max":617,"o":"m 68 203 q 123 343 68 285 q 283 453 178 401 q 142 563 185 501 q 100 700 100 625 q 119 792 100 751 q 172 863 139 833 q 249 907 204 892 q 343 922 293 922 q 439 906 396 922 q 512 863 482 890 q 558 795 542 835 q 575 708 575 756 q 535 588 575 649 q 392 475 494 526 q 565 357 513 419 q 617 208 617 294 q 596 115 617 157 q 539 44 575 74 q 452 -2 503 14 q 342 -18 401 -18 q 140 41 213 -18 q 68 203 68 100 m 165 713 q 206 595 165 650 q 357 492 247 540 q 475 588 439 539 q 511 707 511 638 q 500 773 511 742 q 468 828 489 804 q 415 867 447 853 q 342 881 383 881 q 275 869 307 881 q 219 835 243 857 q 180 782 194 813 q 165 713 165 751 m 342 24 q 492 74 438 24 q 547 204 547 124 q 535 268 547 238 q 497 326 524 299 q 426 381 469 354 q 319 436 383 408 q 180 334 224 386 q 136 207 136 282 q 191 74 136 125 q 342 24 246 24 z "},"9":{"ha":685,"x_min":57,"x_max":608,"o":"m 119 -22 l 108 13 q 400 192 297 79 q 526 454 503 306 q 438 388 489 411 q 325 365 388 365 q 219 385 268 365 q 133 441 169 404 q 77 529 97 478 q 57 646 57 581 q 78 758 57 707 q 137 845 100 808 q 224 902 174 882 q 332 922 274 922 q 444 897 393 922 q 531 825 494 872 q 588 710 568 778 q 608 558 608 643 q 578 372 608 461 q 488 206 549 282 q 336 72 428 131 q 119 -22 244 13 m 132 649 q 148 549 132 593 q 192 476 164 506 q 260 431 221 446 q 344 415 299 415 q 532 503 454 415 q 533 525 533 514 q 533 547 533 536 q 517 690 533 628 q 474 795 501 753 q 409 859 447 838 q 328 881 371 881 q 252 865 288 881 q 190 820 217 850 q 147 747 163 790 q 132 649 132 704 z "}," ":{"ha":336,"x_min":0,"x_max":0,"o":""},"A":{"ha":913,"x_min":13,"x_max":906,"o":"m 13 0 l 13 39 l 126 51 l 424 944 l 475 944 l 776 50 l 906 39 l 906 0 l 549 0 l 549 39 l 697 51 l 606 328 l 268 328 l 178 51 l 306 39 l 306 0 l 13 0 m 592 369 l 435 842 l 282 369 l 592 369 z "},"B":{"ha":844,"x_min":74,"x_max":778,"o":"m 217 431 l 217 506 q 217 696 217 601 q 215 886 217 790 l 74 897 l 74 936 l 433 936 q 656 875 582 936 q 731 714 731 814 q 678 574 731 636 q 510 490 625 513 q 631 461 581 482 q 715 408 682 440 q 763 337 747 376 q 778 251 778 297 q 758 154 778 200 q 696 74 738 108 q 590 20 654 40 q 438 0 526 0 l 74 0 l 74 39 l 215 50 q 217 240 217 146 q 217 431 217 335 m 407 892 l 294 892 q 292 699 292 796 q 292 507 292 603 l 383 507 q 588 560 519 507 q 656 713 656 614 q 598 845 656 799 q 407 892 540 892 m 396 465 l 292 465 q 292 236 292 336 q 294 44 292 136 l 425 44 q 628 99 558 44 q 699 253 699 153 q 627 410 699 356 q 396 465 556 465 z "},"C":{"ha":888,"x_min":79,"x_max":819,"o":"m 539 28 q 642 39 592 28 q 740 76 692 50 l 765 249 l 819 249 l 814 51 q 678 -4 744 11 q 538 -19 613 -19 q 350 16 435 -19 q 205 116 265 51 q 112 270 144 181 q 79 468 79 360 q 113 665 79 575 q 208 819 147 754 q 353 919 269 883 q 538 956 438 956 q 674 940 611 956 q 803 885 736 924 l 808 689 l 754 689 l 729 858 q 642 898 685 886 q 547 910 600 910 q 392 879 463 910 q 272 792 322 849 q 193 653 221 735 q 165 468 165 571 q 193 282 165 364 q 271 144 221 200 q 389 58 321 88 q 539 28 457 28 z "},"D":{"ha":985,"x_min":74,"x_max":906,"o":"m 217 463 l 217 496 q 217 694 217 599 q 215 886 217 790 l 74 897 l 74 936 l 451 936 q 641 906 557 936 q 784 815 725 875 q 874 668 843 756 q 906 467 906 581 q 873 272 906 358 q 779 124 840 185 q 631 32 718 64 q 433 0 543 0 l 74 0 l 74 39 l 215 50 q 217 245 217 146 q 217 463 217 344 m 292 463 q 292 242 292 343 q 294 44 292 140 l 419 44 q 719 158 619 44 q 819 467 819 271 q 722 783 819 675 q 436 892 624 892 l 294 892 q 292 698 292 796 q 292 496 292 600 l 292 463 z "},"E":{"ha":836,"x_min":74,"x_max":779,"o":"m 217 431 l 217 506 q 217 696 217 601 q 215 886 217 790 l 74 897 l 74 936 l 744 936 l 757 710 l 706 710 l 679 890 l 294 890 q 292 697 292 794 q 292 497 292 600 l 540 497 l 556 631 l 597 631 l 597 319 l 556 319 l 540 453 l 292 453 q 292 235 292 332 q 294 46 292 138 l 701 46 l 728 226 l 779 226 l 768 0 l 74 0 l 74 39 l 215 50 q 217 240 217 146 q 217 431 217 335 z "},"F":{"ha":804,"x_min":74,"x_max":758,"o":"m 217 431 l 217 506 q 217 696 217 601 q 215 886 217 790 l 74 897 l 74 936 l 746 936 l 758 710 l 707 710 l 681 890 l 294 890 q 292 697 292 794 q 292 497 292 600 l 544 497 l 560 631 l 601 631 l 601 314 l 560 314 l 543 453 l 292 453 q 292 238 292 333 q 294 50 292 142 l 444 39 l 444 0 l 74 0 l 74 39 l 215 50 q 217 240 217 146 q 217 431 217 335 z "},"G":{"ha":950,"x_min":79,"x_max":935,"o":"m 835 132 l 835 64 q 691 1 760 21 q 539 -19 622 -19 q 351 17 436 -19 q 206 117 267 53 q 113 272 146 182 q 79 468 79 361 q 113 665 79 575 q 208 819 147 754 q 354 919 269 883 q 542 956 439 956 q 695 936 631 956 q 821 879 760 917 l 826 683 l 772 683 l 747 854 q 656 896 703 882 q 549 910 608 910 q 392 879 463 910 q 272 791 322 849 q 193 651 221 733 q 165 468 165 569 q 192 284 165 365 q 269 146 219 203 q 389 58 318 89 q 547 28 460 28 q 658 40 607 28 q 760 79 708 53 l 760 132 q 759 263 760 197 q 757 394 758 328 l 599 404 l 599 443 l 935 443 l 935 404 l 838 396 q 835 272 836 336 q 835 132 835 208 z "},"H":{"ha":1100,"x_min":74,"x_max":1028,"o":"m 217 431 l 217 506 q 217 696 217 601 q 215 886 217 790 l 74 897 l 74 936 l 436 936 l 436 897 l 294 886 q 292 697 292 792 q 292 511 292 603 l 808 511 q 808 703 808 611 q 806 886 808 794 l 665 897 l 665 936 l 1028 936 l 1028 897 l 886 886 q 883 697 883 792 q 883 506 883 601 l 883 431 q 883 240 883 335 q 886 50 883 146 l 1028 39 l 1028 0 l 665 0 l 665 39 l 806 50 q 808 247 808 146 q 808 468 808 347 l 292 468 q 292 240 292 339 q 294 50 292 140 l 436 39 l 436 0 l 74 0 l 74 39 l 215 50 q 217 240 217 146 q 217 431 217 335 z "},"I":{"ha":508,"x_min":74,"x_max":436,"o":"m 217 431 l 217 506 q 217 696 217 601 q 215 886 217 790 l 74 897 l 74 936 l 436 936 l 436 897 l 294 886 q 292 697 292 792 q 292 506 292 601 l 292 431 q 292 240 292 335 q 294 50 292 146 l 436 39 l 436 0 l 74 0 l 74 39 l 215 50 q 217 240 217 146 q 217 431 217 335 z "},"J":{"ha":504,"x_min":-50,"x_max":453,"o":"m 76 897 l 76 936 l 453 936 l 453 897 l 313 886 q 310 694 310 790 q 310 501 310 599 l 310 276 q 309 197 310 231 q 308 137 308 163 q 305 92 307 111 q 301 54 303 72 q 272 -59 294 -10 q 215 -142 249 -108 q 137 -194 181 -176 q 46 -212 93 -212 q -15 -203 11 -212 q -50 -168 -40 -193 q -26 -132 -44 -143 q 17 -121 -8 -121 q 60 -128 40 -121 q 107 -151 81 -135 l 128 -165 q 168 -134 149 -153 q 203 -86 188 -115 q 228 -16 219 -57 q 238 81 238 25 q 238 114 238 94 q 238 167 238 133 q 237 256 238 201 q 235 395 236 311 q 233 599 235 479 q 231 886 232 719 l 76 897 z "},"K":{"ha":922,"x_min":74,"x_max":924,"o":"m 217 431 l 217 506 q 217 696 217 601 q 215 886 217 790 l 74 897 l 74 936 l 436 936 l 436 897 l 293 886 q 290 697 290 792 q 290 506 290 601 l 290 371 l 713 883 l 576 897 l 576 936 l 892 936 l 892 897 l 774 885 l 508 565 l 803 50 l 924 39 l 924 0 l 592 0 l 592 39 l 722 50 l 461 508 l 290 303 q 290 188 290 253 q 293 50 290 124 l 436 39 l 436 0 l 74 0 l 74 39 l 215 50 q 217 240 217 146 q 217 431 217 335 z "},"L":{"ha":801,"x_min":74,"x_max":751,"o":"m 217 506 q 217 697 217 601 q 215 886 217 792 l 74 897 l 74 936 l 436 936 l 436 897 l 294 886 q 292 691 292 790 q 292 475 292 592 l 292 401 q 292 233 292 324 q 294 46 292 142 l 667 46 l 699 240 l 751 240 l 738 0 l 74 0 l 74 39 l 215 50 q 217 240 217 146 q 217 431 217 335 l 217 506 z "},"M":{"ha":1249,"x_min":53,"x_max":1175,"o":"m 61 0 l 61 39 l 188 51 l 188 886 l 53 897 l 53 936 l 265 936 l 611 106 l 949 936 l 1175 936 l 1175 897 l 1033 886 q 1032 697 1032 792 q 1032 506 1032 601 l 1032 431 q 1032 240 1032 335 q 1033 50 1032 146 l 1175 39 l 1175 0 l 818 0 l 818 39 l 956 50 q 957 239 957 146 q 957 422 957 332 l 960 836 l 619 0 l 581 0 l 229 838 l 236 524 l 236 51 l 367 39 l 367 0 l 61 0 z "},"N":{"ha":1018,"x_min":57,"x_max":964,"o":"m 63 0 l 63 39 l 185 51 l 185 879 l 178 889 l 57 897 l 57 936 l 238 936 l 793 133 l 793 885 l 642 897 l 642 936 l 964 936 l 964 897 l 840 885 l 840 -10 l 806 -10 l 233 810 l 233 51 l 386 39 l 386 0 l 63 0 z "},"O":{"ha":981,"x_min":79,"x_max":903,"o":"m 165 468 q 186 301 165 381 q 249 160 207 221 q 351 64 290 100 q 490 28 411 28 q 631 64 569 28 q 733 160 692 100 q 796 301 775 221 q 817 468 817 381 q 796 635 817 556 q 733 776 775 715 q 631 874 692 838 q 490 910 569 910 q 351 874 411 910 q 249 776 290 838 q 186 635 207 715 q 165 468 165 556 m 490 956 q 649 922 574 956 q 780 826 724 889 q 869 672 836 763 q 903 468 903 582 q 869 266 903 356 q 780 113 836 176 q 649 15 724 49 q 490 -19 574 -19 q 332 14 407 -19 q 201 110 257 47 q 112 264 144 174 q 79 468 79 354 q 112 670 79 581 q 201 824 144 760 q 332 922 257 888 q 490 956 407 956 z "},"P":{"ha":808,"x_min":74,"x_max":756,"o":"m 217 431 l 217 506 q 217 696 217 601 q 215 886 217 790 l 74 897 l 74 936 l 433 936 q 676 863 596 936 q 756 665 756 789 q 733 554 756 606 q 665 465 711 503 q 549 406 619 428 q 382 385 479 385 l 292 385 q 292 219 292 301 q 294 50 292 136 l 444 39 l 444 0 l 74 0 l 74 39 l 215 50 q 217 240 217 146 q 217 431 217 335 m 292 506 l 292 426 l 381 426 q 517 444 461 426 q 609 493 574 461 q 661 569 644 525 q 678 665 678 613 q 616 834 678 776 q 418 892 554 892 l 294 892 q 292 700 292 796 q 292 506 292 604 z "},"Q":{"ha":981,"x_min":79,"x_max":903,"o":"m 688 -286 q 580 -263 625 -286 q 505 -202 535 -240 q 461 -115 475 -164 q 447 -17 447 -67 q 303 28 371 -8 q 186 126 236 64 q 108 275 136 189 q 79 468 79 361 q 112 670 79 581 q 201 824 144 760 q 332 922 257 888 q 490 956 407 956 q 649 922 574 956 q 780 826 724 889 q 869 672 836 763 q 903 468 903 582 q 873 274 903 361 q 791 124 843 188 q 670 24 739 61 q 522 -18 601 -12 q 574 -179 524 -122 q 708 -236 625 -236 q 772 -231 742 -236 q 833 -214 801 -225 l 844 -244 q 768 -276 810 -267 q 688 -286 726 -286 m 165 468 q 186 301 165 381 q 249 160 207 221 q 351 64 290 100 q 490 28 411 28 q 631 64 569 28 q 733 160 692 100 q 796 301 775 221 q 817 468 817 381 q 796 635 817 556 q 733 776 775 715 q 631 874 692 838 q 490 910 569 910 q 351 874 411 910 q 249 776 290 838 q 186 635 207 715 q 165 468 165 556 z "},"R":{"ha":900,"x_min":74,"x_max":875,"o":"m 217 431 l 217 506 q 217 696 217 601 q 215 886 217 790 l 74 897 l 74 936 l 444 936 q 679 873 597 936 q 761 692 761 810 q 701 533 761 600 q 531 447 640 467 q 614 399 585 433 q 665 297 643 364 l 750 49 l 875 39 l 875 0 q 836 -7 860 -4 q 782 -10 813 -10 q 702 6 725 -10 q 668 57 679 22 l 593 296 q 567 362 581 335 q 531 406 553 389 q 478 429 510 422 q 401 436 447 436 l 292 436 q 292 234 292 328 q 294 50 292 140 l 436 39 l 436 0 l 74 0 l 74 39 l 215 50 q 217 240 217 146 q 217 431 217 335 m 442 892 l 294 892 q 292 696 292 796 q 292 478 292 596 l 444 478 q 543 494 499 478 q 619 539 588 510 q 667 607 650 568 q 685 692 685 646 q 626 838 685 785 q 442 892 568 892 z "},"S":{"ha":713,"x_min":68,"x_max":644,"o":"m 331 28 q 508 76 439 28 q 576 224 576 125 q 567 289 576 260 q 533 342 557 318 q 469 388 508 367 q 372 433 431 410 l 321 454 q 153 560 211 499 q 96 718 96 622 q 119 822 96 778 q 181 897 142 867 q 271 941 219 926 q 379 956 322 956 q 506 937 454 956 q 604 886 557 918 l 599 714 l 547 714 l 526 869 q 457 900 492 890 q 378 910 422 910 q 224 866 285 910 q 164 732 164 822 q 209 611 164 657 q 335 533 254 565 l 389 513 q 513 453 464 483 q 592 391 563 424 q 633 319 621 358 q 644 233 644 281 q 621 128 644 175 q 556 48 597 81 q 457 -2 514 15 q 332 -19 400 -19 q 182 3 251 -19 q 68 56 113 26 l 75 238 l 125 238 l 146 76 q 232 38 190 49 q 331 28 274 28 z "},"T":{"ha":829,"x_min":28,"x_max":801,"o":"m 376 431 l 376 506 q 376 699 376 603 q 375 890 376 794 l 106 890 l 79 701 l 28 701 l 40 936 l 789 936 l 801 701 l 750 701 l 724 890 l 454 890 q 453 699 453 794 q 453 506 453 604 l 453 431 q 453 240 453 335 q 454 50 453 146 l 610 39 l 610 0 l 219 0 l 219 39 l 375 50 q 376 240 376 146 q 376 431 376 335 z "},"U":{"ha":1018,"x_min":64,"x_max":958,"o":"m 268 369 q 286 217 268 279 q 338 115 304 154 q 417 59 371 76 q 521 42 464 42 q 640 61 590 42 q 723 122 690 81 q 772 231 756 164 q 788 394 788 299 l 788 885 l 629 897 l 629 936 l 958 936 l 958 897 l 835 885 l 835 358 q 751 73 835 165 q 513 -19 668 -19 q 381 1 440 -19 q 281 67 322 22 q 216 181 239 111 q 193 347 193 250 l 193 501 q 193 694 193 597 q 190 886 193 790 l 64 897 l 64 936 l 418 936 l 418 897 l 271 885 q 268 694 268 789 q 268 501 268 599 l 268 369 z "},"V":{"ha":915,"x_min":8,"x_max":901,"o":"m 444 -10 l 129 886 l 8 897 l 8 936 l 357 936 l 357 894 l 210 885 l 474 104 l 726 885 l 583 894 l 583 936 l 901 936 l 901 897 l 779 885 l 483 -10 l 444 -10 z "},"W":{"ha":1339,"x_min":18,"x_max":1325,"o":"m 919 -10 l 671 793 l 431 -10 l 392 -10 l 143 886 l 18 897 l 18 936 l 358 936 l 358 897 l 221 885 l 425 128 l 657 885 l 519 897 l 519 936 l 860 936 l 860 897 l 717 885 l 946 125 l 1143 885 l 1008 897 l 1008 936 l 1325 936 l 1325 897 l 1193 885 l 958 -10 l 919 -10 z "},"X":{"ha":890,"x_min":22,"x_max":869,"o":"m 22 0 l 22 39 l 146 51 l 411 468 l 161 886 l 38 897 l 38 936 l 385 936 l 385 897 l 244 886 l 457 532 l 671 885 l 533 897 l 533 936 l 851 936 l 851 897 l 725 885 l 481 492 l 744 50 l 869 39 l 869 0 l 522 0 l 522 39 l 661 50 l 435 429 l 203 51 l 340 39 l 340 0 l 22 0 z "},"Y":{"ha":881,"x_min":33,"x_max":854,"o":"m 638 0 l 246 0 l 246 39 l 401 50 q 403 123 403 88 q 404 195 404 158 q 404 274 404 232 q 404 369 404 317 l 147 886 l 33 897 l 33 936 l 376 936 l 376 897 l 232 886 l 457 421 l 683 885 l 540 897 l 540 936 l 854 936 l 854 897 l 733 885 l 479 372 q 479 269 479 314 q 479 188 479 225 q 480 118 479 151 q 482 50 481 85 l 638 39 l 638 0 z "},"Z":{"ha":768,"x_min":36,"x_max":732,"o":"m 681 235 l 732 235 l 719 0 l 36 0 l 36 36 l 617 890 l 138 890 l 106 701 l 54 701 l 65 936 l 704 936 l 704 900 l 126 46 l 647 46 l 681 235 z "},"a":{"ha":703,"x_min":74,"x_max":683,"o":"m 275 40 q 323 47 300 40 q 369 67 346 53 q 419 102 393 81 q 476 153 444 124 l 476 372 q 385 347 432 361 q 301 319 338 333 q 179 247 213 286 q 146 163 146 207 q 181 71 146 101 q 275 40 217 40 m 585 -17 q 510 16 536 -17 q 478 110 485 49 q 367 13 417 44 q 250 -18 317 -18 q 124 24 175 -18 q 74 149 74 67 q 122 267 74 218 q 289 357 171 317 q 382 385 333 372 q 476 408 431 397 l 476 447 q 467 538 476 503 q 438 594 457 574 q 391 623 419 615 q 324 631 363 631 q 266 625 294 631 q 208 604 238 619 l 182 515 q 133 472 169 472 q 90 511 97 472 q 176 631 111 589 q 338 674 242 674 q 493 624 442 674 q 544 457 544 574 l 544 150 q 560 57 544 82 q 607 32 576 32 q 664 58 633 32 l 683 35 q 585 -17 644 -17 z "},"b":{"ha":803,"x_min":54,"x_max":733,"o":"m 57 0 l 57 36 l 174 49 q 174 107 174 75 q 176 172 175 139 q 176 235 176 204 q 176 292 176 267 l 176 957 l 54 963 l 54 999 l 226 1035 l 247 1024 l 243 826 l 243 561 q 353 648 294 622 q 467 674 411 674 q 574 649 525 674 q 659 581 624 625 q 714 474 694 536 q 733 336 733 413 q 713 190 733 256 q 656 78 693 125 q 568 7 619 32 q 454 -18 517 -18 q 347 5 401 -18 q 243 90 293 28 l 236 -8 l 57 0 m 446 33 q 528 51 489 33 q 596 105 567 68 q 642 197 625 142 q 660 331 660 253 q 600 547 660 474 q 449 621 540 621 q 351 599 400 621 q 244 518 301 576 l 244 132 q 344 56 294 79 q 446 33 393 33 z "},"c":{"ha":676,"x_min":67,"x_max":619,"o":"m 385 631 q 288 610 332 631 q 210 551 243 589 q 159 457 178 513 q 140 333 140 401 q 159 212 140 267 q 210 119 178 157 q 288 60 243 81 q 388 39 333 39 q 503 64 450 39 q 596 138 556 89 l 619 122 q 523 19 583 57 q 375 -18 463 -18 q 249 7 306 -18 q 151 77 192 32 q 89 185 111 122 q 67 326 67 249 q 93 473 67 408 q 164 582 119 538 q 265 650 208 626 q 385 674 322 674 q 529 631 465 674 q 617 514 593 589 q 572 476 608 476 q 539 488 550 476 q 521 518 528 499 l 490 606 q 437 625 463 619 q 385 631 411 631 z "},"d":{"ha":793,"x_min":69,"x_max":761,"o":"m 143 319 q 160 194 143 249 q 206 105 176 140 q 275 51 235 69 q 361 33 315 33 q 465 58 419 33 q 558 139 511 82 l 558 528 q 465 599 510 576 q 371 621 419 621 q 283 603 324 621 q 210 548 242 585 q 161 454 179 511 q 143 319 143 397 m 561 -11 l 558 90 q 346 -18 475 -18 q 233 7 285 -18 q 146 76 182 32 q 90 183 110 121 q 69 318 69 244 q 92 466 69 400 q 153 578 114 532 q 247 649 193 624 q 364 674 301 674 q 464 650 414 674 q 560 571 514 626 l 560 957 l 436 963 l 436 999 l 611 1035 l 631 1024 l 626 829 l 626 49 l 761 36 l 761 0 l 561 -11 z "},"e":{"ha":692,"x_min":69,"x_max":626,"o":"m 371 631 q 288 613 326 631 q 219 561 249 594 q 169 481 189 528 q 144 376 149 435 l 507 376 q 547 392 536 376 q 557 438 557 407 q 544 510 557 475 q 507 572 531 544 q 449 615 483 599 q 371 631 414 631 m 374 674 q 477 654 431 674 q 557 600 524 635 q 608 517 590 565 q 626 414 626 469 q 624 369 626 389 q 617 335 621 350 l 143 336 q 165 203 144 258 q 219 110 185 147 q 297 56 253 74 q 392 39 342 39 q 509 63 458 39 q 600 132 560 88 l 622 113 q 519 17 582 51 q 376 -18 456 -18 q 258 3 314 -18 q 160 68 203 25 q 94 176 118 111 q 69 326 69 240 q 94 469 69 406 q 161 579 119 533 q 258 649 203 625 q 374 674 313 674 z "},"f":{"ha":492,"x_min":47,"x_max":564,"o":"m 178 292 l 178 606 l 47 606 l 47 647 l 178 658 q 205 845 183 771 q 275 969 226 919 q 360 1031 315 1014 q 447 1049 406 1049 q 524 1033 492 1049 q 564 990 556 1018 q 549 960 563 972 q 510 949 535 949 q 469 959 489 949 q 421 989 449 969 l 393 1010 q 349 985 371 1001 q 308 943 328 968 q 282 899 293 924 q 263 841 271 875 q 250 761 254 807 q 246 656 246 715 l 460 656 l 460 606 l 247 606 l 247 292 q 248 171 247 231 q 250 50 249 111 l 389 36 l 389 0 l 47 0 l 47 36 l 175 50 q 177 171 176 111 q 178 292 178 231 z "},"g":{"ha":711,"x_min":63,"x_max":669,"o":"m 350 -292 q 459 -278 413 -292 q 538 -243 506 -265 q 585 -191 569 -221 q 601 -126 601 -161 q 594 -82 601 -103 q 569 -46 586 -61 q 525 -22 553 -31 q 457 -12 497 -12 l 288 -12 q 249 -11 268 -12 q 211 -7 229 -10 q 153 -69 172 -37 q 133 -144 133 -100 q 190 -255 133 -218 q 350 -292 247 -292 m 94 444 q 112 540 94 497 q 161 612 129 582 q 236 658 193 642 q 332 674 279 674 q 489 624 426 674 l 649 667 l 669 653 l 669 593 l 519 593 q 556 528 543 565 q 568 444 568 490 q 550 349 568 392 q 500 277 532 307 q 425 231 468 247 q 331 215 382 215 q 226 235 274 215 q 183 177 197 203 q 168 122 168 151 q 192 73 168 92 q 278 54 217 54 l 471 54 q 617 12 567 54 q 667 -111 667 -31 q 647 -194 667 -154 q 587 -267 626 -235 q 487 -318 547 -299 q 346 -337 426 -337 q 135 -287 207 -337 q 63 -158 63 -237 q 94 -67 63 -107 q 186 3 126 -28 q 128 38 149 14 q 107 97 107 61 q 130 172 107 138 q 199 249 153 207 q 122 326 150 276 q 94 444 94 375 m 332 633 q 209 581 256 633 q 163 444 163 528 q 208 307 163 360 q 329 254 254 254 q 453 308 406 254 q 500 446 500 361 q 454 581 500 529 q 332 633 408 633 z "},"h":{"ha":840,"x_min":54,"x_max":793,"o":"m 511 674 q 638 618 593 674 q 683 429 683 563 l 683 292 q 684 171 683 239 q 686 50 685 103 l 793 36 l 793 0 l 496 0 l 496 36 l 613 50 q 613 108 613 76 q 615 172 614 139 q 615 235 615 204 q 615 292 615 265 l 615 425 q 581 569 615 528 q 485 610 547 610 q 377 584 438 610 q 244 482 317 558 l 244 292 q 244 235 244 267 q 245 172 244 204 q 247 108 246 139 q 247 50 247 76 l 354 36 l 354 0 l 57 0 l 57 36 l 174 50 q 174 108 174 76 q 176 172 175 139 q 176 235 176 204 q 176 292 176 267 l 176 957 l 54 963 l 54 999 l 226 1035 l 247 1024 l 243 826 l 243 529 q 378 639 308 604 q 511 674 447 674 z "},"i":{"ha":418,"x_min":53,"x_max":357,"o":"m 207 871 q 162 888 181 871 q 143 932 143 904 q 162 978 143 961 q 207 994 181 994 q 252 978 233 994 q 271 932 271 961 q 252 888 271 904 q 207 871 233 871 m 357 0 l 60 0 l 60 36 l 176 50 q 177 108 176 76 q 178 172 178 139 q 179 235 179 204 q 179 292 179 267 l 179 358 q 179 474 179 421 q 176 583 179 528 l 53 589 l 53 625 l 233 669 l 250 658 l 247 486 l 247 292 q 247 235 247 267 q 248 172 247 204 q 249 108 249 139 q 250 50 250 76 l 357 36 l 357 0 z "},"j":{"ha":385,"x_min":-92,"x_max":267,"o":"m 203 871 q 158 888 176 871 q 139 932 139 904 q 158 978 139 961 q 203 994 176 994 q 248 978 229 994 q 267 932 267 961 q 248 888 267 904 q 203 871 229 871 m 175 119 l 175 358 q 174 480 175 425 q 171 583 174 535 l 49 589 l 49 625 l 228 669 l 244 658 l 242 486 l 242 169 q 239 -5 242 67 q 228 -126 236 -76 q 206 -210 221 -176 q 168 -272 192 -244 q 94 -333 133 -314 q 7 -351 56 -351 q -65 -335 -42 -351 q -92 -303 -89 -319 q -31 -264 -79 -264 q 8 -269 -11 -264 q 53 -290 28 -275 l 76 -304 q 131 -251 110 -286 q 167 -112 158 -206 q 175 119 175 -19 z "},"k":{"ha":754,"x_min":54,"x_max":750,"o":"m 54 999 l 229 1035 l 249 1024 l 244 826 l 244 314 l 525 601 l 407 617 l 407 656 l 719 656 l 719 617 l 590 606 l 408 422 l 644 49 l 750 36 l 750 0 l 592 0 l 360 372 l 244 256 q 245 151 244 206 q 247 50 246 97 l 360 36 l 360 0 l 54 0 l 54 36 l 174 50 q 176 172 175 106 q 176 292 176 238 l 176 957 l 54 963 l 54 999 z "},"l":{"ha":417,"x_min":46,"x_max":372,"o":"m 54 999 l 229 1035 l 249 1024 l 244 826 l 244 292 q 245 172 244 238 q 247 50 246 106 l 372 36 l 372 0 l 46 0 l 46 36 l 174 50 q 176 172 175 106 q 176 292 176 238 l 176 957 l 54 963 l 54 999 z "},"m":{"ha":1242,"x_min":51,"x_max":1194,"o":"m 497 674 q 600 641 560 674 q 656 533 640 608 q 781 640 717 606 q 911 674 844 674 q 1038 619 992 674 q 1085 436 1085 565 l 1085 292 q 1085 171 1085 239 q 1088 50 1086 103 l 1194 36 l 1194 0 l 897 0 l 897 36 l 1014 50 q 1015 108 1014 76 q 1016 172 1015 139 q 1017 235 1017 204 q 1017 292 1017 265 l 1017 426 q 983 569 1017 529 q 889 610 949 610 q 785 585 840 610 q 663 492 729 561 q 665 461 664 476 q 665 429 665 446 l 665 292 q 666 171 665 239 q 668 50 667 103 l 775 36 l 775 0 l 478 0 l 478 36 l 594 50 q 595 108 594 76 q 597 172 596 139 q 597 235 597 204 q 597 292 597 265 l 597 425 q 564 569 597 528 q 475 610 531 610 q 372 584 426 610 q 246 483 317 558 l 246 292 q 246 235 246 267 q 247 172 246 204 q 248 108 247 139 q 249 50 249 76 l 356 36 l 356 0 l 58 0 l 58 36 l 175 50 q 176 108 175 76 q 177 172 176 139 q 178 235 178 204 q 178 292 178 267 l 178 358 q 177 480 178 425 q 174 583 176 535 l 51 589 l 51 625 l 221 669 l 238 658 l 244 531 q 497 674 371 674 z "},"n":{"ha":839,"x_min":51,"x_max":792,"o":"m 511 674 q 638 618 593 674 q 682 429 682 563 l 682 292 q 683 171 682 239 q 685 50 683 103 l 792 36 l 792 0 l 494 0 l 494 36 l 611 50 q 612 108 611 76 q 613 172 613 139 q 614 235 614 204 q 614 292 614 265 l 614 425 q 580 569 614 528 q 485 610 546 610 q 378 584 438 610 q 246 483 319 558 l 246 292 q 246 235 246 267 q 247 172 246 204 q 248 108 247 139 q 249 50 249 76 l 356 36 l 356 0 l 58 0 l 58 36 l 175 50 q 176 108 175 76 q 177 172 176 139 q 178 235 178 204 q 178 292 178 267 l 178 358 q 177 480 178 425 q 174 583 176 535 l 51 589 l 51 625 l 221 669 l 238 658 l 244 531 q 378 639 310 604 q 511 674 447 674 z "},"o":{"ha":753,"x_min":69,"x_max":685,"o":"m 376 -18 q 264 3 319 -18 q 165 66 208 24 q 96 173 122 108 q 69 325 69 238 q 96 478 69 413 q 165 588 122 544 q 264 652 208 631 q 376 674 319 674 q 488 652 433 674 q 587 588 543 631 q 658 478 631 544 q 685 325 685 413 q 658 173 685 238 q 587 66 631 108 q 488 3 543 24 q 376 -18 433 -18 m 376 24 q 544 102 482 24 q 607 325 607 181 q 544 550 607 469 q 376 631 482 631 q 208 550 269 631 q 146 325 146 469 q 208 102 146 181 q 376 24 269 24 z "},"p":{"ha":801,"x_min":53,"x_max":733,"o":"m 658 329 q 599 547 658 472 q 449 621 540 621 q 352 599 401 621 q 247 522 303 578 l 247 124 q 344 53 297 74 q 443 33 390 33 q 525 50 486 33 q 594 103 564 67 q 641 195 624 139 q 658 329 658 251 m 178 -46 l 178 356 q 174 583 178 488 l 53 589 l 53 625 l 222 669 l 239 658 l 243 561 q 352 647 294 621 q 467 674 410 674 q 574 649 525 674 q 659 581 624 625 q 714 474 694 536 q 733 335 733 411 q 713 189 733 254 q 656 78 693 124 q 567 7 618 32 q 453 -18 515 -18 q 347 2 401 -18 q 244 81 293 22 l 244 -44 q 245 -165 244 -99 q 247 -287 246 -231 l 383 -301 l 383 -337 l 56 -337 l 56 -301 l 175 -287 q 177 -166 176 -232 q 178 -46 178 -100 z "},"q":{"ha":764,"x_min":69,"x_max":753,"o":"m 143 319 q 160 194 143 247 q 206 105 176 140 q 275 51 235 69 q 361 33 315 33 q 465 58 418 33 q 560 140 511 82 l 560 526 q 466 599 511 576 q 371 621 421 621 q 283 603 324 621 q 210 548 242 585 q 161 454 179 511 q 143 319 143 397 m 629 -44 q 630 -166 629 -106 q 632 -287 631 -226 l 753 -301 l 753 -337 l 425 -337 l 425 -301 l 560 -287 q 562 -166 561 -226 q 563 -44 563 -106 l 563 96 q 463 8 517 33 q 346 -18 408 -18 q 233 6 285 -18 q 146 75 182 31 q 90 181 110 119 q 69 318 69 243 q 92 466 69 400 q 153 578 114 532 q 246 649 193 624 q 361 674 299 674 q 464 650 413 674 q 564 568 515 626 l 608 665 l 633 657 l 629 469 l 629 -44 z "},"r":{"ha":571,"x_min":51,"x_max":561,"o":"m 60 0 l 60 36 l 175 50 q 176 108 175 76 q 177 172 176 139 q 178 235 178 204 q 178 292 178 267 l 178 358 q 177 480 178 425 q 174 583 176 535 l 51 589 l 51 625 l 221 669 l 238 658 l 246 485 q 338 622 278 569 q 465 674 399 674 q 525 661 499 674 q 561 632 551 649 q 503 567 561 567 q 465 576 482 567 q 428 603 447 586 l 413 617 q 246 415 307 572 l 246 292 q 246 235 246 267 q 247 172 246 204 q 248 108 247 139 q 249 50 249 76 l 374 36 l 374 0 l 60 0 z "},"s":{"ha":596,"x_min":72,"x_max":528,"o":"m 279 -18 q 174 -6 221 -18 q 78 29 128 6 l 72 174 l 121 174 l 143 51 q 204 31 171 38 q 282 24 238 24 q 417 60 372 24 q 461 153 461 96 q 430 232 461 201 q 319 290 399 263 l 254 314 q 134 383 179 342 q 89 494 89 424 q 147 622 89 569 q 313 674 204 674 q 411 659 369 674 q 500 617 453 644 l 496 486 l 450 486 l 435 597 q 372 624 403 617 q 308 631 340 631 q 193 597 231 631 q 156 511 156 563 q 188 432 156 460 q 292 378 221 404 l 350 356 q 488 276 449 319 q 528 168 528 232 q 513 97 528 131 q 467 38 497 64 q 389 -3 436 13 q 279 -18 342 -18 z "},"t":{"ha":456,"x_min":18,"x_max":433,"o":"m 224 150 q 247 58 224 86 q 314 31 269 31 q 366 38 344 31 q 415 61 388 46 l 433 33 q 297 -18 382 -18 q 154 147 151 -18 q 155 192 154 169 q 156 247 156 214 l 156 606 l 18 606 l 18 647 l 157 657 l 181 854 l 232 854 l 225 656 l 421 656 l 421 606 l 224 606 l 224 150 z "},"u":{"ha":826,"x_min":46,"x_max":765,"o":"m 765 0 l 597 -10 l 593 122 q 478 19 540 57 q 340 -18 415 -18 q 260 -5 294 -18 q 202 38 225 8 q 167 117 179 68 q 156 239 156 167 l 160 599 l 46 613 l 46 650 l 218 661 l 231 646 l 225 453 l 225 247 q 260 90 225 135 q 364 44 294 44 q 485 77 426 44 q 592 168 543 110 l 594 599 l 482 613 l 482 650 l 653 661 l 665 646 l 661 453 l 661 49 l 765 36 l 765 0 z "},"v":{"ha":690,"x_min":-8,"x_max":685,"o":"m 367 -8 l 329 -8 l 85 607 l -8 617 l -8 656 l 286 656 l 286 617 l 167 606 l 361 85 l 547 604 l 426 617 l 426 656 l 685 656 l 685 617 l 596 606 l 367 -8 z "},"w":{"ha":1060,"x_min":-4,"x_max":1050,"o":"m 731 -8 q 658 190 688 107 q 606 337 628 274 q 567 450 583 400 q 536 550 551 500 l 338 -8 l 303 -8 l 88 606 l -4 617 l -4 656 l 283 656 l 283 617 l 165 606 l 332 100 l 513 606 l 408 617 l 408 656 l 683 656 l 683 617 l 578 606 l 758 100 l 915 604 l 796 617 l 796 656 l 1050 656 l 1050 617 l 965 604 l 764 -8 l 731 -8 z "},"x":{"ha":708,"x_min":14,"x_max":694,"o":"m 268 36 l 268 0 l 14 0 l 14 36 l 107 49 l 321 324 l 121 606 l 24 617 l 24 656 l 299 656 l 299 617 l 197 606 l 364 371 l 536 604 l 432 617 l 432 656 l 682 656 l 682 617 l 592 606 l 388 339 l 596 49 l 694 36 l 694 0 l 406 0 l 406 36 l 514 49 l 344 290 l 164 49 l 268 36 z "},"y":{"ha":694,"x_min":-15,"x_max":694,"o":"m 93 -351 q 22 -335 54 -351 q -15 -289 -11 -319 q 7 -259 -11 -269 q 49 -249 25 -249 q 90 -258 69 -249 q 132 -287 110 -268 l 143 -297 q 238 -215 196 -272 q 307 -82 279 -158 l 329 -21 l 83 610 l -10 619 l -10 656 l 285 656 l 285 618 l 163 607 l 363 69 l 556 607 l 433 619 l 433 656 l 694 656 l 694 619 l 608 608 l 360 -58 q 237 -281 301 -210 q 93 -351 172 -351 z "},"z":{"ha":633,"x_min":61,"x_max":588,"o":"m 74 656 l 565 656 l 565 619 l 143 40 l 508 40 l 542 207 l 588 207 l 576 0 l 61 0 l 61 36 l 483 615 l 139 615 l 110 463 l 64 468 l 74 656 z "},"À":{"ha":913,"x_min":13,"x_max":906,"o":"m 13 0 l 13 39 l 126 51 l 424 944 l 475 944 l 776 50 l 906 39 l 906 0 l 549 0 l 549 39 l 697 51 l 606 328 l 268 328 l 178 51 l 306 39 l 306 0 l 13 0 m 592 369 l 435 842 l 282 369 l 592 369 m 518 1032 l 501 1010 q 418 1058 460 1033 q 338 1106 376 1082 q 286 1142 301 1128 q 271 1171 271 1156 q 281 1194 271 1186 q 307 1203 292 1203 q 336 1193 321 1203 q 381 1156 351 1183 q 447 1095 413 1126 q 518 1032 482 1064 z "},"Á":{"ha":913,"x_min":13,"x_max":906,"o":"m 13 0 l 13 39 l 126 51 l 424 944 l 475 944 l 776 50 l 906 39 l 906 0 l 549 0 l 549 39 l 697 51 l 606 328 l 268 328 l 178 51 l 306 39 l 306 0 l 13 0 m 592 369 l 435 842 l 282 369 l 592 369 m 363 1032 q 433 1096 399 1064 q 500 1157 468 1128 q 544 1193 529 1183 q 574 1203 560 1203 q 599 1194 589 1203 q 610 1171 610 1186 q 595 1142 610 1156 q 544 1107 581 1128 q 463 1058 504 1083 q 379 1010 421 1033 l 363 1032 z "},"Â":{"ha":913,"x_min":13,"x_max":906,"o":"m 13 0 l 13 39 l 126 51 l 424 944 l 475 944 l 776 50 l 906 39 l 906 0 l 549 0 l 549 39 l 697 51 l 606 328 l 268 328 l 178 51 l 306 39 l 306 0 l 13 0 m 592 369 l 435 842 l 282 369 l 592 369 m 464 1165 l 644 1010 l 626 988 l 449 1099 l 271 988 l 253 1010 l 433 1165 l 464 1165 z "},"Ã":{"ha":913,"x_min":13,"x_max":906,"o":"m 13 0 l 13 39 l 126 51 l 424 944 l 475 944 l 776 50 l 906 39 l 906 0 l 549 0 l 549 39 l 697 51 l 606 328 l 268 328 l 178 51 l 306 39 l 306 0 l 13 0 m 592 369 l 435 842 l 282 369 l 592 369 m 210 1036 q 254 1143 221 1103 q 344 1183 288 1183 q 410 1167 383 1183 q 458 1129 436 1150 q 503 1088 482 1106 q 556 1071 524 1071 q 616 1098 593 1071 q 654 1176 639 1125 l 685 1167 q 641 1060 674 1100 q 550 1019 608 1019 q 483 1036 510 1019 q 436 1074 457 1053 q 392 1115 413 1097 q 339 1133 371 1133 q 279 1106 303 1133 q 240 1026 256 1078 l 210 1036 z "},"Ä":{"ha":913,"x_min":13,"x_max":906,"o":"m 13 0 l 13 39 l 126 51 l 424 944 l 475 944 l 776 50 l 906 39 l 906 0 l 549 0 l 549 39 l 697 51 l 606 328 l 268 328 l 178 51 l 306 39 l 306 0 l 13 0 m 592 369 l 435 842 l 282 369 l 592 369 m 297 1044 q 256 1060 274 1044 q 239 1101 239 1075 q 256 1142 239 1126 q 297 1158 274 1158 q 338 1142 321 1158 q 356 1101 356 1126 q 338 1060 356 1075 q 297 1044 321 1044 m 592 1044 q 551 1060 568 1044 q 533 1101 533 1075 q 551 1142 533 1126 q 592 1158 568 1158 q 633 1142 615 1158 q 650 1101 650 1126 q 633 1060 650 1075 q 592 1044 615 1044 z "},"Ā":{"ha":913,"x_min":13,"x_max":906,"o":"m 13 0 l 13 39 l 126 51 l 424 944 l 475 944 l 776 50 l 906 39 l 906 0 l 549 0 l 549 39 l 697 51 l 606 328 l 268 328 l 178 51 l 306 39 l 306 0 l 13 0 m 592 369 l 435 842 l 282 369 l 592 369 m 243 1061 l 243 1117 l 654 1117 l 654 1061 l 243 1061 z "},"Ă":{"ha":913,"x_min":13,"x_max":906,"o":"m 13 0 l 13 39 l 126 51 l 424 944 l 475 944 l 776 50 l 906 39 l 906 0 l 549 0 l 549 39 l 697 51 l 606 328 l 268 328 l 178 51 l 306 39 l 306 0 l 13 0 m 592 369 l 435 842 l 282 369 l 592 369 m 257 1183 l 286 1193 q 344 1105 304 1139 q 449 1071 385 1071 q 553 1105 514 1071 q 611 1193 592 1139 l 640 1183 q 620 1124 635 1154 q 582 1069 606 1093 q 525 1031 558 1046 q 449 1015 492 1015 q 372 1031 404 1015 q 315 1069 339 1046 q 277 1124 292 1093 q 257 1183 263 1154 z "},"Ắ":{"ha":913,"x_min":13,"x_max":906,"o":"m 13 0 l 13 39 l 126 51 l 424 944 l 475 944 l 776 50 l 906 39 l 906 0 l 549 0 l 549 39 l 697 51 l 606 328 l 268 328 l 178 51 l 306 39 l 306 0 l 13 0 m 592 369 l 435 842 l 282 369 l 592 369 m 446 1021 q 368 1036 401 1021 q 311 1075 335 1051 q 274 1129 288 1099 q 254 1189 260 1160 l 283 1199 q 342 1110 303 1143 q 446 1076 381 1076 q 551 1110 511 1076 q 608 1199 590 1143 l 638 1189 q 618 1129 632 1160 q 581 1075 604 1099 q 524 1036 557 1051 q 446 1021 490 1021 m 408 1165 l 482 1283 q 513 1324 500 1311 q 539 1336 525 1336 q 562 1328 551 1336 q 572 1304 572 1319 q 564 1278 572 1292 q 529 1240 556 1264 l 431 1146 l 408 1165 z "},"Ặ":{"ha":913,"x_min":13,"x_max":906,"o":"m 13 0 l 13 39 l 126 51 l 424 944 l 475 944 l 776 50 l 906 39 l 906 0 l 549 0 l 549 39 l 697 51 l 606 328 l 268 328 l 178 51 l 306 39 l 306 0 l 13 0 m 592 369 l 435 842 l 282 369 l 592 369 m 257 1183 l 286 1193 q 344 1105 304 1139 q 449 1071 385 1071 q 553 1105 514 1071 q 611 1193 592 1139 l 640 1183 q 620 1124 635 1154 q 582 1069 606 1093 q 525 1031 558 1046 q 449 1015 492 1015 q 372 1031 404 1015 q 315 1069 339 1046 q 277 1124 292 1093 q 257 1183 263 1154 m 454 -250 q 409 -233 428 -250 q 390 -189 390 -217 q 409 -144 390 -161 q 454 -126 428 -126 q 499 -144 481 -126 q 518 -189 518 -161 q 499 -233 518 -217 q 454 -250 481 -250 z "},"Ằ":{"ha":913,"x_min":13,"x_max":906,"o":"m 13 0 l 13 39 l 126 51 l 424 944 l 475 944 l 776 50 l 906 39 l 906 0 l 549 0 l 549 39 l 697 51 l 606 328 l 268 328 l 178 51 l 306 39 l 306 0 l 13 0 m 592 369 l 435 842 l 282 369 l 592 369 m 446 1021 q 368 1036 401 1021 q 311 1075 335 1051 q 274 1129 288 1099 q 254 1189 260 1160 l 283 1199 q 341 1110 301 1143 q 446 1076 381 1076 q 550 1110 511 1076 q 608 1199 589 1143 l 638 1189 q 618 1129 632 1160 q 581 1075 604 1099 q 524 1036 557 1051 q 446 1021 490 1021 m 483 1165 l 461 1146 l 363 1240 q 328 1278 336 1264 q 319 1304 319 1292 q 330 1328 319 1319 q 353 1336 340 1336 q 379 1324 367 1336 q 410 1283 392 1311 l 483 1165 z "},"Ẳ":{"ha":913,"x_min":13,"x_max":906,"o":"m 13 0 l 13 39 l 126 51 l 424 944 l 475 944 l 776 50 l 906 39 l 906 0 l 549 0 l 549 39 l 697 51 l 606 328 l 268 328 l 178 51 l 306 39 l 306 0 l 13 0 m 592 369 l 435 842 l 282 369 l 592 369 m 421 1144 l 413 1174 q 478 1198 457 1185 q 499 1235 499 1211 q 474 1272 499 1258 q 382 1296 450 1286 l 392 1354 q 511 1316 475 1343 q 547 1244 547 1289 q 514 1178 547 1206 q 421 1144 481 1151 m 254 1189 l 283 1199 q 342 1110 301 1144 q 446 1076 382 1076 q 550 1110 511 1076 q 608 1199 589 1144 l 638 1189 q 617 1129 632 1160 q 579 1075 603 1099 q 522 1036 556 1051 q 446 1021 489 1021 q 369 1036 401 1021 q 313 1075 336 1051 q 274 1129 289 1099 q 254 1189 260 1160 z "},"Ẵ":{"ha":913,"x_min":13,"x_max":906,"o":"m 13 0 l 13 39 l 126 51 l 424 944 l 475 944 l 776 50 l 906 39 l 906 0 l 549 0 l 549 39 l 697 51 l 606 328 l 268 328 l 178 51 l 306 39 l 306 0 l 13 0 m 592 369 l 435 842 l 282 369 l 592 369 m 232 1199 q 272 1278 242 1247 q 354 1308 303 1308 q 413 1298 389 1308 q 457 1275 436 1288 q 499 1251 479 1260 q 546 1242 518 1242 q 601 1259 579 1242 q 635 1308 622 1276 l 660 1300 q 620 1221 650 1251 q 538 1190 590 1190 q 478 1200 501 1190 q 435 1224 456 1210 q 393 1249 413 1239 q 346 1258 374 1258 q 257 1190 282 1258 l 232 1199 m 446 1021 q 320 1060 365 1021 q 251 1154 275 1100 l 278 1168 q 344 1101 307 1125 q 446 1076 381 1076 q 549 1101 511 1076 q 614 1167 586 1125 l 640 1154 q 572 1060 617 1100 q 446 1021 526 1021 z "},"Ǎ":{"ha":913,"x_min":13,"x_max":906,"o":"m 13 0 l 13 39 l 126 51 l 424 944 l 475 944 l 776 50 l 906 39 l 906 0 l 549 0 l 549 39 l 697 51 l 606 328 l 268 328 l 178 51 l 306 39 l 306 0 l 13 0 m 592 369 l 435 842 l 282 369 l 592 369 m 290 1203 l 446 1079 l 601 1203 l 624 1182 l 475 1022 l 417 1022 l 268 1182 l 290 1203 z "},"Ấ":{"ha":913,"x_min":13,"x_max":906,"o":"m 13 0 l 13 39 l 126 51 l 424 944 l 475 944 l 776 50 l 906 39 l 906 0 l 549 0 l 549 39 l 697 51 l 606 328 l 268 328 l 178 51 l 306 39 l 306 0 l 13 0 m 592 369 l 435 842 l 282 369 l 592 369 m 269 999 l 251 1021 l 432 1176 l 463 1176 l 643 1021 l 625 999 l 447 1110 l 269 999 m 603 1100 l 583 1119 l 660 1215 q 707 1244 685 1244 q 729 1235 721 1244 q 738 1214 738 1226 q 697 1165 738 1189 l 603 1100 z "},"Ậ":{"ha":913,"x_min":13,"x_max":906,"o":"m 13 0 l 13 39 l 126 51 l 424 944 l 475 944 l 776 50 l 906 39 l 906 0 l 549 0 l 549 39 l 697 51 l 606 328 l 268 328 l 178 51 l 306 39 l 306 0 l 13 0 m 592 369 l 435 842 l 282 369 l 592 369 m 464 1165 l 644 1010 l 626 988 l 449 1099 l 271 988 l 253 1010 l 433 1165 l 464 1165 m 454 -250 q 409 -233 428 -250 q 390 -189 390 -217 q 409 -144 390 -161 q 454 -126 428 -126 q 499 -144 481 -126 q 518 -189 518 -161 q 499 -233 518 -217 q 454 -250 481 -250 z "},"Ầ":{"ha":913,"x_min":13,"x_max":906,"o":"m 13 0 l 13 39 l 126 51 l 424 944 l 475 944 l 776 50 l 906 39 l 906 0 l 549 0 l 549 39 l 697 51 l 606 328 l 268 328 l 178 51 l 306 39 l 306 0 l 13 0 m 592 369 l 435 842 l 282 369 l 592 369 m 625 999 l 447 1110 l 269 999 l 251 1021 l 432 1176 l 463 1176 l 643 1021 l 625 999 m 286 1101 l 192 1165 q 160 1188 169 1176 q 151 1214 151 1200 q 160 1235 151 1226 q 182 1244 168 1244 q 229 1215 204 1244 l 306 1121 l 286 1101 z "},"Ẩ":{"ha":913,"x_min":13,"x_max":906,"o":"m 13 0 l 13 39 l 126 51 l 424 944 l 475 944 l 776 50 l 906 39 l 906 0 l 549 0 l 549 39 l 697 51 l 606 328 l 268 328 l 178 51 l 306 39 l 306 0 l 13 0 m 592 369 l 435 842 l 282 369 l 592 369 m 269 999 l 251 1021 l 432 1176 l 463 1176 l 643 1021 l 625 999 l 447 1110 l 269 999 m 590 1122 q 668 1179 668 1138 q 638 1217 668 1206 q 542 1236 608 1229 l 550 1293 q 717 1189 717 1278 q 685 1126 717 1151 q 599 1093 654 1100 l 590 1122 z "},"Ẫ":{"ha":913,"x_min":13,"x_max":906,"o":"m 13 0 l 13 39 l 126 51 l 424 944 l 475 944 l 776 50 l 906 39 l 906 0 l 549 0 l 549 39 l 697 51 l 606 328 l 268 328 l 178 51 l 306 39 l 306 0 l 13 0 m 592 369 l 435 842 l 282 369 l 592 369 m 265 994 l 251 1017 l 432 1144 l 463 1144 l 643 1017 l 629 994 l 447 1082 l 265 994 m 233 1186 q 274 1265 243 1235 q 356 1296 304 1296 q 414 1285 390 1296 q 458 1261 438 1275 q 500 1237 481 1246 q 547 1228 519 1228 q 636 1296 611 1228 l 661 1286 q 622 1208 651 1238 q 539 1178 592 1178 q 480 1188 503 1178 q 436 1211 457 1197 q 394 1235 414 1226 q 347 1244 375 1244 q 292 1227 314 1244 q 258 1178 271 1210 l 233 1186 z "},"Ạ":{"ha":913,"x_min":13,"x_max":906,"o":"m 13 0 l 13 39 l 126 51 l 424 944 l 475 944 l 776 50 l 906 39 l 906 0 l 549 0 l 549 39 l 697 51 l 606 328 l 268 328 l 178 51 l 306 39 l 306 0 l 13 0 m 592 369 l 435 842 l 282 369 l 592 369 m 454 -250 q 409 -233 428 -250 q 390 -189 390 -217 q 409 -144 390 -161 q 454 -126 428 -126 q 499 -144 481 -126 q 518 -189 518 -161 q 499 -233 518 -217 q 454 -250 481 -250 z "},"Ả":{"ha":913,"x_min":13,"x_max":906,"o":"m 13 0 l 13 39 l 126 51 l 424 944 l 475 944 l 776 50 l 906 39 l 906 0 l 549 0 l 549 39 l 697 51 l 606 328 l 268 328 l 178 51 l 306 39 l 306 0 l 13 0 m 592 369 l 435 842 l 282 369 l 592 369 m 425 1000 l 417 1029 q 482 1053 461 1040 q 503 1090 503 1067 q 478 1128 503 1114 q 386 1151 454 1142 l 396 1210 q 515 1172 479 1199 q 551 1100 551 1144 q 518 1034 551 1061 q 425 1000 485 1007 z "},"Å":{"ha":913,"x_min":13,"x_max":906,"o":"m 13 0 l 13 39 l 126 51 l 424 944 l 475 944 l 776 50 l 906 39 l 906 0 l 549 0 l 549 39 l 697 51 l 606 328 l 268 328 l 178 51 l 306 39 l 306 0 l 13 0 m 592 369 l 435 842 l 282 369 l 592 369 m 447 1003 q 402 1011 424 1003 q 363 1035 381 1019 q 335 1072 346 1050 q 325 1122 325 1094 q 335 1173 325 1150 q 363 1212 346 1196 q 402 1236 381 1228 q 447 1244 424 1244 q 492 1236 469 1244 q 531 1212 514 1228 q 559 1174 549 1196 q 569 1122 569 1151 q 559 1073 569 1094 q 531 1035 549 1051 q 492 1011 514 1019 q 447 1003 469 1003 m 447 1039 q 504 1065 483 1039 q 525 1122 525 1090 q 504 1181 525 1156 q 447 1207 483 1207 q 390 1181 411 1207 q 369 1122 369 1156 q 390 1065 369 1090 q 447 1039 411 1039 z "},"Ą":{"ha":913,"x_min":13,"x_max":906,"o":"m 13 0 l 13 39 l 126 51 l 424 944 l 475 944 l 776 50 l 906 39 l 906 0 l 549 0 l 549 39 l 697 51 l 606 328 l 268 328 l 178 51 l 306 39 l 306 0 l 13 0 m 592 369 l 435 842 l 282 369 l 592 369 m 646 -185 q 656 -126 646 -154 q 683 -72 667 -97 q 721 -25 700 -46 q 764 11 742 -4 l 796 11 q 729 -67 754 -21 q 704 -156 704 -112 q 731 -231 704 -206 q 797 -257 757 -257 q 837 -251 817 -257 q 881 -228 857 -244 l 897 -249 q 842 -293 876 -278 q 769 -308 808 -308 q 681 -276 717 -308 q 646 -185 646 -244 z "},"Æ":{"ha":1264,"x_min":13,"x_max":1207,"o":"m 13 0 l 13 39 l 128 51 l 575 888 l 469 897 l 469 936 l 1172 936 l 1185 710 l 1133 710 l 1107 890 l 722 890 q 719 697 719 794 q 719 497 719 600 l 968 497 l 983 631 l 1025 631 l 1025 319 l 983 319 l 968 453 l 719 453 q 719 235 719 332 q 722 46 719 138 l 1129 46 l 1156 226 l 1207 226 l 1194 0 l 504 0 l 504 39 l 643 50 q 644 215 644 135 q 644 358 644 296 l 347 358 l 182 51 l 306 39 l 306 0 l 13 0 m 644 401 l 644 883 l 629 883 l 369 401 l 644 401 z "},"Ç":{"ha":888,"x_min":79,"x_max":819,"o":"m 539 28 q 642 39 592 28 q 740 76 692 50 l 765 249 l 819 249 l 814 51 q 678 -4 744 11 q 538 -19 613 -19 q 350 16 435 -19 q 205 116 265 51 q 112 270 144 181 q 79 468 79 360 q 113 665 79 575 q 208 819 147 754 q 353 919 269 883 q 538 956 438 956 q 674 940 611 956 q 803 885 736 924 l 808 689 l 754 689 l 729 858 q 642 898 685 886 q 547 910 600 910 q 392 879 463 910 q 272 792 322 849 q 193 653 221 735 q 165 468 165 571 q 193 282 165 364 q 271 144 221 200 q 389 58 321 88 q 539 28 457 28 m 489 -112 l 507 1 l 544 1 l 533 -82 q 627 -117 592 -89 q 663 -192 663 -146 q 627 -270 663 -240 q 522 -300 592 -300 q 476 -297 497 -300 q 436 -286 456 -293 l 444 -257 q 481 -262 464 -260 q 515 -265 497 -265 q 581 -245 560 -265 q 603 -192 603 -225 q 577 -135 603 -156 q 489 -112 551 -115 z "},"Ć":{"ha":888,"x_min":79,"x_max":819,"o":"m 539 28 q 642 39 592 28 q 740 76 692 50 l 765 249 l 819 249 l 814 51 q 678 -4 744 11 q 538 -19 613 -19 q 350 16 435 -19 q 205 116 265 51 q 112 270 144 181 q 79 468 79 360 q 113 665 79 575 q 208 819 147 754 q 353 919 269 883 q 538 956 438 956 q 674 940 611 956 q 803 885 736 924 l 808 689 l 754 689 l 729 858 q 642 898 685 886 q 547 910 600 910 q 392 879 463 910 q 272 792 322 849 q 193 653 221 735 q 165 468 165 571 q 193 282 165 364 q 271 144 221 200 q 389 58 321 88 q 539 28 457 28 m 454 1032 q 525 1096 490 1064 q 592 1157 560 1128 q 636 1193 621 1183 q 665 1203 651 1203 q 691 1194 681 1203 q 701 1171 701 1186 q 687 1142 701 1156 q 636 1107 672 1128 q 554 1058 596 1083 q 471 1010 513 1033 l 454 1032 z "},"Č":{"ha":888,"x_min":79,"x_max":819,"o":"m 539 28 q 642 39 592 28 q 740 76 692 50 l 765 249 l 819 249 l 814 51 q 678 -4 744 11 q 538 -19 613 -19 q 350 16 435 -19 q 205 116 265 51 q 112 270 144 181 q 79 468 79 360 q 113 665 79 575 q 208 819 147 754 q 353 919 269 883 q 538 956 438 956 q 674 940 611 956 q 803 885 736 924 l 808 689 l 754 689 l 729 858 q 642 898 685 886 q 547 910 600 910 q 392 879 463 910 q 272 792 322 849 q 193 653 221 735 q 165 468 165 571 q 193 282 165 364 q 271 144 221 200 q 389 58 321 88 q 539 28 457 28 m 372 1203 l 528 1079 l 683 1203 l 706 1182 l 557 1022 l 499 1022 l 350 1182 l 372 1203 z "},"Ĉ":{"ha":888,"x_min":79,"x_max":819,"o":"m 539 28 q 642 39 592 28 q 740 76 692 50 l 765 249 l 819 249 l 814 51 q 678 -4 744 11 q 538 -19 613 -19 q 350 16 435 -19 q 205 116 265 51 q 112 270 144 181 q 79 468 79 360 q 113 665 79 575 q 208 819 147 754 q 353 919 269 883 q 538 956 438 956 q 674 940 611 956 q 803 885 736 924 l 808 689 l 754 689 l 729 858 q 642 898 685 886 q 547 910 600 910 q 392 879 463 910 q 272 792 322 849 q 193 653 221 735 q 165 468 165 571 q 193 282 165 364 q 271 144 221 200 q 389 58 321 88 q 539 28 457 28 m 535 1176 l 715 1021 l 697 999 l 519 1110 l 342 999 l 324 1021 l 504 1176 l 535 1176 z "},"Ċ":{"ha":888,"x_min":79,"x_max":819,"o":"m 539 28 q 642 39 592 28 q 740 76 692 50 l 765 249 l 819 249 l 814 51 q 678 -4 744 11 q 538 -19 613 -19 q 350 16 435 -19 q 205 116 265 51 q 112 270 144 181 q 79 468 79 360 q 113 665 79 575 q 208 819 147 754 q 353 919 269 883 q 538 956 438 956 q 674 940 611 956 q 803 885 736 924 l 808 689 l 754 689 l 729 858 q 642 898 685 886 q 547 910 600 910 q 392 879 463 910 q 272 792 322 849 q 193 653 221 735 q 165 468 165 571 q 193 282 165 364 q 271 144 221 200 q 389 58 321 88 q 539 28 457 28 m 507 1042 q 462 1059 481 1042 q 443 1104 443 1076 q 462 1149 443 1132 q 507 1167 481 1167 q 552 1149 533 1167 q 571 1104 571 1132 q 552 1059 571 1076 q 507 1042 533 1042 z "},"Ď":{"ha":985,"x_min":74,"x_max":906,"o":"m 217 463 l 217 496 q 217 694 217 599 q 215 886 217 790 l 74 897 l 74 936 l 451 936 q 641 906 557 936 q 784 815 725 875 q 874 668 843 756 q 906 467 906 581 q 873 272 906 358 q 779 124 840 185 q 631 32 718 64 q 433 0 543 0 l 74 0 l 74 39 l 215 50 q 217 245 217 146 q 217 463 217 344 m 292 463 q 292 242 292 343 q 294 44 292 140 l 419 44 q 719 158 619 44 q 819 467 819 271 q 722 783 819 675 q 436 892 624 892 l 294 892 q 292 698 292 796 q 292 496 292 600 l 292 463 m 307 1203 l 463 1079 l 618 1203 l 640 1182 l 492 1022 l 433 1022 l 285 1182 l 307 1203 z "},"Đ":{"ha":985,"x_min":74,"x_max":906,"o":"m 538 457 l 292 457 q 292 235 292 335 q 294 44 292 136 l 419 44 q 719 158 619 44 q 819 467 819 271 q 722 783 819 675 q 436 892 624 892 l 294 892 q 292 699 292 796 q 292 501 292 601 l 538 501 l 538 457 m 74 0 l 74 39 l 215 50 q 217 245 217 146 q 217 457 217 344 l 74 457 l 74 501 l 217 501 q 217 703 217 610 q 215 886 217 796 l 74 897 l 74 936 l 451 936 q 641 906 557 936 q 784 815 725 875 q 874 668 843 756 q 906 467 906 581 q 873 272 906 358 q 779 124 840 185 q 631 32 718 64 q 433 0 543 0 l 74 0 z "},"Ḍ":{"ha":985,"x_min":74,"x_max":906,"o":"m 217 463 l 217 496 q 217 694 217 599 q 215 886 217 790 l 74 897 l 74 936 l 451 936 q 641 906 557 936 q 784 815 725 875 q 874 668 843 756 q 906 467 906 581 q 873 272 906 358 q 779 124 840 185 q 631 32 718 64 q 433 0 543 0 l 74 0 l 74 39 l 215 50 q 217 245 217 146 q 217 463 217 344 m 292 463 q 292 242 292 343 q 294 44 292 140 l 419 44 q 719 158 619 44 q 819 467 819 271 q 722 783 819 675 q 436 892 624 892 l 294 892 q 292 698 292 796 q 292 496 292 600 l 292 463 m 478 -250 q 433 -233 451 -250 q 414 -189 414 -217 q 433 -144 414 -161 q 478 -126 451 -126 q 523 -144 504 -126 q 542 -189 542 -161 q 523 -233 542 -217 q 478 -250 504 -250 z "},"Ḏ":{"ha":985,"x_min":74,"x_max":906,"o":"m 217 463 l 217 496 q 217 694 217 599 q 215 886 217 790 l 74 897 l 74 936 l 451 936 q 641 906 557 936 q 784 815 725 875 q 874 668 843 756 q 906 467 906 581 q 873 272 906 358 q 779 124 840 185 q 631 32 718 64 q 433 0 543 0 l 74 0 l 74 39 l 215 50 q 217 245 217 146 q 217 463 217 344 m 292 463 q 292 242 292 343 q 294 44 292 140 l 419 44 q 719 158 619 44 q 819 467 819 271 q 722 783 819 675 q 436 892 624 892 l 294 892 q 292 698 292 796 q 292 496 292 600 l 292 463 m 317 -208 l 317 -153 l 661 -153 l 661 -208 l 317 -208 z "},"È":{"ha":836,"x_min":74,"x_max":779,"o":"m 217 431 l 217 506 q 217 696 217 601 q 215 886 217 790 l 74 897 l 74 936 l 744 936 l 757 710 l 706 710 l 679 890 l 294 890 q 292 697 292 794 q 292 497 292 600 l 540 497 l 556 631 l 597 631 l 597 319 l 556 319 l 540 453 l 292 453 q 292 235 292 332 q 294 46 292 138 l 701 46 l 728 226 l 779 226 l 768 0 l 74 0 l 74 39 l 215 50 q 217 240 217 146 q 217 431 217 335 m 500 1032 l 483 1010 q 400 1058 442 1033 q 319 1106 358 1082 q 268 1142 283 1128 q 253 1171 253 1156 q 263 1194 253 1186 q 289 1203 274 1203 q 318 1193 303 1203 q 363 1156 333 1183 q 429 1095 394 1126 q 500 1032 464 1064 z "},"É":{"ha":836,"x_min":74,"x_max":779,"o":"m 217 431 l 217 506 q 217 696 217 601 q 215 886 217 790 l 74 897 l 74 936 l 744 936 l 757 710 l 706 710 l 679 890 l 294 890 q 292 697 292 794 q 292 497 292 600 l 540 497 l 556 631 l 597 631 l 597 319 l 556 319 l 540 453 l 292 453 q 292 235 292 332 q 294 46 292 138 l 701 46 l 728 226 l 779 226 l 768 0 l 74 0 l 74 39 l 215 50 q 217 240 217 146 q 217 431 217 335 m 375 1032 q 446 1096 411 1064 q 513 1157 481 1128 q 557 1193 542 1183 q 586 1203 572 1203 q 612 1194 601 1203 q 622 1171 622 1186 q 608 1142 622 1156 q 557 1107 593 1128 q 475 1058 517 1083 q 392 1010 433 1033 l 375 1032 z "},"Ê":{"ha":836,"x_min":74,"x_max":779,"o":"m 217 431 l 217 506 q 217 696 217 601 q 215 886 217 790 l 74 897 l 74 936 l 744 936 l 757 710 l 706 710 l 679 890 l 294 890 q 292 697 292 794 q 292 497 292 600 l 540 497 l 556 631 l 597 631 l 597 319 l 556 319 l 540 453 l 292 453 q 292 235 292 332 q 294 46 292 138 l 701 46 l 728 226 l 779 226 l 768 0 l 74 0 l 74 39 l 215 50 q 217 240 217 146 q 217 431 217 335 m 483 1176 l 664 1021 l 646 999 l 468 1110 l 290 999 l 272 1021 l 453 1176 l 483 1176 z "},"Ě":{"ha":836,"x_min":74,"x_max":779,"o":"m 217 431 l 217 506 q 217 696 217 601 q 215 886 217 790 l 74 897 l 74 936 l 744 936 l 757 710 l 706 710 l 679 890 l 294 890 q 292 697 292 794 q 292 497 292 600 l 540 497 l 556 631 l 597 631 l 597 319 l 556 319 l 540 453 l 292 453 q 292 235 292 332 q 294 46 292 138 l 701 46 l 728 226 l 779 226 l 768 0 l 74 0 l 74 39 l 215 50 q 217 240 217 146 q 217 431 217 335 m 315 1203 l 471 1079 l 626 1203 l 649 1182 l 500 1022 l 442 1022 l 293 1182 l 315 1203 z "},"Ë":{"ha":836,"x_min":74,"x_max":779,"o":"m 217 431 l 217 506 q 217 696 217 601 q 215 886 217 790 l 74 897 l 74 936 l 744 936 l 757 710 l 706 710 l 679 890 l 294 890 q 292 697 292 794 q 292 497 292 600 l 540 497 l 556 631 l 597 631 l 597 319 l 556 319 l 540 453 l 292 453 q 292 235 292 332 q 294 46 292 138 l 701 46 l 728 226 l 779 226 l 768 0 l 74 0 l 74 39 l 215 50 q 217 240 217 146 q 217 431 217 335 m 311 1044 q 270 1060 288 1044 q 253 1101 253 1075 q 270 1142 253 1126 q 311 1158 288 1158 q 352 1142 335 1158 q 369 1101 369 1126 q 352 1060 369 1075 q 311 1044 335 1044 m 606 1044 q 565 1060 582 1044 q 547 1101 547 1075 q 565 1142 547 1126 q 606 1158 582 1158 q 647 1142 629 1158 q 664 1101 664 1126 q 647 1060 664 1075 q 606 1044 629 1044 z "},"Ē":{"ha":836,"x_min":74,"x_max":779,"o":"m 217 431 l 217 506 q 217 696 217 601 q 215 886 217 790 l 74 897 l 74 936 l 744 936 l 757 710 l 706 710 l 679 890 l 294 890 q 292 697 292 794 q 292 497 292 600 l 540 497 l 556 631 l 597 631 l 597 319 l 556 319 l 540 453 l 292 453 q 292 235 292 332 q 294 46 292 138 l 701 46 l 728 226 l 779 226 l 768 0 l 74 0 l 74 39 l 215 50 q 217 240 217 146 q 217 431 217 335 m 265 1061 l 265 1117 l 676 1117 l 676 1061 l 265 1061 z "},"Ė":{"ha":836,"x_min":74,"x_max":779,"o":"m 217 431 l 217 506 q 217 696 217 601 q 215 886 217 790 l 74 897 l 74 936 l 744 936 l 757 710 l 706 710 l 679 890 l 294 890 q 292 697 292 794 q 292 497 292 600 l 540 497 l 556 631 l 597 631 l 597 319 l 556 319 l 540 453 l 292 453 q 292 235 292 332 q 294 46 292 138 l 701 46 l 728 226 l 779 226 l 768 0 l 74 0 l 74 39 l 215 50 q 217 240 217 146 q 217 431 217 335 m 465 1042 q 420 1059 439 1042 q 401 1104 401 1076 q 420 1149 401 1132 q 465 1167 439 1167 q 510 1149 492 1167 q 529 1104 529 1132 q 510 1059 529 1076 q 465 1042 492 1042 z "},"Ę":{"ha":836,"x_min":74,"x_max":792,"o":"m 217 431 l 217 506 q 217 696 217 601 q 215 886 217 790 l 74 897 l 74 936 l 744 936 l 757 710 l 706 710 l 679 890 l 294 890 q 292 697 292 794 q 292 497 292 600 l 540 497 l 556 631 l 597 631 l 597 319 l 556 319 l 540 453 l 292 453 q 292 235 292 332 q 294 46 292 138 l 701 46 l 728 226 l 779 226 l 768 0 l 74 0 l 74 39 l 215 50 q 217 240 217 146 q 217 431 217 335 m 540 -185 q 551 -126 540 -154 q 578 -72 561 -97 q 615 -25 594 -46 q 658 11 636 -4 l 690 11 q 624 -67 649 -21 q 599 -156 599 -112 q 625 -231 599 -206 q 692 -257 651 -257 q 731 -251 711 -257 q 775 -228 751 -244 l 792 -249 q 737 -293 771 -278 q 664 -308 703 -308 q 576 -276 611 -308 q 540 -185 540 -244 z "},"Ĕ":{"ha":836,"x_min":74,"x_max":779,"o":"m 217 431 l 217 506 q 217 696 217 601 q 215 886 217 790 l 74 897 l 74 936 l 744 936 l 757 710 l 706 710 l 679 890 l 294 890 q 292 697 292 794 q 292 497 292 600 l 540 497 l 556 631 l 597 631 l 597 319 l 556 319 l 540 453 l 292 453 q 292 235 292 332 q 294 46 292 138 l 701 46 l 728 226 l 779 226 l 768 0 l 74 0 l 74 39 l 215 50 q 217 240 217 146 q 217 431 217 335 m 260 1189 l 289 1199 q 347 1110 307 1144 q 451 1076 388 1076 q 556 1110 517 1076 q 614 1199 594 1144 l 643 1189 q 623 1129 638 1160 q 585 1075 608 1099 q 528 1036 561 1051 q 451 1021 494 1021 q 374 1036 407 1021 q 318 1075 342 1051 q 280 1129 294 1099 q 260 1189 265 1160 z "},"Ế":{"ha":836,"x_min":74,"x_max":779,"o":"m 217 431 l 217 506 q 217 696 217 601 q 215 886 217 790 l 74 897 l 74 936 l 744 936 l 757 710 l 706 710 l 679 890 l 294 890 q 292 697 292 794 q 292 497 292 600 l 540 497 l 556 631 l 597 631 l 597 319 l 556 319 l 540 453 l 292 453 q 292 235 292 332 q 294 46 292 138 l 701 46 l 728 226 l 779 226 l 768 0 l 74 0 l 74 39 l 215 50 q 217 240 217 146 q 217 431 217 335 m 278 999 l 260 1021 l 440 1176 l 471 1176 l 651 1021 l 633 999 l 456 1110 l 278 999 m 611 1100 l 592 1119 l 668 1215 q 715 1244 693 1244 q 738 1235 729 1244 q 746 1214 746 1226 q 706 1165 746 1189 l 611 1100 z "},"Ệ":{"ha":836,"x_min":74,"x_max":779,"o":"m 217 431 l 217 506 q 217 696 217 601 q 215 886 217 790 l 74 897 l 74 936 l 744 936 l 757 710 l 706 710 l 679 890 l 294 890 q 292 697 292 794 q 292 497 292 600 l 540 497 l 556 631 l 597 631 l 597 319 l 556 319 l 540 453 l 292 453 q 292 235 292 332 q 294 46 292 138 l 701 46 l 728 226 l 779 226 l 768 0 l 74 0 l 74 39 l 215 50 q 217 240 217 146 q 217 431 217 335 m 483 1176 l 664 1021 l 646 999 l 468 1110 l 290 999 l 272 1021 l 453 1176 l 483 1176 m 471 -250 q 426 -233 444 -250 q 407 -189 407 -217 q 426 -144 407 -161 q 471 -126 444 -126 q 516 -144 497 -126 q 535 -189 535 -161 q 516 -233 535 -217 q 471 -250 497 -250 z "},"Ề":{"ha":836,"x_min":74,"x_max":779,"o":"m 217 431 l 217 506 q 217 696 217 601 q 215 886 217 790 l 74 897 l 74 936 l 744 936 l 757 710 l 706 710 l 679 890 l 294 890 q 292 697 292 794 q 292 497 292 600 l 540 497 l 556 631 l 597 631 l 597 319 l 556 319 l 540 453 l 292 453 q 292 235 292 332 q 294 46 292 138 l 701 46 l 728 226 l 779 226 l 768 0 l 74 0 l 74 39 l 215 50 q 217 240 217 146 q 217 431 217 335 m 633 999 l 456 1110 l 278 999 l 260 1021 l 440 1176 l 471 1176 l 651 1021 l 633 999 m 294 1101 l 200 1165 q 169 1188 178 1176 q 160 1214 160 1200 q 168 1235 160 1226 q 190 1244 176 1244 q 238 1215 213 1244 l 314 1121 l 294 1101 z "},"Ể":{"ha":836,"x_min":74,"x_max":779,"o":"m 217 431 l 217 506 q 217 696 217 601 q 215 886 217 790 l 74 897 l 74 936 l 744 936 l 757 710 l 706 710 l 679 890 l 294 890 q 292 697 292 794 q 292 497 292 600 l 540 497 l 556 631 l 597 631 l 597 319 l 556 319 l 540 453 l 292 453 q 292 235 292 332 q 294 46 292 138 l 701 46 l 728 226 l 779 226 l 768 0 l 74 0 l 74 39 l 215 50 q 217 240 217 146 q 217 431 217 335 m 274 999 l 256 1021 l 436 1176 l 467 1176 l 647 1021 l 629 999 l 451 1110 l 274 999 m 594 1122 q 672 1179 672 1138 q 642 1217 672 1206 q 546 1236 613 1229 l 554 1293 q 721 1189 721 1278 q 690 1126 721 1151 q 603 1093 658 1100 l 594 1122 z "},"Ễ":{"ha":836,"x_min":74,"x_max":779,"o":"m 217 431 l 217 506 q 217 696 217 601 q 215 886 217 790 l 74 897 l 74 936 l 744 936 l 757 710 l 706 710 l 679 890 l 294 890 q 292 697 292 794 q 292 497 292 600 l 540 497 l 556 631 l 597 631 l 597 319 l 556 319 l 540 453 l 292 453 q 292 235 292 332 q 294 46 292 138 l 701 46 l 728 226 l 779 226 l 768 0 l 74 0 l 74 39 l 215 50 q 217 240 217 146 q 217 431 217 335 m 269 994 l 256 1017 l 436 1144 l 467 1144 l 647 1017 l 633 994 l 451 1082 l 269 994 m 238 1186 q 278 1265 247 1235 q 360 1296 308 1296 q 418 1285 394 1296 q 463 1261 442 1275 q 504 1237 485 1246 q 551 1228 524 1228 q 640 1296 615 1228 l 665 1286 q 626 1208 656 1238 q 543 1178 596 1178 q 484 1188 507 1178 q 440 1211 461 1197 q 399 1235 418 1226 q 351 1244 379 1244 q 297 1227 318 1244 q 263 1178 275 1210 l 238 1186 z "},"Ẹ":{"ha":836,"x_min":74,"x_max":779,"o":"m 217 431 l 217 506 q 217 696 217 601 q 215 886 217 790 l 74 897 l 74 936 l 744 936 l 757 710 l 706 710 l 679 890 l 294 890 q 292 697 292 794 q 292 497 292 600 l 540 497 l 556 631 l 597 631 l 597 319 l 556 319 l 540 453 l 292 453 q 292 235 292 332 q 294 46 292 138 l 701 46 l 728 226 l 779 226 l 768 0 l 74 0 l 74 39 l 215 50 q 217 240 217 146 q 217 431 217 335 m 471 -250 q 426 -233 444 -250 q 407 -189 407 -217 q 426 -144 407 -161 q 471 -126 444 -126 q 516 -144 497 -126 q 535 -189 535 -161 q 516 -233 535 -217 q 471 -250 497 -250 z "},"Ẻ":{"ha":836,"x_min":74,"x_max":779,"o":"m 217 431 l 217 506 q 217 696 217 601 q 215 886 217 790 l 74 897 l 74 936 l 744 936 l 757 710 l 706 710 l 679 890 l 294 890 q 292 697 292 794 q 292 497 292 600 l 540 497 l 556 631 l 597 631 l 597 319 l 556 319 l 540 453 l 292 453 q 292 235 292 332 q 294 46 292 138 l 701 46 l 728 226 l 779 226 l 768 0 l 74 0 l 74 39 l 215 50 q 217 240 217 146 q 217 431 217 335 m 426 1000 l 418 1029 q 483 1053 463 1040 q 504 1090 504 1067 q 480 1128 504 1114 q 388 1151 456 1142 l 397 1210 q 517 1172 481 1199 q 553 1100 553 1144 q 519 1034 553 1061 q 426 1000 486 1007 z "},"Ẽ":{"ha":836,"x_min":74,"x_max":779,"o":"m 217 431 l 217 506 q 217 696 217 601 q 215 886 217 790 l 74 897 l 74 936 l 744 936 l 757 710 l 706 710 l 679 890 l 294 890 q 292 697 292 794 q 292 497 292 600 l 540 497 l 556 631 l 597 631 l 597 319 l 556 319 l 540 453 l 292 453 q 292 235 292 332 q 294 46 292 138 l 701 46 l 728 226 l 779 226 l 768 0 l 74 0 l 74 39 l 215 50 q 217 240 217 146 q 217 431 217 335 m 214 1036 q 258 1143 225 1103 q 349 1183 292 1183 q 414 1167 388 1183 q 463 1129 440 1150 q 507 1088 486 1106 q 560 1071 528 1071 q 620 1098 597 1071 q 658 1176 643 1125 l 689 1167 q 645 1060 678 1100 q 554 1019 613 1019 q 488 1036 514 1019 q 440 1074 461 1053 q 396 1115 417 1097 q 343 1133 375 1133 q 283 1106 307 1133 q 244 1026 260 1078 l 214 1036 z "},"Ğ":{"ha":950,"x_min":79,"x_max":935,"o":"m 835 132 l 835 64 q 691 1 760 21 q 539 -19 622 -19 q 351 17 436 -19 q 206 117 267 53 q 113 272 146 182 q 79 468 79 361 q 113 665 79 575 q 208 819 147 754 q 354 919 269 883 q 542 956 439 956 q 695 936 631 956 q 821 879 760 917 l 826 683 l 772 683 l 747 854 q 656 896 703 882 q 549 910 608 910 q 392 879 463 910 q 272 791 322 849 q 193 651 221 733 q 165 468 165 569 q 192 284 165 365 q 269 146 219 203 q 389 58 318 89 q 547 28 460 28 q 658 40 607 28 q 760 79 708 53 l 760 132 q 759 263 760 197 q 757 394 758 328 l 599 404 l 599 443 l 935 443 l 935 404 l 838 396 q 835 272 836 336 q 835 132 835 208 m 326 1189 l 356 1199 q 414 1110 374 1144 q 518 1076 454 1076 q 622 1110 583 1076 q 681 1199 661 1144 l 710 1189 q 690 1129 704 1160 q 651 1075 675 1099 q 594 1036 628 1051 q 518 1021 561 1021 q 441 1036 474 1021 q 385 1075 408 1051 q 347 1129 361 1099 q 326 1189 332 1160 z "},"Ġ":{"ha":950,"x_min":79,"x_max":935,"o":"m 835 132 l 835 64 q 691 1 760 21 q 539 -19 622 -19 q 351 17 436 -19 q 206 117 267 53 q 113 272 146 182 q 79 468 79 361 q 113 665 79 575 q 208 819 147 754 q 354 919 269 883 q 542 956 439 956 q 695 936 631 956 q 821 879 760 917 l 826 683 l 772 683 l 747 854 q 656 896 703 882 q 549 910 608 910 q 392 879 463 910 q 272 791 322 849 q 193 651 221 733 q 165 468 165 569 q 192 284 165 365 q 269 146 219 203 q 389 58 318 89 q 547 28 460 28 q 658 40 607 28 q 760 79 708 53 l 760 132 q 759 263 760 197 q 757 394 758 328 l 599 404 l 599 443 l 935 443 l 935 404 l 838 396 q 835 272 836 336 q 835 132 835 208 m 529 1042 q 484 1059 503 1042 q 465 1104 465 1076 q 484 1149 465 1132 q 529 1167 503 1167 q 574 1149 556 1167 q 593 1104 593 1132 q 574 1059 593 1076 q 529 1042 556 1042 z "},"Ģ":{"ha":950,"x_min":79,"x_max":935,"o":"m 835 132 l 835 64 q 691 1 760 21 q 539 -19 622 -19 q 351 17 436 -19 q 206 117 267 53 q 113 272 146 182 q 79 468 79 361 q 113 665 79 575 q 208 819 147 754 q 354 919 269 883 q 542 956 439 956 q 695 936 631 956 q 821 879 760 917 l 826 683 l 772 683 l 747 854 q 656 896 703 882 q 549 910 608 910 q 392 879 463 910 q 272 791 322 849 q 193 651 221 733 q 165 468 165 569 q 192 284 165 365 q 269 146 219 203 q 389 58 318 89 q 547 28 460 28 q 658 40 607 28 q 760 79 708 53 l 760 132 q 759 263 760 197 q 757 394 758 328 l 599 404 l 599 443 l 935 443 l 935 404 l 838 396 q 835 272 836 336 q 835 132 835 208 m 601 -151 q 588 -214 601 -185 q 553 -266 575 -243 q 501 -306 531 -289 q 439 -332 471 -322 l 428 -303 q 502 -260 472 -285 q 550 -199 532 -235 q 508 -171 525 -189 q 492 -133 492 -153 q 507 -97 492 -110 q 543 -85 522 -85 q 569 -89 556 -85 q 593 -104 582 -93 q 601 -151 601 -129 z "},"Ǧ":{"ha":950,"x_min":79,"x_max":935,"o":"m 835 132 l 835 64 q 691 1 760 21 q 539 -19 622 -19 q 351 17 436 -19 q 206 117 267 53 q 113 272 146 182 q 79 468 79 361 q 113 665 79 575 q 208 819 147 754 q 354 919 269 883 q 542 956 439 956 q 695 936 631 956 q 821 879 760 917 l 826 683 l 772 683 l 747 854 q 656 896 703 882 q 549 910 608 910 q 392 879 463 910 q 272 791 322 849 q 193 651 221 733 q 165 468 165 569 q 192 284 165 365 q 269 146 219 203 q 389 58 318 89 q 547 28 460 28 q 658 40 607 28 q 760 79 708 53 l 760 132 q 759 263 760 197 q 757 394 758 328 l 599 404 l 599 443 l 935 443 l 935 404 l 838 396 q 835 272 836 336 q 835 132 835 208 m 381 1203 l 536 1079 l 692 1203 l 714 1182 l 565 1022 l 507 1022 l 358 1182 l 381 1203 z "},"Ĝ":{"ha":950,"x_min":79,"x_max":935,"o":"m 835 132 l 835 64 q 691 1 760 21 q 539 -19 622 -19 q 351 17 436 -19 q 206 117 267 53 q 113 272 146 182 q 79 468 79 361 q 113 665 79 575 q 208 819 147 754 q 354 919 269 883 q 542 956 439 956 q 695 936 631 956 q 821 879 760 917 l 826 683 l 772 683 l 747 854 q 656 896 703 882 q 549 910 608 910 q 392 879 463 910 q 272 791 322 849 q 193 651 221 733 q 165 468 165 569 q 192 284 165 365 q 269 146 219 203 q 389 58 318 89 q 547 28 460 28 q 658 40 607 28 q 760 79 708 53 l 760 132 q 759 263 760 197 q 757 394 758 328 l 599 404 l 599 443 l 935 443 l 935 404 l 838 396 q 835 272 836 336 q 835 132 835 208 m 551 1176 l 732 1021 l 714 999 l 536 1110 l 358 999 l 340 1021 l 521 1176 l 551 1176 z "},"Ḡ":{"ha":950,"x_min":79,"x_max":935,"o":"m 835 132 l 835 64 q 691 1 760 21 q 539 -19 622 -19 q 351 17 436 -19 q 206 117 267 53 q 113 272 146 182 q 79 468 79 361 q 113 665 79 575 q 208 819 147 754 q 354 919 269 883 q 542 956 439 956 q 695 936 631 956 q 821 879 760 917 l 826 683 l 772 683 l 747 854 q 656 896 703 882 q 549 910 608 910 q 392 879 463 910 q 272 791 322 849 q 193 651 221 733 q 165 468 165 569 q 192 284 165 365 q 269 146 219 203 q 389 58 318 89 q 547 28 460 28 q 658 40 607 28 q 760 79 708 53 l 760 132 q 759 263 760 197 q 757 394 758 328 l 599 404 l 599 443 l 935 443 l 935 404 l 838 396 q 835 272 836 336 q 835 132 835 208 m 331 1061 l 331 1117 l 742 1117 l 742 1061 l 331 1061 z "},"Ħ":{"ha":1101,"x_min":49,"x_max":1053,"o":"m 292 506 l 292 483 l 808 483 l 808 506 l 808 676 l 292 676 l 292 506 m 217 431 l 217 506 l 217 676 l 49 676 l 49 721 l 217 721 q 216 803 217 763 q 215 886 215 844 l 74 897 l 74 936 l 436 936 l 436 897 l 294 886 q 293 804 293 846 q 292 721 293 763 l 808 721 q 807 803 807 763 q 806 886 807 844 l 665 897 l 665 936 l 1028 936 l 1028 897 l 886 886 q 885 803 885 844 q 883 721 885 763 l 1053 721 l 1053 676 l 883 676 l 883 506 l 883 431 q 883 240 883 335 q 886 50 883 146 l 1028 39 l 1028 0 l 665 0 l 665 39 l 806 50 q 808 243 808 146 q 808 440 808 340 l 292 440 q 292 233 292 328 q 294 50 292 139 l 436 39 l 436 0 l 74 0 l 74 39 l 215 50 q 217 240 217 146 q 217 431 217 335 z "},"Ḫ":{"ha":1100,"x_min":74,"x_max":1028,"o":"m 217 431 l 217 506 q 217 696 217 601 q 215 886 217 790 l 74 897 l 74 936 l 436 936 l 436 897 l 294 886 q 292 697 292 792 q 292 511 292 603 l 808 511 q 808 703 808 611 q 806 886 808 794 l 665 897 l 665 936 l 1028 936 l 1028 897 l 886 886 q 883 697 883 792 q 883 506 883 601 l 883 431 q 883 240 883 335 q 886 50 883 146 l 1028 39 l 1028 0 l 665 0 l 665 39 l 806 50 q 808 247 808 146 q 808 468 808 347 l 292 468 q 292 240 292 339 q 294 50 292 140 l 436 39 l 436 0 l 74 0 l 74 39 l 215 50 q 217 240 217 146 q 217 431 217 335 m 349 -106 l 378 -96 q 439 -204 399 -161 q 550 -247 479 -247 q 661 -204 621 -247 q 722 -96 701 -161 l 751 -106 q 730 -184 746 -147 q 688 -248 714 -221 q 628 -290 663 -275 q 550 -306 593 -306 q 472 -290 507 -306 q 412 -248 438 -275 q 370 -184 386 -221 q 349 -106 354 -147 z "},"Ĥ":{"ha":1100,"x_min":74,"x_max":1028,"o":"m 217 431 l 217 506 q 217 696 217 601 q 215 886 217 790 l 74 897 l 74 936 l 436 936 l 436 897 l 294 886 q 292 697 292 792 q 292 511 292 603 l 808 511 q 808 703 808 611 q 806 886 808 794 l 665 897 l 665 936 l 1028 936 l 1028 897 l 886 886 q 883 697 883 792 q 883 506 883 601 l 883 431 q 883 240 883 335 q 886 50 883 146 l 1028 39 l 1028 0 l 665 0 l 665 39 l 806 50 q 808 247 808 146 q 808 468 808 347 l 292 468 q 292 240 292 339 q 294 50 292 140 l 436 39 l 436 0 l 74 0 l 74 39 l 215 50 q 217 240 217 146 q 217 431 217 335 m 565 1176 l 746 1021 l 728 999 l 550 1110 l 372 999 l 354 1021 l 535 1176 l 565 1176 z "},"Ḥ":{"ha":1100,"x_min":74,"x_max":1028,"o":"m 217 431 l 217 506 q 217 696 217 601 q 215 886 217 790 l 74 897 l 74 936 l 436 936 l 436 897 l 294 886 q 292 697 292 792 q 292 511 292 603 l 808 511 q 808 703 808 611 q 806 886 808 794 l 665 897 l 665 936 l 1028 936 l 1028 897 l 886 886 q 883 697 883 792 q 883 506 883 601 l 883 431 q 883 240 883 335 q 886 50 883 146 l 1028 39 l 1028 0 l 665 0 l 665 39 l 806 50 q 808 247 808 146 q 808 468 808 347 l 292 468 q 292 240 292 339 q 294 50 292 140 l 436 39 l 436 0 l 74 0 l 74 39 l 215 50 q 217 240 217 146 q 217 431 217 335 m 550 -250 q 505 -233 524 -250 q 486 -189 486 -217 q 505 -144 486 -161 q 550 -126 524 -126 q 595 -144 576 -126 q 614 -189 614 -161 q 595 -233 614 -217 q 550 -250 576 -250 z "},"Ì":{"ha":508,"x_min":74,"x_max":436,"o":"m 217 431 l 217 506 q 217 696 217 601 q 215 886 217 790 l 74 897 l 74 936 l 436 936 l 436 897 l 294 886 q 292 697 292 792 q 292 506 292 601 l 292 431 q 292 240 292 335 q 294 50 292 146 l 436 39 l 436 0 l 74 0 l 74 39 l 215 50 q 217 240 217 146 q 217 431 217 335 m 328 1032 l 311 1010 q 228 1058 269 1033 q 147 1106 186 1082 q 96 1142 111 1128 q 81 1171 81 1156 q 91 1194 81 1186 q 117 1203 101 1203 q 146 1193 131 1203 q 190 1156 161 1183 q 257 1095 222 1126 q 328 1032 292 1064 z "},"Í":{"ha":508,"x_min":74,"x_max":439,"o":"m 217 431 l 217 506 q 217 696 217 601 q 215 886 217 790 l 74 897 l 74 936 l 436 936 l 436 897 l 294 886 q 292 697 292 792 q 292 506 292 601 l 292 431 q 292 240 292 335 q 294 50 292 146 l 436 39 l 436 0 l 74 0 l 74 39 l 215 50 q 217 240 217 146 q 217 431 217 335 m 192 1032 q 263 1096 228 1064 q 329 1157 297 1128 q 374 1193 358 1183 q 403 1203 389 1203 q 428 1194 418 1203 q 439 1171 439 1186 q 424 1142 439 1156 q 374 1107 410 1128 q 292 1058 333 1083 q 208 1010 250 1033 l 192 1032 z "},"Î":{"ha":508,"x_min":58,"x_max":450,"o":"m 217 431 l 217 506 q 217 696 217 601 q 215 886 217 790 l 74 897 l 74 936 l 436 936 l 436 897 l 294 886 q 292 697 292 792 q 292 506 292 601 l 292 431 q 292 240 292 335 q 294 50 292 146 l 436 39 l 436 0 l 74 0 l 74 39 l 215 50 q 217 240 217 146 q 217 431 217 335 m 269 1176 l 450 1021 l 432 999 l 254 1110 l 76 999 l 58 1021 l 239 1176 l 269 1176 z "},"Ï":{"ha":508,"x_min":49,"x_max":460,"o":"m 217 431 l 217 506 q 217 696 217 601 q 215 886 217 790 l 74 897 l 74 936 l 436 936 l 436 897 l 294 886 q 292 697 292 792 q 292 506 292 601 l 292 431 q 292 240 292 335 q 294 50 292 146 l 436 39 l 436 0 l 74 0 l 74 39 l 215 50 q 217 240 217 146 q 217 431 217 335 m 107 1044 q 66 1060 83 1044 q 49 1101 49 1075 q 66 1142 49 1126 q 107 1158 83 1158 q 148 1142 131 1158 q 165 1101 165 1126 q 148 1060 165 1075 q 107 1044 131 1044 m 401 1044 q 360 1060 378 1044 q 343 1101 343 1075 q 360 1142 343 1126 q 401 1158 378 1158 q 442 1142 425 1158 q 460 1101 460 1126 q 442 1060 460 1075 q 401 1044 425 1044 z "},"Ī":{"ha":508,"x_min":49,"x_max":460,"o":"m 217 431 l 217 506 q 217 696 217 601 q 215 886 217 790 l 74 897 l 74 936 l 436 936 l 436 897 l 294 886 q 292 697 292 792 q 292 506 292 601 l 292 431 q 292 240 292 335 q 294 50 292 146 l 436 39 l 436 0 l 74 0 l 74 39 l 215 50 q 217 240 217 146 q 217 431 217 335 m 49 1061 l 49 1117 l 460 1117 l 460 1061 l 49 1061 z "},"İ":{"ha":508,"x_min":74,"x_max":436,"o":"m 217 431 l 217 506 q 217 696 217 601 q 215 886 217 790 l 74 897 l 74 936 l 436 936 l 436 897 l 294 886 q 292 697 292 792 q 292 506 292 601 l 292 431 q 292 240 292 335 q 294 50 292 146 l 436 39 l 436 0 l 74 0 l 74 39 l 215 50 q 217 240 217 146 q 217 431 217 335 m 254 1042 q 209 1059 228 1042 q 190 1104 190 1076 q 209 1149 190 1132 q 254 1167 228 1167 q 299 1149 281 1167 q 318 1104 318 1132 q 299 1059 318 1076 q 254 1042 281 1042 z "},"Į":{"ha":508,"x_min":74,"x_max":436,"o":"m 217 431 l 217 506 q 217 696 217 601 q 215 886 217 790 l 74 897 l 74 936 l 436 936 l 436 897 l 294 886 q 292 697 292 792 q 292 506 292 601 l 292 431 q 292 240 292 335 q 294 50 292 146 l 436 39 l 436 0 l 74 0 l 74 39 l 215 50 q 217 240 217 146 q 217 431 217 335 m 153 -185 q 163 -126 153 -154 q 190 -72 174 -97 q 228 -25 207 -46 q 271 11 249 -4 l 303 11 q 236 -67 261 -21 q 211 -156 211 -112 q 238 -231 211 -206 q 304 -257 264 -257 q 344 -251 324 -257 q 388 -228 364 -244 l 404 -249 q 349 -293 383 -278 q 276 -308 315 -308 q 188 -276 224 -308 q 153 -185 153 -244 z "},"Ǐ":{"ha":508,"x_min":74,"x_max":436,"o":"m 217 431 l 217 506 q 217 696 217 601 q 215 886 217 790 l 74 897 l 74 936 l 436 936 l 436 897 l 294 886 q 292 697 292 792 q 292 506 292 601 l 292 431 q 292 240 292 335 q 294 50 292 146 l 436 39 l 436 0 l 74 0 l 74 39 l 215 50 q 217 240 217 146 q 217 431 217 335 m 99 1203 l 254 1079 l 410 1203 l 432 1182 l 283 1022 l 225 1022 l 76 1182 l 99 1203 z "},"Ị":{"ha":508,"x_min":74,"x_max":436,"o":"m 217 431 l 217 506 q 217 696 217 601 q 215 886 217 790 l 74 897 l 74 936 l 436 936 l 436 897 l 294 886 q 292 697 292 792 q 292 506 292 601 l 292 431 q 292 240 292 335 q 294 50 292 146 l 436 39 l 436 0 l 74 0 l 74 39 l 215 50 q 217 240 217 146 q 217 431 217 335 m 256 -250 q 210 -233 229 -250 q 192 -189 192 -217 q 210 -144 192 -161 q 256 -126 229 -126 q 301 -144 282 -126 q 319 -189 319 -161 q 301 -233 319 -217 q 256 -250 282 -250 z "},"Ỉ":{"ha":508,"x_min":74,"x_max":436,"o":"m 217 431 l 217 506 q 217 696 217 601 q 215 886 217 790 l 74 897 l 74 936 l 436 936 l 436 897 l 294 886 q 292 697 292 792 q 292 506 292 601 l 292 431 q 292 240 292 335 q 294 50 292 146 l 436 39 l 436 0 l 74 0 l 74 39 l 215 50 q 217 240 217 146 q 217 431 217 335 m 233 1000 l 225 1029 q 290 1053 269 1040 q 311 1090 311 1067 q 287 1128 311 1114 q 194 1151 263 1142 l 204 1210 q 324 1172 288 1199 q 360 1100 360 1144 q 326 1034 360 1061 q 233 1000 293 1007 z "},"Ĩ":{"ha":508,"x_min":17,"x_max":492,"o":"m 217 431 l 217 506 q 217 696 217 601 q 215 886 217 790 l 74 897 l 74 936 l 436 936 l 436 897 l 294 886 q 292 697 292 792 q 292 506 292 601 l 292 431 q 292 240 292 335 q 294 50 292 146 l 436 39 l 436 0 l 74 0 l 74 39 l 215 50 q 217 240 217 146 q 217 431 217 335 m 17 1036 q 61 1143 28 1103 q 151 1183 94 1183 q 217 1167 190 1183 q 265 1129 243 1150 q 310 1088 289 1106 q 363 1071 331 1071 q 423 1098 400 1071 q 461 1176 446 1125 l 492 1167 q 448 1060 481 1100 q 357 1019 415 1019 q 290 1036 317 1019 q 243 1074 264 1053 q 199 1115 219 1097 q 146 1133 178 1133 q 86 1106 110 1133 q 47 1026 63 1078 l 17 1036 z "},"Ĵ":{"ha":504,"x_min":-50,"x_max":464,"o":"m 76 897 l 76 936 l 453 936 l 453 897 l 313 886 q 310 694 310 790 q 310 501 310 599 l 310 276 q 309 197 310 231 q 308 137 308 163 q 305 92 307 111 q 301 54 303 72 q 272 -59 294 -10 q 215 -142 249 -108 q 137 -194 181 -176 q 46 -212 93 -212 q -15 -203 11 -212 q -50 -168 -40 -193 q -26 -132 -44 -143 q 17 -121 -8 -121 q 60 -128 40 -121 q 107 -151 81 -135 l 128 -165 q 168 -134 149 -153 q 203 -86 188 -115 q 228 -16 219 -57 q 238 81 238 25 q 238 114 238 94 q 238 167 238 133 q 237 256 238 201 q 235 395 236 311 q 233 599 235 479 q 231 886 232 719 l 76 897 m 283 1176 l 464 1021 l 446 999 l 268 1110 l 90 999 l 72 1021 l 253 1176 l 283 1176 z "},"Ķ":{"ha":922,"x_min":74,"x_max":924,"o":"m 217 431 l 217 506 q 217 696 217 601 q 215 886 217 790 l 74 897 l 74 936 l 436 936 l 436 897 l 293 886 q 290 697 290 792 q 290 506 290 601 l 290 371 l 713 883 l 576 897 l 576 936 l 892 936 l 892 897 l 774 885 l 508 565 l 803 50 l 924 39 l 924 0 l 592 0 l 592 39 l 722 50 l 461 508 l 290 303 q 290 188 290 253 q 293 50 290 124 l 436 39 l 436 0 l 74 0 l 74 39 l 215 50 q 217 240 217 146 q 217 431 217 335 m 564 -151 q 551 -214 564 -185 q 515 -266 538 -243 q 463 -306 493 -289 q 401 -332 433 -322 l 390 -303 q 465 -260 435 -285 q 513 -199 494 -235 q 471 -171 488 -189 q 454 -133 454 -153 q 469 -97 454 -110 q 506 -85 485 -85 q 531 -89 518 -85 q 556 -104 544 -93 q 564 -151 564 -129 z "},"Ĺ":{"ha":801,"x_min":74,"x_max":751,"o":"m 217 506 q 217 697 217 601 q 215 886 217 792 l 74 897 l 74 936 l 436 936 l 436 897 l 294 886 q 292 691 292 790 q 292 475 292 592 l 292 401 q 292 233 292 324 q 294 46 292 142 l 667 46 l 699 240 l 751 240 l 738 0 l 74 0 l 74 39 l 215 50 q 217 240 217 146 q 217 431 217 335 l 217 506 m 243 1032 q 314 1096 279 1064 q 381 1157 349 1128 q 425 1193 410 1183 q 454 1203 440 1203 q 480 1194 469 1203 q 490 1171 490 1186 q 476 1142 490 1156 q 425 1107 461 1128 q 343 1058 385 1083 q 260 1010 301 1033 l 243 1032 z "},"Ľ":{"ha":801,"x_min":74,"x_max":751,"o":"m 217 506 q 217 697 217 601 q 215 886 217 792 l 74 897 l 74 936 l 436 936 l 436 897 l 294 886 q 292 691 292 790 q 292 475 292 592 l 292 401 q 292 233 292 324 q 294 46 292 142 l 667 46 l 699 240 l 751 240 l 738 0 l 74 0 l 74 39 l 215 50 q 217 240 217 146 q 217 431 217 335 l 217 506 m 644 1031 q 678 993 678 1031 q 668 915 678 963 q 647 811 658 867 l 631 721 l 600 721 l 604 1019 q 644 1031 621 1031 z "},"Ļ":{"ha":801,"x_min":74,"x_max":751,"o":"m 217 506 q 217 697 217 601 q 215 886 217 792 l 74 897 l 74 936 l 436 936 l 436 897 l 294 886 q 292 691 292 790 q 292 475 292 592 l 292 401 q 292 233 292 324 q 294 46 292 142 l 667 46 l 699 240 l 751 240 l 738 0 l 74 0 l 74 39 l 215 50 q 217 240 217 146 q 217 431 217 335 l 217 506 m 483 -151 q 470 -214 483 -185 q 435 -266 457 -243 q 383 -306 413 -289 q 321 -332 353 -322 l 310 -303 q 384 -260 354 -285 q 432 -199 414 -235 q 390 -171 407 -189 q 374 -133 374 -153 q 389 -97 374 -110 q 425 -85 404 -85 q 451 -89 438 -85 q 475 -104 464 -93 q 483 -151 483 -129 z "},"Ŀ":{"ha":801,"x_min":74,"x_max":751,"o":"m 217 506 q 217 697 217 601 q 215 886 217 792 l 74 897 l 74 936 l 436 936 l 436 897 l 294 886 q 292 691 292 790 q 292 475 292 592 l 292 401 q 292 233 292 324 q 294 46 292 142 l 667 46 l 699 240 l 751 240 l 738 0 l 74 0 l 74 39 l 215 50 q 217 240 217 146 q 217 431 217 335 l 217 506 m 638 435 q 591 454 610 435 q 572 499 572 474 q 591 545 572 526 q 638 564 610 564 q 684 545 665 564 q 703 499 703 526 q 684 454 703 474 q 638 435 665 435 z "},"Ḷ":{"ha":801,"x_min":74,"x_max":751,"o":"m 217 506 q 217 697 217 601 q 215 886 217 792 l 74 897 l 74 936 l 436 936 l 436 897 l 294 886 q 292 691 292 790 q 292 475 292 592 l 292 401 q 292 233 292 324 q 294 46 292 142 l 667 46 l 699 240 l 751 240 l 738 0 l 74 0 l 74 39 l 215 50 q 217 240 217 146 q 217 431 217 335 l 217 506 m 472 -250 q 427 -233 446 -250 q 408 -189 408 -217 q 427 -144 408 -161 q 472 -126 446 -126 q 517 -144 499 -126 q 536 -189 536 -161 q 517 -233 536 -217 q 472 -250 499 -250 z "},"Ḹ":{"ha":801,"x_min":50,"x_max":751,"o":"m 217 506 q 217 697 217 601 q 215 886 217 792 l 74 897 l 74 936 l 436 936 l 436 897 l 294 886 q 292 691 292 790 q 292 475 292 592 l 292 401 q 292 233 292 324 q 294 46 292 142 l 667 46 l 699 240 l 751 240 l 738 0 l 74 0 l 74 39 l 215 50 q 217 240 217 146 q 217 431 217 335 l 217 506 m 472 -250 q 427 -233 446 -250 q 408 -189 408 -217 q 427 -144 408 -161 q 472 -126 446 -126 q 517 -144 499 -126 q 536 -189 536 -161 q 517 -233 536 -217 q 472 -250 499 -250 m 50 1061 l 50 1117 l 461 1117 l 461 1061 l 50 1061 z "},"Ḻ":{"ha":801,"x_min":74,"x_max":751,"o":"m 217 506 q 217 697 217 601 q 215 886 217 792 l 74 897 l 74 936 l 436 936 l 436 897 l 294 886 q 292 691 292 790 q 292 475 292 592 l 292 401 q 292 233 292 324 q 294 46 292 142 l 667 46 l 699 240 l 751 240 l 738 0 l 74 0 l 74 39 l 215 50 q 217 240 217 146 q 217 431 217 335 l 217 506 m 281 -208 l 281 -153 l 625 -153 l 625 -208 l 281 -208 z "},"Ł":{"ha":801,"x_min":74,"x_max":751,"o":"m 550 633 l 550 578 l 292 429 l 292 403 q 292 234 292 325 q 294 47 292 143 l 667 47 l 699 242 l 751 242 l 738 1 l 74 1 l 74 40 l 215 51 q 217 220 217 136 q 217 390 217 304 l 74 308 l 74 363 l 217 444 l 217 507 q 217 698 217 603 q 215 888 217 793 l 74 899 l 74 938 l 436 938 l 436 899 l 294 888 q 292 693 292 792 q 292 485 292 594 l 550 633 z "},"Ḿ":{"ha":1249,"x_min":53,"x_max":1175,"o":"m 61 0 l 61 39 l 188 51 l 188 886 l 53 897 l 53 936 l 265 936 l 611 106 l 949 936 l 1175 936 l 1175 897 l 1033 886 q 1032 697 1032 792 q 1032 506 1032 601 l 1032 431 q 1032 240 1032 335 q 1033 50 1032 146 l 1175 39 l 1175 0 l 818 0 l 818 39 l 956 50 q 957 239 957 146 q 957 422 957 332 l 960 836 l 619 0 l 581 0 l 229 838 l 236 524 l 236 51 l 367 39 l 367 0 l 61 0 m 569 1018 q 640 1082 606 1050 q 707 1143 675 1114 q 751 1179 736 1169 q 781 1189 767 1189 q 806 1181 796 1189 q 817 1157 817 1172 q 802 1128 817 1142 q 751 1093 788 1114 q 669 1044 711 1069 q 586 996 628 1019 l 569 1018 z "},"Ṃ":{"ha":1249,"x_min":53,"x_max":1175,"o":"m 61 0 l 61 39 l 188 51 l 188 886 l 53 897 l 53 936 l 265 936 l 611 106 l 949 936 l 1175 936 l 1175 897 l 1033 886 q 1032 697 1032 792 q 1032 506 1032 601 l 1032 431 q 1032 240 1032 335 q 1033 50 1032 146 l 1175 39 l 1175 0 l 818 0 l 818 39 l 956 50 q 957 239 957 146 q 957 422 957 332 l 960 836 l 619 0 l 581 0 l 229 838 l 236 524 l 236 51 l 367 39 l 367 0 l 61 0 m 603 -250 q 558 -233 576 -250 q 539 -189 539 -217 q 558 -144 539 -161 q 603 -126 576 -126 q 648 -144 629 -126 q 667 -189 667 -161 q 648 -233 667 -217 q 603 -250 629 -250 z "},"Ń":{"ha":1018,"x_min":57,"x_max":964,"o":"m 63 0 l 63 39 l 185 51 l 185 879 l 178 889 l 57 897 l 57 936 l 238 936 l 793 133 l 793 885 l 642 897 l 642 936 l 964 936 l 964 897 l 840 885 l 840 -10 l 806 -10 l 233 810 l 233 51 l 386 39 l 386 0 l 63 0 m 449 1024 q 519 1088 485 1056 q 586 1149 554 1119 q 631 1185 615 1175 q 660 1194 646 1194 q 685 1186 675 1194 q 696 1163 696 1178 q 681 1133 696 1147 q 631 1099 667 1119 q 549 1050 590 1075 q 465 1001 507 1025 l 449 1024 z "},"Ň":{"ha":1018,"x_min":57,"x_max":964,"o":"m 63 0 l 63 39 l 185 51 l 185 879 l 178 889 l 57 897 l 57 936 l 238 936 l 793 133 l 793 885 l 642 897 l 642 936 l 964 936 l 964 897 l 840 885 l 840 -10 l 806 -10 l 233 810 l 233 51 l 386 39 l 386 0 l 63 0 m 349 1197 l 504 1074 l 660 1197 l 682 1176 l 533 1017 l 475 1017 l 326 1176 l 349 1197 z "},"Ǹ":{"ha":1018,"x_min":57,"x_max":964,"o":"m 63 0 l 63 39 l 185 51 l 185 879 l 178 889 l 57 897 l 57 936 l 238 936 l 793 133 l 793 885 l 642 897 l 642 936 l 964 936 l 964 897 l 840 885 l 840 -10 l 806 -10 l 233 810 l 233 51 l 386 39 l 386 0 l 63 0 m 557 1032 l 540 1010 q 457 1058 499 1033 q 376 1106 415 1082 q 325 1142 340 1128 q 310 1171 310 1156 q 320 1194 310 1186 q 346 1203 331 1203 q 375 1193 360 1203 q 419 1156 390 1183 q 486 1095 451 1126 q 557 1032 521 1064 z "},"Ñ":{"ha":1018,"x_min":57,"x_max":964,"o":"m 63 0 l 63 39 l 185 51 l 185 879 l 178 889 l 57 897 l 57 936 l 238 936 l 793 133 l 793 885 l 642 897 l 642 936 l 964 936 l 964 897 l 840 885 l 840 -10 l 806 -10 l 233 810 l 233 51 l 386 39 l 386 0 l 63 0 m 269 1031 q 314 1138 281 1097 q 404 1178 347 1178 q 469 1161 443 1178 q 518 1124 496 1144 q 563 1083 542 1100 q 615 1065 583 1065 q 676 1092 653 1065 q 714 1171 699 1119 l 744 1161 q 701 1054 733 1094 q 610 1014 668 1014 q 543 1031 569 1014 q 496 1068 517 1047 q 451 1110 472 1092 q 399 1128 431 1128 q 339 1100 363 1128 q 300 1021 315 1072 l 269 1031 z "},"Ņ":{"ha":1018,"x_min":57,"x_max":964,"o":"m 63 0 l 63 39 l 185 51 l 185 879 l 178 889 l 57 897 l 57 936 l 238 936 l 793 133 l 793 885 l 642 897 l 642 936 l 964 936 l 964 897 l 840 885 l 840 -10 l 806 -10 l 233 810 l 233 51 l 386 39 l 386 0 l 63 0 m 604 -146 q 591 -208 604 -179 q 556 -260 578 -237 q 503 -300 533 -283 q 442 -326 474 -317 l 431 -297 q 505 -254 475 -279 q 553 -193 535 -229 q 511 -165 528 -183 q 494 -128 494 -147 q 510 -92 494 -104 q 546 -79 525 -79 q 572 -83 558 -79 q 596 -99 585 -87 q 604 -146 604 -124 z "},"Ṅ":{"ha":1018,"x_min":57,"x_max":964,"o":"m 63 0 l 63 39 l 185 51 l 185 879 l 178 889 l 57 897 l 57 936 l 238 936 l 793 133 l 793 885 l 642 897 l 642 936 l 964 936 l 964 897 l 840 885 l 840 -10 l 806 -10 l 233 810 l 233 51 l 386 39 l 386 0 l 63 0 m 500 1031 q 455 1048 474 1031 q 436 1093 436 1065 q 455 1138 436 1121 q 500 1156 474 1156 q 545 1138 526 1156 q 564 1093 564 1121 q 545 1048 564 1065 q 500 1031 526 1031 z "},"Ṇ":{"ha":1018,"x_min":57,"x_max":964,"o":"m 63 0 l 63 39 l 185 51 l 185 879 l 178 889 l 57 897 l 57 936 l 238 936 l 793 133 l 793 885 l 642 897 l 642 936 l 964 936 l 964 897 l 840 885 l 840 -10 l 806 -10 l 233 810 l 233 51 l 386 39 l 386 0 l 63 0 m 525 -250 q 480 -233 499 -250 q 461 -189 461 -217 q 480 -144 461 -161 q 525 -126 499 -126 q 570 -144 551 -126 q 589 -189 589 -161 q 570 -233 589 -217 q 525 -250 551 -250 z "},"Ṉ":{"ha":1018,"x_min":57,"x_max":964,"o":"m 63 0 l 63 39 l 185 51 l 185 879 l 178 889 l 57 897 l 57 936 l 238 936 l 793 133 l 793 885 l 642 897 l 642 936 l 964 936 l 964 897 l 840 885 l 840 -10 l 806 -10 l 233 810 l 233 51 l 386 39 l 386 0 l 63 0 m 339 -208 l 339 -153 l 683 -153 l 683 -208 l 339 -208 z "},"Ò":{"ha":981,"x_min":79,"x_max":903,"o":"m 165 468 q 186 301 165 381 q 249 160 207 221 q 351 64 290 100 q 490 28 411 28 q 631 64 569 28 q 733 160 692 100 q 796 301 775 221 q 817 468 817 381 q 796 635 817 556 q 733 776 775 715 q 631 874 692 838 q 490 910 569 910 q 351 874 411 910 q 249 776 290 838 q 186 635 207 715 q 165 468 165 556 m 490 956 q 649 922 574 956 q 780 826 724 889 q 869 672 836 763 q 903 468 903 582 q 869 266 903 356 q 780 113 836 176 q 649 15 724 49 q 490 -19 574 -19 q 332 14 407 -19 q 201 110 257 47 q 112 264 144 174 q 79 468 79 354 q 112 670 79 581 q 201 824 144 760 q 332 922 257 888 q 490 956 407 956 m 565 1032 l 549 1010 q 465 1058 507 1033 q 385 1106 424 1082 q 333 1142 349 1128 q 318 1171 318 1156 q 328 1194 318 1186 q 354 1203 339 1203 q 383 1193 368 1203 q 428 1156 399 1183 q 494 1095 460 1126 q 565 1032 529 1064 z "},"Ó":{"ha":981,"x_min":79,"x_max":903,"o":"m 165 468 q 186 301 165 381 q 249 160 207 221 q 351 64 290 100 q 490 28 411 28 q 631 64 569 28 q 733 160 692 100 q 796 301 775 221 q 817 468 817 381 q 796 635 817 556 q 733 776 775 715 q 631 874 692 838 q 490 910 569 910 q 351 874 411 910 q 249 776 290 838 q 186 635 207 715 q 165 468 165 556 m 490 956 q 649 922 574 956 q 780 826 724 889 q 869 672 836 763 q 903 468 903 582 q 869 266 903 356 q 780 113 836 176 q 649 15 724 49 q 490 -19 574 -19 q 332 14 407 -19 q 201 110 257 47 q 112 264 144 174 q 79 468 79 354 q 112 670 79 581 q 201 824 144 760 q 332 922 257 888 q 490 956 407 956 m 429 1032 q 500 1096 465 1064 q 567 1157 535 1128 q 611 1193 596 1183 q 640 1203 626 1203 q 666 1194 656 1203 q 676 1171 676 1186 q 662 1142 676 1156 q 611 1107 647 1128 q 529 1058 571 1083 q 446 1010 488 1033 l 429 1032 z "},"Ŏ":{"ha":981,"x_min":79,"x_max":903,"o":"m 165 468 q 186 301 165 381 q 249 160 207 221 q 351 64 290 100 q 490 28 411 28 q 631 64 569 28 q 733 160 692 100 q 796 301 775 221 q 817 468 817 381 q 796 635 817 556 q 733 776 775 715 q 631 874 692 838 q 490 910 569 910 q 351 874 411 910 q 249 776 290 838 q 186 635 207 715 q 165 468 165 556 m 490 956 q 649 922 574 956 q 780 826 724 889 q 869 672 836 763 q 903 468 903 582 q 869 266 903 356 q 780 113 836 176 q 649 15 724 49 q 490 -19 574 -19 q 332 14 407 -19 q 201 110 257 47 q 112 264 144 174 q 79 468 79 354 q 112 670 79 581 q 201 824 144 760 q 332 922 257 888 q 490 956 407 956 m 299 1203 l 328 1213 q 386 1124 346 1158 q 490 1090 426 1090 q 594 1124 556 1090 q 653 1213 633 1158 l 682 1203 q 662 1143 676 1174 q 624 1089 647 1113 q 567 1050 600 1065 q 490 1035 533 1035 q 413 1050 446 1035 q 357 1089 381 1065 q 319 1143 333 1113 q 299 1203 304 1174 z "},"Ô":{"ha":981,"x_min":79,"x_max":903,"o":"m 165 468 q 186 301 165 381 q 249 160 207 221 q 351 64 290 100 q 490 28 411 28 q 631 64 569 28 q 733 160 692 100 q 796 301 775 221 q 817 468 817 381 q 796 635 817 556 q 733 776 775 715 q 631 874 692 838 q 490 910 569 910 q 351 874 411 910 q 249 776 290 838 q 186 635 207 715 q 165 468 165 556 m 490 956 q 649 922 574 956 q 780 826 724 889 q 869 672 836 763 q 903 468 903 582 q 869 266 903 356 q 780 113 836 176 q 649 15 724 49 q 490 -19 574 -19 q 332 14 407 -19 q 201 110 257 47 q 112 264 144 174 q 79 468 79 354 q 112 670 79 581 q 201 824 144 760 q 332 922 257 888 q 490 956 407 956 m 507 1176 l 688 1021 l 669 999 l 492 1110 l 314 999 l 296 1021 l 476 1176 l 507 1176 z "},"Õ":{"ha":981,"x_min":79,"x_max":903,"o":"m 165 468 q 186 301 165 381 q 249 160 207 221 q 351 64 290 100 q 490 28 411 28 q 631 64 569 28 q 733 160 692 100 q 796 301 775 221 q 817 468 817 381 q 796 635 817 556 q 733 776 775 715 q 631 874 692 838 q 490 910 569 910 q 351 874 411 910 q 249 776 290 838 q 186 635 207 715 q 165 468 165 556 m 490 956 q 649 922 574 956 q 780 826 724 889 q 869 672 836 763 q 903 468 903 582 q 869 266 903 356 q 780 113 836 176 q 649 15 724 49 q 490 -19 574 -19 q 332 14 407 -19 q 201 110 257 47 q 112 264 144 174 q 79 468 79 354 q 112 670 79 581 q 201 824 144 760 q 332 922 257 888 q 490 956 407 956 m 254 1036 q 299 1143 265 1103 q 389 1183 332 1183 q 454 1167 428 1183 q 503 1129 481 1150 q 547 1088 526 1106 q 600 1071 568 1071 q 660 1098 638 1071 q 699 1176 683 1125 l 729 1167 q 685 1060 718 1100 q 594 1019 653 1019 q 528 1036 554 1019 q 481 1074 501 1053 q 436 1115 457 1097 q 383 1133 415 1133 q 324 1106 347 1133 q 285 1026 300 1078 l 254 1036 z "},"Ö":{"ha":981,"x_min":79,"x_max":903,"o":"m 165 468 q 186 301 165 381 q 249 160 207 221 q 351 64 290 100 q 490 28 411 28 q 631 64 569 28 q 733 160 692 100 q 796 301 775 221 q 817 468 817 381 q 796 635 817 556 q 733 776 775 715 q 631 874 692 838 q 490 910 569 910 q 351 874 411 910 q 249 776 290 838 q 186 635 207 715 q 165 468 165 556 m 490 956 q 649 922 574 956 q 780 826 724 889 q 869 672 836 763 q 903 468 903 582 q 869 266 903 356 q 780 113 836 176 q 649 15 724 49 q 490 -19 574 -19 q 332 14 407 -19 q 201 110 257 47 q 112 264 144 174 q 79 468 79 354 q 112 670 79 581 q 201 824 144 760 q 332 922 257 888 q 490 956 407 956 m 344 1044 q 303 1060 321 1044 q 286 1101 286 1075 q 303 1142 286 1126 q 344 1158 321 1158 q 385 1142 368 1158 q 403 1101 403 1126 q 385 1060 403 1075 q 344 1044 368 1044 m 639 1044 q 598 1060 615 1044 q 581 1101 581 1075 q 598 1142 581 1126 q 639 1158 615 1158 q 680 1142 663 1158 q 697 1101 697 1126 q 680 1060 697 1075 q 639 1044 663 1044 z "},"Ō":{"ha":981,"x_min":79,"x_max":903,"o":"m 165 468 q 186 301 165 381 q 249 160 207 221 q 351 64 290 100 q 490 28 411 28 q 631 64 569 28 q 733 160 692 100 q 796 301 775 221 q 817 468 817 381 q 796 635 817 556 q 733 776 775 715 q 631 874 692 838 q 490 910 569 910 q 351 874 411 910 q 249 776 290 838 q 186 635 207 715 q 165 468 165 556 m 490 956 q 649 922 574 956 q 780 826 724 889 q 869 672 836 763 q 903 468 903 582 q 869 266 903 356 q 780 113 836 176 q 649 15 724 49 q 490 -19 574 -19 q 332 14 407 -19 q 201 110 257 47 q 112 264 144 174 q 79 468 79 354 q 112 670 79 581 q 201 824 144 760 q 332 922 257 888 q 490 956 407 956 m 286 1061 l 286 1117 l 697 1117 l 697 1061 l 286 1061 z "},"Ő":{"ha":981,"x_min":79,"x_max":903,"o":"m 165 468 q 186 301 165 381 q 249 160 207 221 q 351 64 290 100 q 490 28 411 28 q 631 64 569 28 q 733 160 692 100 q 796 301 775 221 q 817 468 817 381 q 796 635 817 556 q 733 776 775 715 q 631 874 692 838 q 490 910 569 910 q 351 874 411 910 q 249 776 290 838 q 186 635 207 715 q 165 468 165 556 m 490 956 q 649 922 574 956 q 780 826 724 889 q 869 672 836 763 q 903 468 903 582 q 869 266 903 356 q 780 113 836 176 q 649 15 724 49 q 490 -19 574 -19 q 332 14 407 -19 q 201 110 257 47 q 112 264 144 174 q 79 468 79 354 q 112 670 79 581 q 201 824 144 760 q 332 922 257 888 q 490 956 407 956 m 367 1017 l 465 1176 q 490 1207 476 1199 q 515 1215 504 1215 q 538 1206 529 1215 q 547 1183 547 1197 q 542 1163 547 1172 q 524 1138 538 1153 l 390 1000 l 367 1017 m 561 1017 l 658 1176 q 684 1207 671 1199 q 708 1215 697 1215 q 732 1206 722 1215 q 742 1183 742 1197 q 736 1163 742 1172 q 718 1138 731 1153 l 585 1000 l 561 1017 z "},"Ǒ":{"ha":981,"x_min":79,"x_max":903,"o":"m 165 468 q 186 301 165 381 q 249 160 207 221 q 351 64 290 100 q 490 28 411 28 q 631 64 569 28 q 733 160 692 100 q 796 301 775 221 q 817 468 817 381 q 796 635 817 556 q 733 776 775 715 q 631 874 692 838 q 490 910 569 910 q 351 874 411 910 q 249 776 290 838 q 186 635 207 715 q 165 468 165 556 m 490 956 q 649 922 574 956 q 780 826 724 889 q 869 672 836 763 q 903 468 903 582 q 869 266 903 356 q 780 113 836 176 q 649 15 724 49 q 490 -19 574 -19 q 332 14 407 -19 q 201 110 257 47 q 112 264 144 174 q 79 468 79 354 q 112 670 79 581 q 201 824 144 760 q 332 922 257 888 q 490 956 407 956 m 335 1203 l 490 1079 l 646 1203 l 668 1182 l 519 1022 l 461 1022 l 313 1182 l 335 1203 z "},"Ố":{"ha":981,"x_min":79,"x_max":903,"o":"m 165 468 q 186 301 165 381 q 249 160 207 221 q 351 64 290 100 q 490 28 411 28 q 631 64 569 28 q 733 160 692 100 q 796 301 775 221 q 817 468 817 381 q 796 635 817 556 q 733 776 775 715 q 631 874 692 838 q 490 910 569 910 q 351 874 411 910 q 249 776 290 838 q 186 635 207 715 q 165 468 165 556 m 490 956 q 649 922 574 956 q 780 826 724 889 q 869 672 836 763 q 903 468 903 582 q 869 266 903 356 q 780 113 836 176 q 649 15 724 49 q 490 -19 574 -19 q 332 14 407 -19 q 201 110 257 47 q 112 264 144 174 q 79 468 79 354 q 112 670 79 581 q 201 824 144 760 q 332 922 257 888 q 490 956 407 956 m 319 999 l 301 1021 l 482 1176 l 513 1176 l 693 1021 l 675 999 l 497 1110 l 319 999 m 653 1100 l 633 1119 l 710 1215 q 757 1244 735 1244 q 779 1235 771 1244 q 788 1214 788 1226 q 747 1165 788 1189 l 653 1100 z "},"Ộ":{"ha":981,"x_min":79,"x_max":903,"o":"m 165 468 q 186 301 165 381 q 249 160 207 221 q 351 64 290 100 q 490 28 411 28 q 631 64 569 28 q 733 160 692 100 q 796 301 775 221 q 817 468 817 381 q 796 635 817 556 q 733 776 775 715 q 631 874 692 838 q 490 910 569 910 q 351 874 411 910 q 249 776 290 838 q 186 635 207 715 q 165 468 165 556 m 490 956 q 649 922 574 956 q 780 826 724 889 q 869 672 836 763 q 903 468 903 582 q 869 266 903 356 q 780 113 836 176 q 649 15 724 49 q 490 -19 574 -19 q 332 14 407 -19 q 201 110 257 47 q 112 264 144 174 q 79 468 79 354 q 112 670 79 581 q 201 824 144 760 q 332 922 257 888 q 490 956 407 956 m 507 1176 l 688 1021 l 669 999 l 492 1110 l 314 999 l 296 1021 l 476 1176 l 507 1176 m 490 -250 q 445 -233 464 -250 q 426 -189 426 -217 q 445 -144 426 -161 q 490 -126 464 -126 q 535 -144 517 -126 q 554 -189 554 -161 q 535 -233 554 -217 q 490 -250 517 -250 z "},"Ồ":{"ha":981,"x_min":79,"x_max":903,"o":"m 165 468 q 186 301 165 381 q 249 160 207 221 q 351 64 290 100 q 490 28 411 28 q 631 64 569 28 q 733 160 692 100 q 796 301 775 221 q 817 468 817 381 q 796 635 817 556 q 733 776 775 715 q 631 874 692 838 q 490 910 569 910 q 351 874 411 910 q 249 776 290 838 q 186 635 207 715 q 165 468 165 556 m 490 956 q 649 922 574 956 q 780 826 724 889 q 869 672 836 763 q 903 468 903 582 q 869 266 903 356 q 780 113 836 176 q 649 15 724 49 q 490 -19 574 -19 q 332 14 407 -19 q 201 110 257 47 q 112 264 144 174 q 79 468 79 354 q 112 670 79 581 q 201 824 144 760 q 332 922 257 888 q 490 956 407 956 m 669 999 l 492 1110 l 314 999 l 296 1021 l 476 1176 l 507 1176 l 688 1021 l 669 999 m 331 1101 l 236 1165 q 205 1188 214 1176 q 196 1214 196 1200 q 204 1235 196 1226 q 226 1244 213 1244 q 274 1215 249 1244 l 350 1121 l 331 1101 z "},"Ổ":{"ha":981,"x_min":79,"x_max":903,"o":"m 165 468 q 186 301 165 381 q 249 160 207 221 q 351 64 290 100 q 490 28 411 28 q 631 64 569 28 q 733 160 692 100 q 796 301 775 221 q 817 468 817 381 q 796 635 817 556 q 733 776 775 715 q 631 874 692 838 q 490 910 569 910 q 351 874 411 910 q 249 776 290 838 q 186 635 207 715 q 165 468 165 556 m 490 956 q 649 922 574 956 q 780 826 724 889 q 869 672 836 763 q 903 468 903 582 q 869 266 903 356 q 780 113 836 176 q 649 15 724 49 q 490 -19 574 -19 q 332 14 407 -19 q 201 110 257 47 q 112 264 144 174 q 79 468 79 354 q 112 670 79 581 q 201 824 144 760 q 332 922 257 888 q 490 956 407 956 m 314 999 l 296 1021 l 476 1176 l 507 1176 l 688 1021 l 669 999 l 492 1110 l 314 999 m 635 1122 q 713 1179 713 1138 q 683 1217 713 1206 q 586 1236 653 1229 l 594 1293 q 761 1189 761 1278 q 730 1126 761 1151 q 643 1093 699 1100 l 635 1122 z "},"Ỗ":{"ha":981,"x_min":79,"x_max":903,"o":"m 165 468 q 186 301 165 381 q 249 160 207 221 q 351 64 290 100 q 490 28 411 28 q 631 64 569 28 q 733 160 692 100 q 796 301 775 221 q 817 468 817 381 q 796 635 817 556 q 733 776 775 715 q 631 874 692 838 q 490 910 569 910 q 351 874 411 910 q 249 776 290 838 q 186 635 207 715 q 165 468 165 556 m 490 956 q 649 922 574 956 q 780 826 724 889 q 869 672 836 763 q 903 468 903 582 q 869 266 903 356 q 780 113 836 176 q 649 15 724 49 q 490 -19 574 -19 q 332 14 407 -19 q 201 110 257 47 q 112 264 144 174 q 79 468 79 354 q 112 670 79 581 q 201 824 144 760 q 332 922 257 888 q 490 956 407 956 m 308 994 l 294 1017 l 475 1144 l 506 1144 l 686 1017 l 672 994 l 490 1082 l 308 994 m 276 1186 q 317 1265 286 1235 q 399 1296 347 1296 q 457 1285 433 1296 q 501 1261 481 1275 q 543 1237 524 1246 q 590 1228 563 1228 q 679 1296 654 1228 l 704 1286 q 665 1208 694 1238 q 582 1178 635 1178 q 523 1188 546 1178 q 479 1211 500 1197 q 438 1235 457 1226 q 390 1244 418 1244 q 335 1227 357 1244 q 301 1178 314 1210 l 276 1186 z "},"Ọ":{"ha":981,"x_min":79,"x_max":903,"o":"m 165 468 q 186 301 165 381 q 249 160 207 221 q 351 64 290 100 q 490 28 411 28 q 631 64 569 28 q 733 160 692 100 q 796 301 775 221 q 817 468 817 381 q 796 635 817 556 q 733 776 775 715 q 631 874 692 838 q 490 910 569 910 q 351 874 411 910 q 249 776 290 838 q 186 635 207 715 q 165 468 165 556 m 490 956 q 649 922 574 956 q 780 826 724 889 q 869 672 836 763 q 903 468 903 582 q 869 266 903 356 q 780 113 836 176 q 649 15 724 49 q 490 -19 574 -19 q 332 14 407 -19 q 201 110 257 47 q 112 264 144 174 q 79 468 79 354 q 112 670 79 581 q 201 824 144 760 q 332 922 257 888 q 490 956 407 956 m 490 -250 q 445 -233 464 -250 q 426 -189 426 -217 q 445 -144 426 -161 q 490 -126 464 -126 q 535 -144 517 -126 q 554 -189 554 -161 q 535 -233 554 -217 q 490 -250 517 -250 z "},"Ỏ":{"ha":981,"x_min":79,"x_max":903,"o":"m 165 468 q 186 301 165 381 q 249 160 207 221 q 351 64 290 100 q 490 28 411 28 q 631 64 569 28 q 733 160 692 100 q 796 301 775 221 q 817 468 817 381 q 796 635 817 556 q 733 776 775 715 q 631 874 692 838 q 490 910 569 910 q 351 874 411 910 q 249 776 290 838 q 186 635 207 715 q 165 468 165 556 m 490 956 q 649 922 574 956 q 780 826 724 889 q 869 672 836 763 q 903 468 903 582 q 869 266 903 356 q 780 113 836 176 q 649 15 724 49 q 490 -19 574 -19 q 332 14 407 -19 q 201 110 257 47 q 112 264 144 174 q 79 468 79 354 q 112 670 79 581 q 201 824 144 760 q 332 922 257 888 q 490 956 407 956 m 465 1000 l 457 1029 q 522 1053 501 1040 q 543 1090 543 1067 q 519 1128 543 1114 q 426 1151 494 1142 l 436 1210 q 556 1172 519 1199 q 592 1100 592 1144 q 558 1034 592 1061 q 465 1000 525 1007 z "},"Ơ":{"ha":981,"x_min":79,"x_max":903,"o":"m 165 468 q 186 301 165 381 q 249 160 207 221 q 351 64 290 100 q 490 28 411 28 q 631 64 569 28 q 733 160 692 100 q 796 301 775 221 q 817 468 817 381 q 796 635 817 556 q 733 776 775 715 q 631 874 692 838 q 490 910 569 910 q 351 874 411 910 q 249 776 290 838 q 186 635 207 715 q 165 468 165 556 m 490 956 q 649 922 574 956 q 780 826 724 889 q 869 672 836 763 q 903 468 903 582 q 869 266 903 356 q 780 113 836 176 q 649 15 724 49 q 490 -19 574 -19 q 332 14 407 -19 q 201 110 257 47 q 112 264 144 174 q 79 468 79 354 q 112 670 79 581 q 201 824 144 760 q 332 922 257 888 q 490 956 407 956 m 708 831 l 703 858 q 811 902 781 868 q 842 981 842 936 q 838 1012 842 999 q 828 1037 833 1025 q 818 1058 822 1049 q 814 1079 814 1068 q 824 1103 814 1093 q 851 1114 835 1114 q 866 1113 858 1114 q 881 1106 874 1111 q 895 1070 889 1090 q 901 1022 901 1050 q 890 955 901 988 q 855 896 879 922 q 794 852 831 869 q 708 831 758 835 z "},"Ớ":{"ha":981,"x_min":79,"x_max":903,"o":"m 165 468 q 186 301 165 381 q 249 160 207 221 q 351 64 290 100 q 490 28 411 28 q 631 64 569 28 q 733 160 692 100 q 796 301 775 221 q 817 468 817 381 q 796 635 817 556 q 733 776 775 715 q 631 874 692 838 q 490 910 569 910 q 351 874 411 910 q 249 776 290 838 q 186 635 207 715 q 165 468 165 556 m 490 956 q 649 922 574 956 q 780 826 724 889 q 869 672 836 763 q 903 468 903 582 q 869 266 903 356 q 780 113 836 176 q 649 15 724 49 q 490 -19 574 -19 q 332 14 407 -19 q 201 110 257 47 q 112 264 144 174 q 79 468 79 354 q 112 670 79 581 q 201 824 144 760 q 332 922 257 888 q 490 956 407 956 m 708 831 l 703 858 q 811 902 781 868 q 842 981 842 936 q 838 1012 842 999 q 828 1037 833 1025 q 818 1058 822 1049 q 814 1079 814 1068 q 824 1103 814 1093 q 851 1114 835 1114 q 866 1113 858 1114 q 881 1106 874 1111 q 895 1070 889 1090 q 901 1022 901 1050 q 890 955 901 988 q 855 896 879 922 q 794 852 831 869 q 708 831 758 835 m 417 1032 q 488 1096 453 1064 q 554 1157 522 1128 q 599 1193 583 1183 q 628 1203 614 1203 q 653 1194 643 1203 q 664 1171 664 1186 q 649 1142 664 1156 q 599 1107 635 1128 q 517 1058 558 1083 q 433 1010 475 1033 l 417 1032 z "},"Ợ":{"ha":981,"x_min":79,"x_max":903,"o":"m 165 468 q 186 301 165 381 q 249 160 207 221 q 351 64 290 100 q 490 28 411 28 q 631 64 569 28 q 733 160 692 100 q 796 301 775 221 q 817 468 817 381 q 796 635 817 556 q 733 776 775 715 q 631 874 692 838 q 490 910 569 910 q 351 874 411 910 q 249 776 290 838 q 186 635 207 715 q 165 468 165 556 m 490 956 q 649 922 574 956 q 780 826 724 889 q 869 672 836 763 q 903 468 903 582 q 869 266 903 356 q 780 113 836 176 q 649 15 724 49 q 490 -19 574 -19 q 332 14 407 -19 q 201 110 257 47 q 112 264 144 174 q 79 468 79 354 q 112 670 79 581 q 201 824 144 760 q 332 922 257 888 q 490 956 407 956 m 708 831 l 703 858 q 811 902 781 868 q 842 981 842 936 q 838 1012 842 999 q 828 1037 833 1025 q 818 1058 822 1049 q 814 1079 814 1068 q 824 1103 814 1093 q 851 1114 835 1114 q 866 1113 858 1114 q 881 1106 874 1111 q 895 1070 889 1090 q 901 1022 901 1050 q 890 955 901 988 q 855 896 879 922 q 794 852 831 869 q 708 831 758 835 m 490 -250 q 445 -233 464 -250 q 426 -189 426 -217 q 445 -144 426 -161 q 490 -126 464 -126 q 535 -144 517 -126 q 554 -189 554 -161 q 535 -233 554 -217 q 490 -250 517 -250 z "},"Ờ":{"ha":981,"x_min":79,"x_max":903,"o":"m 165 468 q 186 301 165 381 q 249 160 207 221 q 351 64 290 100 q 490 28 411 28 q 631 64 569 28 q 733 160 692 100 q 796 301 775 221 q 817 468 817 381 q 796 635 817 556 q 733 776 775 715 q 631 874 692 838 q 490 910 569 910 q 351 874 411 910 q 249 776 290 838 q 186 635 207 715 q 165 468 165 556 m 490 956 q 649 922 574 956 q 780 826 724 889 q 869 672 836 763 q 903 468 903 582 q 869 266 903 356 q 780 113 836 176 q 649 15 724 49 q 490 -19 574 -19 q 332 14 407 -19 q 201 110 257 47 q 112 264 144 174 q 79 468 79 354 q 112 670 79 581 q 201 824 144 760 q 332 922 257 888 q 490 956 407 956 m 708 831 l 703 858 q 811 902 781 868 q 842 981 842 936 q 838 1012 842 999 q 828 1037 833 1025 q 818 1058 822 1049 q 814 1079 814 1068 q 824 1103 814 1093 q 851 1114 835 1114 q 866 1113 858 1114 q 881 1106 874 1111 q 895 1070 889 1090 q 901 1022 901 1050 q 890 955 901 988 q 855 896 879 922 q 794 852 831 869 q 708 831 758 835 m 564 1032 l 547 1010 q 464 1058 506 1033 q 383 1106 422 1082 q 332 1142 347 1128 q 317 1171 317 1156 q 327 1194 317 1186 q 353 1203 338 1203 q 382 1193 367 1203 q 426 1156 397 1183 q 493 1095 458 1126 q 564 1032 528 1064 z "},"Ở":{"ha":981,"x_min":79,"x_max":903,"o":"m 165 468 q 186 301 165 381 q 249 160 207 221 q 351 64 290 100 q 490 28 411 28 q 631 64 569 28 q 733 160 692 100 q 796 301 775 221 q 817 468 817 381 q 796 635 817 556 q 733 776 775 715 q 631 874 692 838 q 490 910 569 910 q 351 874 411 910 q 249 776 290 838 q 186 635 207 715 q 165 468 165 556 m 490 956 q 649 922 574 956 q 780 826 724 889 q 869 672 836 763 q 903 468 903 582 q 869 266 903 356 q 780 113 836 176 q 649 15 724 49 q 490 -19 574 -19 q 332 14 407 -19 q 201 110 257 47 q 112 264 144 174 q 79 468 79 354 q 112 670 79 581 q 201 824 144 760 q 332 922 257 888 q 490 956 407 956 m 708 831 l 703 858 q 811 902 781 868 q 842 981 842 936 q 838 1012 842 999 q 828 1037 833 1025 q 818 1058 822 1049 q 814 1079 814 1068 q 824 1103 814 1093 q 851 1114 835 1114 q 866 1113 858 1114 q 881 1106 874 1111 q 895 1070 889 1090 q 901 1022 901 1050 q 890 955 901 988 q 855 896 879 922 q 794 852 831 869 q 708 831 758 835 m 465 1000 l 457 1029 q 522 1053 501 1040 q 543 1090 543 1067 q 519 1128 543 1114 q 426 1151 494 1142 l 436 1210 q 556 1172 519 1199 q 592 1100 592 1144 q 558 1034 592 1061 q 465 1000 525 1007 z "},"Ỡ":{"ha":981,"x_min":79,"x_max":903,"o":"m 165 468 q 186 301 165 381 q 249 160 207 221 q 351 64 290 100 q 490 28 411 28 q 631 64 569 28 q 733 160 692 100 q 796 301 775 221 q 817 468 817 381 q 796 635 817 556 q 733 776 775 715 q 631 874 692 838 q 490 910 569 910 q 351 874 411 910 q 249 776 290 838 q 186 635 207 715 q 165 468 165 556 m 490 956 q 649 922 574 956 q 780 826 724 889 q 869 672 836 763 q 903 468 903 582 q 869 266 903 356 q 780 113 836 176 q 649 15 724 49 q 490 -19 574 -19 q 332 14 407 -19 q 201 110 257 47 q 112 264 144 174 q 79 468 79 354 q 112 670 79 581 q 201 824 144 760 q 332 922 257 888 q 490 956 407 956 m 708 831 l 703 858 q 811 902 781 868 q 842 981 842 936 q 838 1012 842 999 q 828 1037 833 1025 q 818 1058 822 1049 q 814 1079 814 1068 q 824 1103 814 1093 q 851 1114 835 1114 q 866 1113 858 1114 q 881 1106 874 1111 q 895 1070 889 1090 q 901 1022 901 1050 q 890 955 901 988 q 855 896 879 922 q 794 852 831 869 q 708 831 758 835 m 249 1036 q 293 1143 260 1103 q 383 1183 326 1183 q 449 1167 422 1183 q 497 1129 475 1150 q 542 1088 521 1106 q 594 1071 563 1071 q 655 1098 632 1071 q 693 1176 678 1125 l 724 1167 q 680 1060 713 1100 q 589 1019 647 1019 q 522 1036 549 1019 q 475 1074 496 1053 q 431 1115 451 1097 q 378 1133 410 1133 q 318 1106 342 1133 q 279 1026 294 1078 l 249 1036 z "},"Ø":{"ha":981,"x_min":79,"x_max":903,"o":"m 888 933 l 792 813 q 873 663 843 750 q 903 468 903 576 q 869 266 903 356 q 780 113 836 176 q 649 15 724 49 q 490 -19 574 -19 q 343 9 413 -19 q 219 92 274 38 l 126 -25 l 88 7 l 185 129 q 108 276 136 192 q 79 468 79 361 q 112 670 79 581 q 201 824 144 760 q 332 922 257 888 q 490 956 407 956 q 635 928 567 956 q 758 849 703 901 l 850 964 l 888 933 m 165 468 q 182 317 165 389 q 232 188 199 246 l 718 797 q 620 880 676 850 q 490 910 564 910 q 351 874 411 910 q 249 776 290 838 q 186 635 207 715 q 165 468 165 556 m 490 28 q 631 64 569 28 q 733 160 692 100 q 796 301 775 221 q 817 468 817 381 q 799 622 817 549 q 746 756 782 696 l 261 144 q 358 59 301 90 q 490 28 415 28 z "},"Œ":{"ha":1281,"x_min":79,"x_max":1224,"o":"m 167 468 q 188 303 167 382 q 254 163 210 224 q 369 65 299 101 q 536 28 439 28 q 599 31 571 28 q 658 43 628 33 q 661 235 661 139 q 661 431 661 332 l 661 506 q 661 701 661 604 q 658 894 661 797 q 599 906 628 903 q 536 910 569 910 q 369 873 439 910 q 254 775 299 836 q 188 634 210 714 q 167 468 167 554 m 1172 226 l 1224 226 l 1211 0 l 693 0 q 608 -15 649 -11 q 532 -19 568 -19 q 350 15 433 -19 q 206 113 267 49 q 113 267 146 176 q 79 468 79 357 q 113 669 79 579 q 208 823 147 760 q 351 921 268 886 q 532 956 433 956 q 608 951 568 956 q 693 936 649 947 l 1189 936 l 1201 710 l 1150 710 l 1124 890 l 739 890 q 736 697 736 794 q 736 497 736 600 l 983 497 l 999 631 l 1040 631 l 1040 319 l 999 319 l 983 453 l 736 453 q 736 235 736 332 q 739 46 736 138 l 1146 46 l 1172 226 z "},"Ŕ":{"ha":900,"x_min":74,"x_max":875,"o":"m 217 431 l 217 506 q 217 696 217 601 q 215 886 217 790 l 74 897 l 74 936 l 444 936 q 679 873 597 936 q 761 692 761 810 q 701 533 761 600 q 531 447 640 467 q 614 399 585 433 q 665 297 643 364 l 750 49 l 875 39 l 875 0 q 836 -7 860 -4 q 782 -10 813 -10 q 702 6 725 -10 q 668 57 679 22 l 593 296 q 567 362 581 335 q 531 406 553 389 q 478 429 510 422 q 401 436 447 436 l 292 436 q 292 234 292 328 q 294 50 292 140 l 436 39 l 436 0 l 74 0 l 74 39 l 215 50 q 217 240 217 146 q 217 431 217 335 m 442 892 l 294 892 q 292 696 292 796 q 292 478 292 596 l 444 478 q 543 494 499 478 q 619 539 588 510 q 667 607 650 568 q 685 692 685 646 q 626 838 685 785 q 442 892 568 892 m 399 1032 q 469 1096 435 1064 q 536 1157 504 1128 q 581 1193 565 1183 q 610 1203 596 1203 q 635 1194 625 1203 q 646 1171 646 1186 q 631 1142 646 1156 q 581 1107 617 1128 q 499 1058 540 1083 q 415 1010 457 1033 l 399 1032 z "},"Ř":{"ha":900,"x_min":74,"x_max":875,"o":"m 217 431 l 217 506 q 217 696 217 601 q 215 886 217 790 l 74 897 l 74 936 l 444 936 q 679 873 597 936 q 761 692 761 810 q 701 533 761 600 q 531 447 640 467 q 614 399 585 433 q 665 297 643 364 l 750 49 l 875 39 l 875 0 q 836 -7 860 -4 q 782 -10 813 -10 q 702 6 725 -10 q 668 57 679 22 l 593 296 q 567 362 581 335 q 531 406 553 389 q 478 429 510 422 q 401 436 447 436 l 292 436 q 292 234 292 328 q 294 50 292 140 l 436 39 l 436 0 l 74 0 l 74 39 l 215 50 q 217 240 217 146 q 217 431 217 335 m 442 892 l 294 892 q 292 696 292 796 q 292 478 292 596 l 444 478 q 543 494 499 478 q 619 539 588 510 q 667 607 650 568 q 685 692 685 646 q 626 838 685 785 q 442 892 568 892 m 292 1203 l 447 1079 l 603 1203 l 625 1182 l 476 1022 l 418 1022 l 269 1182 l 292 1203 z "},"Ŗ":{"ha":900,"x_min":74,"x_max":875,"o":"m 217 431 l 217 506 q 217 696 217 601 q 215 886 217 790 l 74 897 l 74 936 l 444 936 q 679 873 597 936 q 761 692 761 810 q 701 533 761 600 q 531 447 640 467 q 614 399 585 433 q 665 297 643 364 l 750 49 l 875 39 l 875 0 q 836 -7 860 -4 q 782 -10 813 -10 q 702 6 725 -10 q 668 57 679 22 l 593 296 q 567 362 581 335 q 531 406 553 389 q 478 429 510 422 q 401 436 447 436 l 292 436 q 292 234 292 328 q 294 50 292 140 l 436 39 l 436 0 l 74 0 l 74 39 l 215 50 q 217 240 217 146 q 217 431 217 335 m 442 892 l 294 892 q 292 696 292 796 q 292 478 292 596 l 444 478 q 543 494 499 478 q 619 539 588 510 q 667 607 650 568 q 685 692 685 646 q 626 838 685 785 q 442 892 568 892 m 574 -146 q 560 -208 574 -179 q 525 -260 547 -237 q 473 -300 503 -283 q 411 -326 443 -317 l 400 -297 q 474 -254 444 -279 q 522 -193 504 -229 q 481 -165 497 -183 q 464 -128 464 -147 q 479 -92 464 -104 q 515 -79 494 -79 q 541 -83 528 -79 q 565 -99 554 -87 q 574 -146 574 -124 z "},"Ṛ":{"ha":900,"x_min":74,"x_max":875,"o":"m 217 431 l 217 506 q 217 696 217 601 q 215 886 217 790 l 74 897 l 74 936 l 444 936 q 679 873 597 936 q 761 692 761 810 q 701 533 761 600 q 531 447 640 467 q 614 399 585 433 q 665 297 643 364 l 750 49 l 875 39 l 875 0 q 836 -7 860 -4 q 782 -10 813 -10 q 702 6 725 -10 q 668 57 679 22 l 593 296 q 567 362 581 335 q 531 406 553 389 q 478 429 510 422 q 401 436 447 436 l 292 436 q 292 234 292 328 q 294 50 292 140 l 436 39 l 436 0 l 74 0 l 74 39 l 215 50 q 217 240 217 146 q 217 431 217 335 m 442 892 l 294 892 q 292 696 292 796 q 292 478 292 596 l 444 478 q 543 494 499 478 q 619 539 588 510 q 667 607 650 568 q 685 692 685 646 q 626 838 685 785 q 442 892 568 892 m 494 -250 q 449 -233 468 -250 q 431 -189 431 -217 q 449 -144 431 -161 q 494 -126 468 -126 q 540 -144 521 -126 q 558 -189 558 -161 q 540 -233 558 -217 q 494 -250 521 -250 z "},"Ṝ":{"ha":900,"x_min":74,"x_max":875,"o":"m 217 431 l 217 506 q 217 696 217 601 q 215 886 217 790 l 74 897 l 74 936 l 444 936 q 679 873 597 936 q 761 692 761 810 q 701 533 761 600 q 531 447 640 467 q 614 399 585 433 q 665 297 643 364 l 750 49 l 875 39 l 875 0 q 836 -7 860 -4 q 782 -10 813 -10 q 702 6 725 -10 q 668 57 679 22 l 593 296 q 567 362 581 335 q 531 406 553 389 q 478 429 510 422 q 401 436 447 436 l 292 436 q 292 234 292 328 q 294 50 292 140 l 436 39 l 436 0 l 74 0 l 74 39 l 215 50 q 217 240 217 146 q 217 431 217 335 m 442 892 l 294 892 q 292 696 292 796 q 292 478 292 596 l 444 478 q 543 494 499 478 q 619 539 588 510 q 667 607 650 568 q 685 692 685 646 q 626 838 685 785 q 442 892 568 892 m 494 -250 q 449 -233 468 -250 q 431 -189 431 -217 q 449 -144 431 -161 q 494 -126 468 -126 q 540 -144 521 -126 q 558 -189 558 -161 q 540 -233 558 -217 q 494 -250 521 -250 m 243 1061 l 243 1117 l 654 1117 l 654 1061 l 243 1061 z "},"Ṟ":{"ha":900,"x_min":74,"x_max":875,"o":"m 217 431 l 217 506 q 217 696 217 601 q 215 886 217 790 l 74 897 l 74 936 l 444 936 q 679 873 597 936 q 761 692 761 810 q 701 533 761 600 q 531 447 640 467 q 614 399 585 433 q 665 297 643 364 l 750 49 l 875 39 l 875 0 q 836 -7 860 -4 q 782 -10 813 -10 q 702 6 725 -10 q 668 57 679 22 l 593 296 q 567 362 581 335 q 531 406 553 389 q 478 429 510 422 q 401 436 447 436 l 292 436 q 292 234 292 328 q 294 50 292 140 l 436 39 l 436 0 l 74 0 l 74 39 l 215 50 q 217 240 217 146 q 217 431 217 335 m 442 892 l 294 892 q 292 696 292 796 q 292 478 292 596 l 444 478 q 543 494 499 478 q 619 539 588 510 q 667 607 650 568 q 685 692 685 646 q 626 838 685 785 q 442 892 568 892 m 304 -208 l 304 -153 l 649 -153 l 649 -208 l 304 -208 z "},"Ś":{"ha":713,"x_min":68,"x_max":644,"o":"m 331 28 q 508 76 439 28 q 576 224 576 125 q 567 289 576 260 q 533 342 557 318 q 469 388 508 367 q 372 433 431 410 l 321 454 q 153 560 211 499 q 96 718 96 622 q 119 822 96 778 q 181 897 142 867 q 271 941 219 926 q 379 956 322 956 q 506 937 454 956 q 604 886 557 918 l 599 714 l 547 714 l 526 869 q 457 900 492 890 q 378 910 422 910 q 224 866 285 910 q 164 732 164 822 q 209 611 164 657 q 335 533 254 565 l 389 513 q 513 453 464 483 q 592 391 563 424 q 633 319 621 358 q 644 233 644 281 q 621 128 644 175 q 556 48 597 81 q 457 -2 514 15 q 332 -19 400 -19 q 182 3 251 -19 q 68 56 113 26 l 75 238 l 125 238 l 146 76 q 232 38 190 49 q 331 28 274 28 m 306 1032 q 376 1096 342 1064 q 443 1157 411 1128 q 488 1193 472 1183 q 517 1203 503 1203 q 542 1194 532 1203 q 553 1171 553 1186 q 538 1142 553 1156 q 488 1107 524 1128 q 406 1058 447 1083 q 322 1010 364 1033 l 306 1032 z "},"Š":{"ha":713,"x_min":68,"x_max":644,"o":"m 331 28 q 508 76 439 28 q 576 224 576 125 q 567 289 576 260 q 533 342 557 318 q 469 388 508 367 q 372 433 431 410 l 321 454 q 153 560 211 499 q 96 718 96 622 q 119 822 96 778 q 181 897 142 867 q 271 941 219 926 q 379 956 322 956 q 506 937 454 956 q 604 886 557 918 l 599 714 l 547 714 l 526 869 q 457 900 492 890 q 378 910 422 910 q 224 866 285 910 q 164 732 164 822 q 209 611 164 657 q 335 533 254 565 l 389 513 q 513 453 464 483 q 592 391 563 424 q 633 319 621 358 q 644 233 644 281 q 621 128 644 175 q 556 48 597 81 q 457 -2 514 15 q 332 -19 400 -19 q 182 3 251 -19 q 68 56 113 26 l 75 238 l 125 238 l 146 76 q 232 38 190 49 q 331 28 274 28 m 226 1203 l 382 1079 l 538 1203 l 560 1182 l 411 1022 l 353 1022 l 204 1182 l 226 1203 z "},"Ş":{"ha":713,"x_min":68,"x_max":644,"o":"m 331 28 q 508 76 439 28 q 576 224 576 125 q 567 289 576 260 q 533 342 557 318 q 469 388 508 367 q 372 433 431 410 l 321 454 q 153 560 211 499 q 96 718 96 622 q 119 822 96 778 q 181 897 142 867 q 271 941 219 926 q 379 956 322 956 q 506 937 454 956 q 604 886 557 918 l 599 714 l 547 714 l 526 869 q 457 900 492 890 q 378 910 422 910 q 224 866 285 910 q 164 732 164 822 q 209 611 164 657 q 335 533 254 565 l 389 513 q 513 453 464 483 q 592 391 563 424 q 633 319 621 358 q 644 233 644 281 q 621 128 644 175 q 556 48 597 81 q 457 -2 514 15 q 332 -19 400 -19 q 182 3 251 -19 q 68 56 113 26 l 75 238 l 125 238 l 146 76 q 232 38 190 49 q 331 28 274 28 m 311 -112 l 329 1 l 367 1 l 356 -82 q 449 -117 414 -89 q 485 -192 485 -146 q 449 -270 485 -240 q 344 -300 414 -300 q 299 -297 319 -300 q 258 -286 278 -293 l 267 -257 q 303 -262 286 -260 q 338 -265 319 -265 q 403 -245 382 -265 q 425 -192 425 -225 q 399 -135 425 -156 q 311 -112 374 -115 z "},"Ș":{"ha":713,"x_min":68,"x_max":644,"o":"m 331 28 q 508 76 439 28 q 576 224 576 125 q 567 289 576 260 q 533 342 557 318 q 469 388 508 367 q 372 433 431 410 l 321 454 q 153 560 211 499 q 96 718 96 622 q 119 822 96 778 q 181 897 142 867 q 271 941 219 926 q 379 956 322 956 q 506 937 454 956 q 604 886 557 918 l 599 714 l 547 714 l 526 869 q 457 900 492 890 q 378 910 422 910 q 224 866 285 910 q 164 732 164 822 q 209 611 164 657 q 335 533 254 565 l 389 513 q 513 453 464 483 q 592 391 563 424 q 633 319 621 358 q 644 233 644 281 q 621 128 644 175 q 556 48 597 81 q 457 -2 514 15 q 332 -19 400 -19 q 182 3 251 -19 q 68 56 113 26 l 75 238 l 125 238 l 146 76 q 232 38 190 49 q 331 28 274 28 m 433 -151 q 420 -214 433 -185 q 385 -266 407 -243 q 333 -306 363 -289 q 271 -332 303 -322 l 260 -303 q 334 -260 304 -285 q 382 -199 364 -235 q 340 -171 357 -189 q 324 -133 324 -153 q 339 -97 324 -110 q 375 -85 354 -85 q 401 -89 388 -85 q 425 -104 414 -93 q 433 -151 433 -129 z "},"Ŝ":{"ha":713,"x_min":68,"x_max":644,"o":"m 331 28 q 508 76 439 28 q 576 224 576 125 q 567 289 576 260 q 533 342 557 318 q 469 388 508 367 q 372 433 431 410 l 321 454 q 153 560 211 499 q 96 718 96 622 q 119 822 96 778 q 181 897 142 867 q 271 941 219 926 q 379 956 322 956 q 506 937 454 956 q 604 886 557 918 l 599 714 l 547 714 l 526 869 q 457 900 492 890 q 378 910 422 910 q 224 866 285 910 q 164 732 164 822 q 209 611 164 657 q 335 533 254 565 l 389 513 q 513 453 464 483 q 592 391 563 424 q 633 319 621 358 q 644 233 644 281 q 621 128 644 175 q 556 48 597 81 q 457 -2 514 15 q 332 -19 400 -19 q 182 3 251 -19 q 68 56 113 26 l 75 238 l 125 238 l 146 76 q 232 38 190 49 q 331 28 274 28 m 388 1176 l 568 1021 l 550 999 l 372 1110 l 194 999 l 176 1021 l 357 1176 l 388 1176 z "},"Ṡ":{"ha":713,"x_min":68,"x_max":644,"o":"m 331 28 q 508 76 439 28 q 576 224 576 125 q 567 289 576 260 q 533 342 557 318 q 469 388 508 367 q 372 433 431 410 l 321 454 q 153 560 211 499 q 96 718 96 622 q 119 822 96 778 q 181 897 142 867 q 271 941 219 926 q 379 956 322 956 q 506 937 454 956 q 604 886 557 918 l 599 714 l 547 714 l 526 869 q 457 900 492 890 q 378 910 422 910 q 224 866 285 910 q 164 732 164 822 q 209 611 164 657 q 335 533 254 565 l 389 513 q 513 453 464 483 q 592 391 563 424 q 633 319 621 358 q 644 233 644 281 q 621 128 644 175 q 556 48 597 81 q 457 -2 514 15 q 332 -19 400 -19 q 182 3 251 -19 q 68 56 113 26 l 75 238 l 125 238 l 146 76 q 232 38 190 49 q 331 28 274 28 m 372 1042 q 327 1059 346 1042 q 308 1104 308 1076 q 327 1149 308 1132 q 372 1167 346 1167 q 417 1149 399 1167 q 436 1104 436 1132 q 417 1059 436 1076 q 372 1042 399 1042 z "},"Ṣ":{"ha":713,"x_min":68,"x_max":644,"o":"m 331 28 q 508 76 439 28 q 576 224 576 125 q 567 289 576 260 q 533 342 557 318 q 469 388 508 367 q 372 433 431 410 l 321 454 q 153 560 211 499 q 96 718 96 622 q 119 822 96 778 q 181 897 142 867 q 271 941 219 926 q 379 956 322 956 q 506 937 454 956 q 604 886 557 918 l 599 714 l 547 714 l 526 869 q 457 900 492 890 q 378 910 422 910 q 224 866 285 910 q 164 732 164 822 q 209 611 164 657 q 335 533 254 565 l 389 513 q 513 453 464 483 q 592 391 563 424 q 633 319 621 358 q 644 233 644 281 q 621 128 644 175 q 556 48 597 81 q 457 -2 514 15 q 332 -19 400 -19 q 182 3 251 -19 q 68 56 113 26 l 75 238 l 125 238 l 146 76 q 232 38 190 49 q 331 28 274 28 m 367 -250 q 322 -233 340 -250 q 303 -189 303 -217 q 322 -144 303 -161 q 367 -126 340 -126 q 412 -144 393 -126 q 431 -189 431 -161 q 412 -233 431 -217 q 367 -250 393 -250 z "},"ẞ":{"ha":956,"x_min":74,"x_max":910,"o":"m 74 0 l 74 39 l 215 50 q 217 242 217 146 q 217 439 217 338 l 217 607 q 301 873 217 790 q 558 956 385 956 q 692 938 631 956 q 797 889 753 919 l 797 864 q 690 774 722 824 q 657 654 657 724 q 679 558 657 597 q 740 479 701 519 l 786 433 q 838 378 815 404 q 877 326 861 353 q 901 271 893 300 q 910 206 910 242 q 894 122 910 163 q 849 51 879 82 q 774 0 818 19 q 671 -19 729 -19 q 565 -4 611 -19 q 483 42 519 11 l 490 228 l 535 228 l 553 54 q 606 31 581 38 q 668 25 632 25 q 794 74 749 25 q 840 193 840 122 q 815 286 840 249 q 743 369 789 324 l 700 411 q 617 516 644 464 q 589 632 589 568 q 631 774 589 714 q 754 874 674 833 q 666 901 711 892 q 560 910 621 910 q 437 894 488 910 q 353 842 386 878 q 306 749 321 806 q 292 608 292 692 l 292 439 q 292 215 292 324 q 296 0 293 107 l 74 0 z "},"Ť":{"ha":829,"x_min":28,"x_max":801,"o":"m 376 431 l 376 506 q 376 699 376 603 q 375 890 376 794 l 106 890 l 79 701 l 28 701 l 40 936 l 789 936 l 801 701 l 750 701 l 724 890 l 454 890 q 453 699 453 794 q 453 506 453 604 l 453 431 q 453 240 453 335 q 454 50 453 146 l 610 39 l 610 0 l 219 0 l 219 39 l 375 50 q 376 240 376 146 q 376 431 376 335 m 260 1203 l 415 1079 l 571 1203 l 593 1182 l 444 1022 l 386 1022 l 238 1182 l 260 1203 z "},"Ţ":{"ha":829,"x_min":28,"x_max":801,"o":"m 376 431 l 376 506 q 376 699 376 603 q 375 890 376 794 l 106 890 l 79 701 l 28 701 l 40 936 l 789 936 l 801 701 l 750 701 l 724 890 l 454 890 q 453 699 453 794 q 453 506 453 604 l 453 431 q 453 240 453 335 q 454 50 453 146 l 610 39 l 610 0 l 219 0 l 219 39 l 375 50 q 376 240 376 146 q 376 431 376 335 m 378 -112 l 396 1 l 433 1 l 422 -82 q 516 -117 481 -89 q 551 -192 551 -146 q 516 -270 551 -240 q 411 -300 481 -300 q 365 -297 386 -300 q 325 -286 344 -293 l 333 -257 q 369 -262 353 -260 q 404 -265 386 -265 q 470 -245 449 -265 q 492 -192 492 -225 q 466 -135 492 -156 q 378 -112 440 -115 z "},"Ț":{"ha":829,"x_min":28,"x_max":801,"o":"m 376 431 l 376 506 q 376 699 376 603 q 375 890 376 794 l 106 890 l 79 701 l 28 701 l 40 936 l 789 936 l 801 701 l 750 701 l 724 890 l 454 890 q 453 699 453 794 q 453 506 453 604 l 453 431 q 453 240 453 335 q 454 50 453 146 l 610 39 l 610 0 l 219 0 l 219 39 l 375 50 q 376 240 376 146 q 376 431 376 335 m 468 -151 q 455 -214 468 -185 q 419 -266 442 -243 q 367 -306 397 -289 q 306 -332 338 -322 l 294 -303 q 369 -260 339 -285 q 417 -199 399 -235 q 375 -171 392 -189 q 358 -133 358 -153 q 374 -97 358 -110 q 410 -85 389 -85 q 435 -89 422 -85 q 460 -104 449 -93 q 468 -151 468 -129 z "},"Ṭ":{"ha":829,"x_min":28,"x_max":801,"o":"m 376 431 l 376 506 q 376 699 376 603 q 375 890 376 794 l 106 890 l 79 701 l 28 701 l 40 936 l 789 936 l 801 701 l 750 701 l 724 890 l 454 890 q 453 699 453 794 q 453 506 453 604 l 453 431 q 453 240 453 335 q 454 50 453 146 l 610 39 l 610 0 l 219 0 l 219 39 l 375 50 q 376 240 376 146 q 376 431 376 335 m 417 -250 q 372 -233 390 -250 q 353 -189 353 -217 q 372 -144 353 -161 q 417 -126 390 -126 q 462 -144 443 -126 q 481 -189 481 -161 q 462 -233 481 -217 q 417 -250 443 -250 z "},"Ṯ":{"ha":829,"x_min":28,"x_max":801,"o":"m 376 431 l 376 506 q 376 699 376 603 q 375 890 376 794 l 106 890 l 79 701 l 28 701 l 40 936 l 789 936 l 801 701 l 750 701 l 724 890 l 454 890 q 453 699 453 794 q 453 506 453 604 l 453 431 q 453 240 453 335 q 454 50 453 146 l 610 39 l 610 0 l 219 0 l 219 39 l 375 50 q 376 240 376 146 q 376 431 376 335 m 244 -208 l 244 -153 l 589 -153 l 589 -208 l 244 -208 z "},"Ù":{"ha":1018,"x_min":64,"x_max":958,"o":"m 268 369 q 286 217 268 279 q 338 115 304 154 q 417 59 371 76 q 521 42 464 42 q 640 61 590 42 q 723 122 690 81 q 772 231 756 164 q 788 394 788 299 l 788 885 l 629 897 l 629 936 l 958 936 l 958 897 l 835 885 l 835 358 q 751 73 835 165 q 513 -19 668 -19 q 381 1 440 -19 q 281 67 322 22 q 216 181 239 111 q 193 347 193 250 l 193 501 q 193 694 193 597 q 190 886 193 790 l 64 897 l 64 936 l 418 936 l 418 897 l 271 885 q 268 694 268 789 q 268 501 268 599 l 268 369 m 575 1026 l 558 1004 q 475 1052 517 1028 q 394 1100 433 1076 q 343 1136 358 1122 q 328 1165 328 1150 q 338 1189 328 1181 q 364 1197 349 1197 q 393 1188 378 1197 q 438 1150 408 1178 q 504 1090 469 1121 q 575 1026 539 1058 z "},"Ú":{"ha":1018,"x_min":64,"x_max":958,"o":"m 268 369 q 286 217 268 279 q 338 115 304 154 q 417 59 371 76 q 521 42 464 42 q 640 61 590 42 q 723 122 690 81 q 772 231 756 164 q 788 394 788 299 l 788 885 l 629 897 l 629 936 l 958 936 l 958 897 l 835 885 l 835 358 q 751 73 835 165 q 513 -19 668 -19 q 381 1 440 -19 q 281 67 322 22 q 216 181 239 111 q 193 347 193 250 l 193 501 q 193 694 193 597 q 190 886 193 790 l 64 897 l 64 936 l 418 936 l 418 897 l 271 885 q 268 694 268 789 q 268 501 268 599 l 268 369 m 461 1026 q 532 1090 497 1058 q 599 1151 567 1122 q 643 1188 628 1178 q 672 1197 658 1197 q 698 1189 688 1197 q 708 1165 708 1181 q 694 1136 708 1150 q 643 1101 679 1122 q 561 1053 603 1078 q 478 1004 519 1028 l 461 1026 z "},"Û":{"ha":1018,"x_min":64,"x_max":958,"o":"m 268 369 q 286 217 268 279 q 338 115 304 154 q 417 59 371 76 q 521 42 464 42 q 640 61 590 42 q 723 122 690 81 q 772 231 756 164 q 788 394 788 299 l 788 885 l 629 897 l 629 936 l 958 936 l 958 897 l 835 885 l 835 358 q 751 73 835 165 q 513 -19 668 -19 q 381 1 440 -19 q 281 67 322 22 q 216 181 239 111 q 193 347 193 250 l 193 501 q 193 694 193 597 q 190 886 193 790 l 64 897 l 64 936 l 418 936 l 418 897 l 271 885 q 268 694 268 789 q 268 501 268 599 l 268 369 m 544 1171 l 725 1015 l 707 993 l 529 1104 l 351 993 l 333 1015 l 514 1171 l 544 1171 z "},"Ü":{"ha":1018,"x_min":64,"x_max":958,"o":"m 268 369 q 286 217 268 279 q 338 115 304 154 q 417 59 371 76 q 521 42 464 42 q 640 61 590 42 q 723 122 690 81 q 772 231 756 164 q 788 394 788 299 l 788 885 l 629 897 l 629 936 l 958 936 l 958 897 l 835 885 l 835 358 q 751 73 835 165 q 513 -19 668 -19 q 381 1 440 -19 q 281 67 322 22 q 216 181 239 111 q 193 347 193 250 l 193 501 q 193 694 193 597 q 190 886 193 790 l 64 897 l 64 936 l 418 936 l 418 897 l 271 885 q 268 694 268 789 q 268 501 268 599 l 268 369 m 386 1044 q 345 1060 363 1044 q 328 1101 328 1075 q 345 1142 328 1126 q 386 1158 363 1158 q 427 1142 410 1158 q 444 1101 444 1126 q 427 1060 444 1075 q 386 1044 410 1044 m 681 1044 q 640 1060 657 1044 q 622 1101 622 1075 q 640 1142 622 1126 q 681 1158 657 1158 q 722 1142 704 1158 q 739 1101 739 1126 q 722 1060 739 1075 q 681 1044 704 1044 z "},"Ū":{"ha":1018,"x_min":64,"x_max":958,"o":"m 268 369 q 286 217 268 279 q 338 115 304 154 q 417 59 371 76 q 521 42 464 42 q 640 61 590 42 q 723 122 690 81 q 772 231 756 164 q 788 394 788 299 l 788 885 l 629 897 l 629 936 l 958 936 l 958 897 l 835 885 l 835 358 q 751 73 835 165 q 513 -19 668 -19 q 381 1 440 -19 q 281 67 322 22 q 216 181 239 111 q 193 347 193 250 l 193 501 q 193 694 193 597 q 190 886 193 790 l 64 897 l 64 936 l 418 936 l 418 897 l 271 885 q 268 694 268 789 q 268 501 268 599 l 268 369 m 322 1061 l 322 1117 l 733 1117 l 733 1061 l 322 1061 z "},"Ů":{"ha":1018,"x_min":64,"x_max":958,"o":"m 268 369 q 286 217 268 279 q 338 115 304 154 q 417 59 371 76 q 521 42 464 42 q 640 61 590 42 q 723 122 690 81 q 772 231 756 164 q 788 394 788 299 l 788 885 l 629 897 l 629 936 l 958 936 l 958 897 l 835 885 l 835 358 q 751 73 835 165 q 513 -19 668 -19 q 381 1 440 -19 q 281 67 322 22 q 216 181 239 111 q 193 347 193 250 l 193 501 q 193 694 193 597 q 190 886 193 790 l 64 897 l 64 936 l 418 936 l 418 897 l 271 885 q 268 694 268 789 q 268 501 268 599 l 268 369 m 525 1003 q 480 1011 501 1003 q 441 1035 458 1019 q 413 1072 424 1050 q 403 1122 403 1094 q 413 1173 403 1150 q 441 1212 424 1196 q 480 1236 458 1228 q 525 1244 501 1244 q 569 1236 547 1244 q 609 1212 592 1228 q 637 1174 626 1196 q 647 1122 647 1151 q 637 1073 647 1094 q 609 1035 626 1051 q 569 1011 592 1019 q 525 1003 547 1003 m 525 1039 q 582 1065 561 1039 q 603 1122 603 1090 q 582 1181 603 1156 q 525 1207 561 1207 q 468 1181 489 1207 q 447 1122 447 1156 q 468 1065 447 1090 q 525 1039 489 1039 z "},"Ű":{"ha":1018,"x_min":64,"x_max":958,"o":"m 268 369 q 286 217 268 279 q 338 115 304 154 q 417 59 371 76 q 521 42 464 42 q 640 61 590 42 q 723 122 690 81 q 772 231 756 164 q 788 394 788 299 l 788 885 l 629 897 l 629 936 l 958 936 l 958 897 l 835 885 l 835 358 q 751 73 835 165 q 513 -19 668 -19 q 381 1 440 -19 q 281 67 322 22 q 216 181 239 111 q 193 347 193 250 l 193 501 q 193 694 193 597 q 190 886 193 790 l 64 897 l 64 936 l 418 936 l 418 897 l 271 885 q 268 694 268 789 q 268 501 268 599 l 268 369 m 401 1017 l 500 1176 q 525 1207 511 1199 q 550 1215 539 1215 q 573 1206 564 1215 q 582 1183 582 1197 q 577 1163 582 1172 q 558 1138 572 1153 l 425 1000 l 401 1017 m 596 1017 l 693 1176 q 719 1207 706 1199 q 743 1215 732 1215 q 767 1206 757 1215 q 776 1183 776 1197 q 771 1163 776 1172 q 753 1138 765 1153 l 619 1000 l 596 1017 z "},"Ų":{"ha":1018,"x_min":64,"x_max":958,"o":"m 64 897 l 64 936 l 418 936 l 418 897 l 271 885 q 268 694 268 789 q 268 501 268 599 l 268 368 q 286 215 268 278 q 337 114 304 153 q 415 58 369 75 q 518 42 461 42 q 640 60 589 42 q 723 122 690 79 q 772 231 756 164 q 788 393 788 297 l 788 885 l 629 897 l 629 936 l 958 936 l 958 897 l 835 885 l 835 357 q 798 149 835 228 q 693 26 761 69 q 603 -62 632 -14 q 575 -151 575 -110 q 603 -228 575 -201 q 676 -254 632 -254 q 717 -248 697 -254 q 761 -224 738 -242 l 776 -244 q 723 -289 756 -274 q 650 -304 690 -304 q 555 -272 592 -304 q 518 -181 518 -239 q 544 -87 518 -132 q 611 -8 569 -43 q 517 -19 564 -19 q 383 1 443 -19 q 281 66 324 22 q 216 179 239 110 q 193 346 193 249 l 193 501 q 193 694 193 599 q 190 886 193 790 l 64 897 z "},"Ŭ":{"ha":1018,"x_min":64,"x_max":958,"o":"m 268 369 q 286 217 268 279 q 338 115 304 154 q 417 59 371 76 q 521 42 464 42 q 640 61 590 42 q 723 122 690 81 q 772 231 756 164 q 788 394 788 299 l 788 885 l 629 897 l 629 936 l 958 936 l 958 897 l 835 885 l 835 358 q 751 73 835 165 q 513 -19 668 -19 q 381 1 440 -19 q 281 67 322 22 q 216 181 239 111 q 193 347 193 250 l 193 501 q 193 694 193 597 q 190 886 193 790 l 64 897 l 64 936 l 418 936 l 418 897 l 271 885 q 268 694 268 789 q 268 501 268 599 l 268 369 m 329 1189 l 358 1199 q 417 1110 376 1144 q 521 1076 457 1076 q 625 1110 586 1076 q 683 1199 664 1144 l 713 1189 q 692 1129 707 1160 q 654 1075 678 1099 q 597 1036 631 1051 q 521 1021 564 1021 q 444 1036 476 1021 q 388 1075 411 1051 q 349 1129 364 1099 q 329 1189 335 1160 z "},"Ǔ":{"ha":1018,"x_min":64,"x_max":958,"o":"m 268 369 q 286 217 268 279 q 338 115 304 154 q 417 59 371 76 q 521 42 464 42 q 640 61 590 42 q 723 122 690 81 q 772 231 756 164 q 788 394 788 299 l 788 885 l 629 897 l 629 936 l 958 936 l 958 897 l 835 885 l 835 358 q 751 73 835 165 q 513 -19 668 -19 q 381 1 440 -19 q 281 67 322 22 q 216 181 239 111 q 193 347 193 250 l 193 501 q 193 694 193 597 q 190 886 193 790 l 64 897 l 64 936 l 418 936 l 418 897 l 271 885 q 268 694 268 789 q 268 501 268 599 l 268 369 m 371 1203 l 526 1079 l 682 1203 l 704 1182 l 556 1022 l 497 1022 l 349 1182 l 371 1203 z "},"Ǘ":{"ha":1018,"x_min":64,"x_max":958,"o":"m 268 369 q 286 217 268 279 q 338 115 304 154 q 417 59 371 76 q 521 42 464 42 q 640 61 590 42 q 723 122 690 81 q 772 231 756 164 q 788 394 788 299 l 788 885 l 629 897 l 629 936 l 958 936 l 958 897 l 835 885 l 835 358 q 751 73 835 165 q 513 -19 668 -19 q 381 1 440 -19 q 281 67 322 22 q 216 181 239 111 q 193 347 193 250 l 193 501 q 193 694 193 597 q 190 886 193 790 l 64 897 l 64 936 l 418 936 l 418 897 l 271 885 q 268 694 268 789 q 268 501 268 599 l 268 369 m 328 1101 q 345 1142 328 1126 q 386 1158 363 1158 q 427 1142 410 1158 q 444 1101 444 1126 q 427 1060 444 1075 q 386 1044 410 1044 q 345 1060 363 1044 q 328 1101 328 1075 m 515 1150 l 494 1172 l 600 1290 q 633 1322 619 1314 q 660 1331 646 1331 q 685 1322 675 1331 q 694 1297 694 1313 q 683 1269 694 1282 q 642 1236 671 1256 l 515 1150 m 622 1101 q 640 1142 622 1126 q 681 1158 657 1158 q 722 1142 704 1158 q 739 1101 739 1126 q 722 1060 739 1075 q 681 1044 704 1044 q 640 1060 657 1044 q 622 1101 622 1075 z "},"Ǚ":{"ha":1018,"x_min":64,"x_max":958,"o":"m 268 369 q 286 217 268 279 q 338 115 304 154 q 417 59 371 76 q 521 42 464 42 q 640 61 590 42 q 723 122 690 81 q 772 231 756 164 q 788 394 788 299 l 788 885 l 629 897 l 629 936 l 958 936 l 958 897 l 835 885 l 835 358 q 751 73 835 165 q 513 -19 668 -19 q 381 1 440 -19 q 281 67 322 22 q 216 181 239 111 q 193 347 193 250 l 193 501 q 193 694 193 597 q 190 886 193 790 l 64 897 l 64 936 l 418 936 l 418 897 l 271 885 q 268 694 268 789 q 268 501 268 599 l 268 369 m 386 1044 q 345 1060 363 1044 q 328 1101 328 1075 q 345 1142 328 1126 q 386 1158 363 1158 q 427 1142 410 1158 q 444 1101 444 1126 q 427 1060 444 1075 q 386 1044 410 1044 m 681 1044 q 640 1060 657 1044 q 622 1101 622 1075 q 640 1142 622 1126 q 681 1158 657 1158 q 722 1142 704 1158 q 739 1101 739 1126 q 722 1060 739 1075 q 681 1044 704 1044 m 378 1356 l 533 1232 l 689 1356 l 711 1335 l 563 1175 l 504 1175 l 356 1335 l 378 1356 z "},"Ǜ":{"ha":1018,"x_min":64,"x_max":958,"o":"m 268 369 q 286 217 268 279 q 338 115 304 154 q 417 59 371 76 q 521 42 464 42 q 640 61 590 42 q 723 122 690 81 q 772 231 756 164 q 788 394 788 299 l 788 885 l 629 897 l 629 936 l 958 936 l 958 897 l 835 885 l 835 358 q 751 73 835 165 q 513 -19 668 -19 q 381 1 440 -19 q 281 67 322 22 q 216 181 239 111 q 193 347 193 250 l 193 501 q 193 694 193 597 q 190 886 193 790 l 64 897 l 64 936 l 418 936 l 418 897 l 271 885 q 268 694 268 789 q 268 501 268 599 l 268 369 m 328 1101 q 345 1142 328 1126 q 386 1158 363 1158 q 427 1142 410 1158 q 444 1101 444 1126 q 427 1060 444 1075 q 386 1044 410 1044 q 345 1060 363 1044 q 328 1101 328 1075 m 426 1236 q 385 1268 399 1256 q 372 1296 372 1281 q 383 1321 372 1311 q 410 1331 394 1331 q 435 1322 422 1331 q 468 1290 449 1314 l 575 1172 l 554 1150 l 426 1236 m 622 1101 q 640 1142 622 1126 q 681 1158 657 1158 q 722 1142 704 1158 q 739 1101 739 1126 q 722 1060 739 1075 q 681 1044 704 1044 q 640 1060 657 1044 q 622 1101 622 1075 z "},"Ǖ":{"ha":1018,"x_min":64,"x_max":958,"o":"m 268 369 q 286 217 268 279 q 338 115 304 154 q 417 59 371 76 q 521 42 464 42 q 640 61 590 42 q 723 122 690 81 q 772 231 756 164 q 788 394 788 299 l 788 885 l 629 897 l 629 936 l 958 936 l 958 897 l 835 885 l 835 358 q 751 73 835 165 q 513 -19 668 -19 q 381 1 440 -19 q 281 67 322 22 q 216 181 239 111 q 193 347 193 250 l 193 501 q 193 694 193 597 q 190 886 193 790 l 64 897 l 64 936 l 418 936 l 418 897 l 271 885 q 268 694 268 789 q 268 501 268 599 l 268 369 m 386 1044 q 345 1060 363 1044 q 328 1101 328 1075 q 345 1142 328 1126 q 386 1158 363 1158 q 427 1142 410 1158 q 444 1101 444 1126 q 427 1060 444 1075 q 386 1044 410 1044 m 681 1044 q 640 1060 657 1044 q 622 1101 622 1075 q 640 1142 622 1126 q 681 1158 657 1158 q 722 1142 704 1158 q 739 1101 739 1126 q 722 1060 739 1075 q 681 1044 704 1044 m 328 1258 l 328 1314 l 739 1314 l 739 1258 l 328 1258 z "},"Ụ":{"ha":1018,"x_min":64,"x_max":958,"o":"m 268 369 q 286 217 268 279 q 338 115 304 154 q 417 59 371 76 q 521 42 464 42 q 640 61 590 42 q 723 122 690 81 q 772 231 756 164 q 788 394 788 299 l 788 885 l 629 897 l 629 936 l 958 936 l 958 897 l 835 885 l 835 358 q 751 73 835 165 q 513 -19 668 -19 q 381 1 440 -19 q 281 67 322 22 q 216 181 239 111 q 193 347 193 250 l 193 501 q 193 694 193 597 q 190 886 193 790 l 64 897 l 64 936 l 418 936 l 418 897 l 271 885 q 268 694 268 789 q 268 501 268 599 l 268 369 m 522 -250 q 477 -233 496 -250 q 458 -189 458 -217 q 477 -144 458 -161 q 522 -126 496 -126 q 567 -144 549 -126 q 586 -189 586 -161 q 567 -233 586 -217 q 522 -250 549 -250 z "},"Ủ":{"ha":1018,"x_min":64,"x_max":958,"o":"m 268 369 q 286 217 268 279 q 338 115 304 154 q 417 59 371 76 q 521 42 464 42 q 640 61 590 42 q 723 122 690 81 q 772 231 756 164 q 788 394 788 299 l 788 885 l 629 897 l 629 936 l 958 936 l 958 897 l 835 885 l 835 358 q 751 73 835 165 q 513 -19 668 -19 q 381 1 440 -19 q 281 67 322 22 q 216 181 239 111 q 193 347 193 250 l 193 501 q 193 694 193 597 q 190 886 193 790 l 64 897 l 64 936 l 418 936 l 418 897 l 271 885 q 268 694 268 789 q 268 501 268 599 l 268 369 m 496 1000 l 488 1029 q 553 1053 532 1040 q 574 1090 574 1067 q 549 1128 574 1114 q 457 1151 525 1142 l 467 1210 q 586 1172 550 1199 q 622 1100 622 1144 q 589 1034 622 1061 q 496 1000 556 1007 z "},"Ư":{"ha":1018,"x_min":64,"x_max":1017,"o":"m 268 369 q 286 217 268 279 q 338 115 304 154 q 417 59 371 76 q 521 42 464 42 q 640 61 590 42 q 723 122 690 81 q 772 231 756 164 q 788 394 788 299 l 788 885 l 629 897 l 629 936 l 835 936 l 835 853 q 930 899 903 864 q 957 979 957 935 q 953 1011 957 997 q 943 1036 949 1025 q 933 1057 938 1047 q 929 1078 929 1067 q 940 1103 929 1092 q 967 1114 950 1114 q 981 1113 974 1114 q 996 1106 989 1111 q 1010 1070 1004 1090 q 1017 1022 1017 1050 q 1006 953 1017 986 q 972 894 994 921 q 916 848 950 867 q 835 822 882 829 l 835 358 q 751 73 835 165 q 513 -19 668 -19 q 381 1 440 -19 q 281 67 322 22 q 216 181 239 111 q 193 347 193 250 l 193 501 q 193 694 193 597 q 190 886 193 790 l 64 897 l 64 936 l 418 936 l 418 897 l 271 885 q 268 694 268 789 q 268 501 268 599 l 268 369 z "},"Ứ":{"ha":1018,"x_min":64,"x_max":1017,"o":"m 268 369 q 286 217 268 279 q 338 115 304 154 q 417 59 371 76 q 521 42 464 42 q 640 61 590 42 q 723 122 690 81 q 772 231 756 164 q 788 394 788 299 l 788 885 l 629 897 l 629 936 l 835 936 l 835 853 q 930 899 903 864 q 957 979 957 935 q 953 1011 957 997 q 943 1036 949 1025 q 933 1057 938 1047 q 929 1078 929 1067 q 940 1103 929 1092 q 967 1114 950 1114 q 981 1113 974 1114 q 996 1106 989 1111 q 1010 1070 1004 1090 q 1017 1022 1017 1050 q 1006 953 1017 986 q 972 894 994 921 q 916 848 950 867 q 835 822 882 829 l 835 358 q 751 73 835 165 q 513 -19 668 -19 q 381 1 440 -19 q 281 67 322 22 q 216 181 239 111 q 193 347 193 250 l 193 501 q 193 694 193 597 q 190 886 193 790 l 64 897 l 64 936 l 418 936 l 418 897 l 271 885 q 268 694 268 789 q 268 501 268 599 l 268 369 m 465 1032 q 536 1096 501 1064 q 603 1157 571 1128 q 647 1193 632 1183 q 676 1203 663 1203 q 702 1194 692 1203 q 713 1171 713 1186 q 698 1142 713 1156 q 647 1107 683 1128 q 565 1058 607 1083 q 482 1010 524 1033 l 465 1032 z "},"Ự":{"ha":1018,"x_min":64,"x_max":1017,"o":"m 268 369 q 286 217 268 279 q 338 115 304 154 q 417 59 371 76 q 521 42 464 42 q 640 61 590 42 q 723 122 690 81 q 772 231 756 164 q 788 394 788 299 l 788 885 l 629 897 l 629 936 l 835 936 l 835 853 q 930 899 903 864 q 957 979 957 935 q 953 1011 957 997 q 943 1036 949 1025 q 933 1057 938 1047 q 929 1078 929 1067 q 940 1103 929 1092 q 967 1114 950 1114 q 981 1113 974 1114 q 996 1106 989 1111 q 1010 1070 1004 1090 q 1017 1022 1017 1050 q 1006 953 1017 986 q 972 894 994 921 q 916 848 950 867 q 835 822 882 829 l 835 358 q 751 73 835 165 q 513 -19 668 -19 q 381 1 440 -19 q 281 67 322 22 q 216 181 239 111 q 193 347 193 250 l 193 501 q 193 694 193 597 q 190 886 193 790 l 64 897 l 64 936 l 418 936 l 418 897 l 271 885 q 268 694 268 789 q 268 501 268 599 l 268 369 m 519 -250 q 474 -233 493 -250 q 456 -189 456 -217 q 474 -144 456 -161 q 519 -126 493 -126 q 565 -144 546 -126 q 583 -189 583 -161 q 565 -233 583 -217 q 519 -250 546 -250 z "},"Ừ":{"ha":1018,"x_min":64,"x_max":1017,"o":"m 268 369 q 286 217 268 279 q 338 115 304 154 q 417 59 371 76 q 521 42 464 42 q 640 61 590 42 q 723 122 690 81 q 772 231 756 164 q 788 394 788 299 l 788 885 l 629 897 l 629 936 l 835 936 l 835 853 q 930 899 903 864 q 957 979 957 935 q 953 1011 957 997 q 943 1036 949 1025 q 933 1057 938 1047 q 929 1078 929 1067 q 940 1103 929 1092 q 967 1114 950 1114 q 981 1113 974 1114 q 996 1106 989 1111 q 1010 1070 1004 1090 q 1017 1022 1017 1050 q 1006 953 1017 986 q 972 894 994 921 q 916 848 950 867 q 835 822 882 829 l 835 358 q 751 73 835 165 q 513 -19 668 -19 q 381 1 440 -19 q 281 67 322 22 q 216 181 239 111 q 193 347 193 250 l 193 501 q 193 694 193 597 q 190 886 193 790 l 64 897 l 64 936 l 418 936 l 418 897 l 271 885 q 268 694 268 789 q 268 501 268 599 l 268 369 m 574 1032 l 557 1010 q 474 1058 515 1033 q 393 1106 432 1082 q 342 1142 357 1128 q 326 1171 326 1156 q 337 1194 326 1186 q 363 1203 347 1203 q 392 1193 376 1203 q 436 1156 407 1183 q 503 1095 468 1126 q 574 1032 538 1064 z "},"Ử":{"ha":1018,"x_min":64,"x_max":1017,"o":"m 268 369 q 286 217 268 279 q 338 115 304 154 q 417 59 371 76 q 521 42 464 42 q 640 61 590 42 q 723 122 690 81 q 772 231 756 164 q 788 394 788 299 l 788 885 l 629 897 l 629 936 l 835 936 l 835 853 q 930 899 903 864 q 957 979 957 935 q 953 1011 957 997 q 943 1036 949 1025 q 933 1057 938 1047 q 929 1078 929 1067 q 940 1103 929 1092 q 967 1114 950 1114 q 981 1113 974 1114 q 996 1106 989 1111 q 1010 1070 1004 1090 q 1017 1022 1017 1050 q 1006 953 1017 986 q 972 894 994 921 q 916 848 950 867 q 835 822 882 829 l 835 358 q 751 73 835 165 q 513 -19 668 -19 q 381 1 440 -19 q 281 67 322 22 q 216 181 239 111 q 193 347 193 250 l 193 501 q 193 694 193 597 q 190 886 193 790 l 64 897 l 64 936 l 418 936 l 418 897 l 271 885 q 268 694 268 789 q 268 501 268 599 l 268 369 m 486 1000 l 478 1029 q 543 1053 522 1040 q 564 1090 564 1067 q 540 1128 564 1114 q 447 1151 515 1142 l 457 1210 q 576 1172 540 1199 q 613 1100 613 1144 q 579 1034 613 1061 q 486 1000 546 1007 z "},"Ữ":{"ha":1018,"x_min":64,"x_max":1017,"o":"m 268 369 q 286 217 268 279 q 338 115 304 154 q 417 59 371 76 q 521 42 464 42 q 640 61 590 42 q 723 122 690 81 q 772 231 756 164 q 788 394 788 299 l 788 885 l 629 897 l 629 936 l 835 936 l 835 853 q 930 899 903 864 q 957 979 957 935 q 953 1011 957 997 q 943 1036 949 1025 q 933 1057 938 1047 q 929 1078 929 1067 q 940 1103 929 1092 q 967 1114 950 1114 q 981 1113 974 1114 q 996 1106 989 1111 q 1010 1070 1004 1090 q 1017 1022 1017 1050 q 1006 953 1017 986 q 972 894 994 921 q 916 848 950 867 q 835 822 882 829 l 835 358 q 751 73 835 165 q 513 -19 668 -19 q 381 1 440 -19 q 281 67 322 22 q 216 181 239 111 q 193 347 193 250 l 193 501 q 193 694 193 597 q 190 886 193 790 l 64 897 l 64 936 l 418 936 l 418 897 l 271 885 q 268 694 268 789 q 268 501 268 599 l 268 369 m 278 1036 q 322 1143 289 1103 q 413 1183 356 1183 q 478 1167 451 1183 q 526 1129 504 1150 q 571 1088 550 1106 q 624 1071 592 1071 q 684 1098 661 1071 q 722 1176 707 1125 l 753 1167 q 709 1060 742 1100 q 618 1019 676 1019 q 551 1036 578 1019 q 504 1074 525 1053 q 460 1115 481 1097 q 407 1133 439 1133 q 347 1106 371 1133 q 308 1026 324 1078 l 278 1036 z "},"Ũ":{"ha":1018,"x_min":64,"x_max":958,"o":"m 268 369 q 286 217 268 279 q 338 115 304 154 q 417 59 371 76 q 521 42 464 42 q 640 61 590 42 q 723 122 690 81 q 772 231 756 164 q 788 394 788 299 l 788 885 l 629 897 l 629 936 l 958 936 l 958 897 l 835 885 l 835 358 q 751 73 835 165 q 513 -19 668 -19 q 381 1 440 -19 q 281 67 322 22 q 216 181 239 111 q 193 347 193 250 l 193 501 q 193 694 193 597 q 190 886 193 790 l 64 897 l 64 936 l 418 936 l 418 897 l 271 885 q 268 694 268 789 q 268 501 268 599 l 268 369 m 278 1036 q 322 1143 289 1103 q 413 1183 356 1183 q 478 1167 451 1183 q 526 1129 504 1150 q 571 1088 550 1106 q 624 1071 592 1071 q 684 1098 661 1071 q 722 1176 707 1125 l 753 1167 q 709 1060 742 1100 q 618 1019 676 1019 q 551 1036 578 1019 q 504 1074 525 1053 q 460 1115 481 1097 q 407 1133 439 1133 q 347 1106 371 1133 q 308 1026 324 1078 l 278 1036 z "},"Ẃ":{"ha":1339,"x_min":18,"x_max":1325,"o":"m 919 -10 l 671 793 l 431 -10 l 392 -10 l 143 886 l 18 897 l 18 936 l 358 936 l 358 897 l 221 885 l 425 128 l 657 885 l 519 897 l 519 936 l 860 936 l 860 897 l 717 885 l 946 125 l 1143 885 l 1008 897 l 1008 936 l 1325 936 l 1325 897 l 1193 885 l 958 -10 l 919 -10 m 618 1032 q 689 1096 654 1064 q 756 1157 724 1128 q 800 1193 785 1183 q 829 1203 815 1203 q 855 1194 844 1203 q 865 1171 865 1186 q 851 1142 865 1156 q 800 1107 836 1128 q 718 1058 760 1083 q 635 1010 676 1033 l 618 1032 z "},"Ŵ":{"ha":1339,"x_min":18,"x_max":1325,"o":"m 919 -10 l 671 793 l 431 -10 l 392 -10 l 143 886 l 18 897 l 18 936 l 358 936 l 358 897 l 221 885 l 425 128 l 657 885 l 519 897 l 519 936 l 860 936 l 860 897 l 717 885 l 946 125 l 1143 885 l 1008 897 l 1008 936 l 1325 936 l 1325 897 l 1193 885 l 958 -10 l 919 -10 m 697 1176 l 878 1021 l 860 999 l 682 1110 l 504 999 l 486 1021 l 667 1176 l 697 1176 z "},"Ẅ":{"ha":1339,"x_min":18,"x_max":1325,"o":"m 919 -10 l 671 793 l 431 -10 l 392 -10 l 143 886 l 18 897 l 18 936 l 358 936 l 358 897 l 221 885 l 425 128 l 657 885 l 519 897 l 519 936 l 860 936 l 860 897 l 717 885 l 946 125 l 1143 885 l 1008 897 l 1008 936 l 1325 936 l 1325 897 l 1193 885 l 958 -10 l 919 -10 m 539 1044 q 498 1060 515 1044 q 481 1101 481 1075 q 498 1142 481 1126 q 539 1158 515 1158 q 580 1142 563 1158 q 597 1101 597 1126 q 580 1060 597 1075 q 539 1044 563 1044 m 833 1044 q 792 1060 810 1044 q 775 1101 775 1075 q 792 1142 775 1126 q 833 1158 810 1158 q 874 1142 857 1158 q 892 1101 892 1126 q 874 1060 892 1075 q 833 1044 857 1044 z "},"Ẁ":{"ha":1339,"x_min":18,"x_max":1325,"o":"m 919 -10 l 671 793 l 431 -10 l 392 -10 l 143 886 l 18 897 l 18 936 l 358 936 l 358 897 l 221 885 l 425 128 l 657 885 l 519 897 l 519 936 l 860 936 l 860 897 l 717 885 l 946 125 l 1143 885 l 1008 897 l 1008 936 l 1325 936 l 1325 897 l 1193 885 l 958 -10 l 919 -10 m 749 1032 l 732 1010 q 649 1058 690 1033 q 568 1106 607 1082 q 517 1142 532 1128 q 501 1171 501 1156 q 512 1194 501 1186 q 538 1203 522 1203 q 567 1193 551 1203 q 611 1156 582 1183 q 678 1095 643 1126 q 749 1032 713 1064 z "},"Ý":{"ha":881,"x_min":33,"x_max":854,"o":"m 638 0 l 246 0 l 246 39 l 401 50 q 403 123 403 88 q 404 195 404 158 q 404 274 404 232 q 404 369 404 317 l 147 886 l 33 897 l 33 936 l 376 936 l 376 897 l 232 886 l 457 421 l 683 885 l 540 897 l 540 936 l 854 936 l 854 897 l 733 885 l 479 372 q 479 269 479 314 q 479 188 479 225 q 480 118 479 151 q 482 50 481 85 l 638 39 l 638 0 m 417 1026 q 488 1090 453 1058 q 554 1151 522 1122 q 599 1188 583 1178 q 628 1197 614 1197 q 653 1189 643 1197 q 664 1165 664 1181 q 649 1136 664 1150 q 599 1101 635 1122 q 517 1053 558 1078 q 433 1004 475 1028 l 417 1026 z "},"Ÿ":{"ha":881,"x_min":33,"x_max":854,"o":"m 638 0 l 246 0 l 246 39 l 401 50 q 403 123 403 88 q 404 195 404 158 q 404 274 404 232 q 404 369 404 317 l 147 886 l 33 897 l 33 936 l 376 936 l 376 897 l 232 886 l 457 421 l 683 885 l 540 897 l 540 936 l 854 936 l 854 897 l 733 885 l 479 372 q 479 269 479 314 q 479 188 479 225 q 480 118 479 151 q 482 50 481 85 l 638 39 l 638 0 m 321 1044 q 280 1060 297 1044 q 263 1101 263 1075 q 280 1142 263 1126 q 321 1158 297 1158 q 362 1142 344 1158 q 379 1101 379 1126 q 362 1060 379 1075 q 321 1044 344 1044 m 615 1044 q 574 1060 592 1044 q 557 1101 557 1075 q 574 1142 557 1126 q 615 1158 592 1158 q 656 1142 639 1158 q 674 1101 674 1126 q 656 1060 674 1075 q 615 1044 639 1044 z "},"Ŷ":{"ha":881,"x_min":33,"x_max":854,"o":"m 638 0 l 246 0 l 246 39 l 401 50 q 403 123 403 88 q 404 195 404 158 q 404 274 404 232 q 404 369 404 317 l 147 886 l 33 897 l 33 936 l 376 936 l 376 897 l 232 886 l 457 421 l 683 885 l 540 897 l 540 936 l 854 936 l 854 897 l 733 885 l 479 372 q 479 269 479 314 q 479 188 479 225 q 480 118 479 151 q 482 50 481 85 l 638 39 l 638 0 m 468 1176 l 649 1021 l 631 999 l 453 1110 l 275 999 l 257 1021 l 438 1176 l 468 1176 z "},"Ẏ":{"ha":881,"x_min":33,"x_max":854,"o":"m 638 0 l 246 0 l 246 39 l 401 50 q 403 123 403 88 q 404 195 404 158 q 404 274 404 232 q 404 369 404 317 l 147 886 l 33 897 l 33 936 l 376 936 l 376 897 l 232 886 l 457 421 l 683 885 l 540 897 l 540 936 l 854 936 l 854 897 l 733 885 l 479 372 q 479 269 479 314 q 479 188 479 225 q 480 118 479 151 q 482 50 481 85 l 638 39 l 638 0 m 458 1042 q 413 1059 432 1042 q 394 1104 394 1076 q 413 1149 394 1132 q 458 1167 432 1167 q 503 1149 485 1167 q 522 1104 522 1132 q 503 1059 522 1076 q 458 1042 485 1042 z "},"Ỵ":{"ha":881,"x_min":33,"x_max":854,"o":"m 638 0 l 246 0 l 246 39 l 401 50 q 403 123 403 88 q 404 195 404 158 q 404 274 404 232 q 404 369 404 317 l 147 886 l 33 897 l 33 936 l 376 936 l 376 897 l 232 886 l 457 421 l 683 885 l 540 897 l 540 936 l 854 936 l 854 897 l 733 885 l 479 372 q 479 269 479 314 q 479 188 479 225 q 480 118 479 151 q 482 50 481 85 l 638 39 l 638 0 m 443 -250 q 398 -233 417 -250 q 379 -189 379 -217 q 398 -144 379 -161 q 443 -126 417 -126 q 488 -144 469 -126 q 507 -189 507 -161 q 488 -233 507 -217 q 443 -250 469 -250 z "},"Ỳ":{"ha":881,"x_min":33,"x_max":854,"o":"m 638 0 l 246 0 l 246 39 l 401 50 q 403 123 403 88 q 404 195 404 158 q 404 274 404 232 q 404 369 404 317 l 147 886 l 33 897 l 33 936 l 376 936 l 376 897 l 232 886 l 457 421 l 683 885 l 540 897 l 540 936 l 854 936 l 854 897 l 733 885 l 479 372 q 479 269 479 314 q 479 188 479 225 q 480 118 479 151 q 482 50 481 85 l 638 39 l 638 0 m 514 1032 l 497 1010 q 414 1058 456 1033 q 333 1106 372 1082 q 282 1142 297 1128 q 267 1171 267 1156 q 277 1194 267 1186 q 303 1203 288 1203 q 332 1193 317 1203 q 376 1156 347 1183 q 443 1095 408 1126 q 514 1032 478 1064 z "},"Ỷ":{"ha":881,"x_min":33,"x_max":854,"o":"m 638 0 l 246 0 l 246 39 l 401 50 q 403 123 403 88 q 404 195 404 158 q 404 274 404 232 q 404 369 404 317 l 147 886 l 33 897 l 33 936 l 376 936 l 376 897 l 232 886 l 457 421 l 683 885 l 540 897 l 540 936 l 854 936 l 854 897 l 733 885 l 479 372 q 479 269 479 314 q 479 188 479 225 q 480 118 479 151 q 482 50 481 85 l 638 39 l 638 0 m 429 1000 l 421 1029 q 486 1053 465 1040 q 507 1090 507 1067 q 483 1128 507 1114 q 390 1151 458 1142 l 400 1210 q 519 1172 483 1199 q 556 1100 556 1144 q 522 1034 556 1061 q 429 1000 489 1007 z "},"Ỹ":{"ha":881,"x_min":33,"x_max":854,"o":"m 638 0 l 246 0 l 246 39 l 401 50 q 403 123 403 88 q 404 195 404 158 q 404 274 404 232 q 404 369 404 317 l 147 886 l 33 897 l 33 936 l 376 936 l 376 897 l 232 886 l 457 421 l 683 885 l 540 897 l 540 936 l 854 936 l 854 897 l 733 885 l 479 372 q 479 269 479 314 q 479 188 479 225 q 480 118 479 151 q 482 50 481 85 l 638 39 l 638 0 m 219 1036 q 264 1143 231 1103 q 354 1183 297 1183 q 419 1167 393 1183 q 468 1129 446 1150 q 513 1088 492 1106 q 565 1071 533 1071 q 626 1098 603 1071 q 664 1176 649 1125 l 694 1167 q 651 1060 683 1100 q 560 1019 618 1019 q 493 1036 519 1019 q 446 1074 467 1053 q 401 1115 422 1097 q 349 1133 381 1133 q 289 1106 313 1133 q 250 1026 265 1078 l 219 1036 z "},"Ź":{"ha":768,"x_min":36,"x_max":732,"o":"m 681 235 l 732 235 l 719 0 l 36 0 l 36 36 l 617 890 l 138 890 l 106 701 l 54 701 l 65 936 l 704 936 l 704 900 l 126 46 l 647 46 l 681 235 m 328 1032 q 399 1096 364 1064 q 465 1157 433 1128 q 510 1193 494 1183 q 539 1203 525 1203 q 565 1194 554 1203 q 575 1171 575 1186 q 560 1142 575 1156 q 510 1107 546 1128 q 428 1058 469 1083 q 344 1010 386 1033 l 328 1032 z "},"Ž":{"ha":768,"x_min":36,"x_max":732,"o":"m 681 235 l 732 235 l 719 0 l 36 0 l 36 36 l 617 890 l 138 890 l 106 701 l 54 701 l 65 936 l 704 936 l 704 900 l 126 46 l 647 46 l 681 235 m 233 1203 l 389 1079 l 544 1203 l 567 1182 l 418 1022 l 360 1022 l 211 1182 l 233 1203 z "},"Ż":{"ha":768,"x_min":36,"x_max":732,"o":"m 681 235 l 732 235 l 719 0 l 36 0 l 36 36 l 617 890 l 138 890 l 106 701 l 54 701 l 65 936 l 704 936 l 704 900 l 126 46 l 647 46 l 681 235 m 393 1042 q 348 1059 367 1042 q 329 1104 329 1076 q 348 1149 329 1132 q 393 1167 367 1167 q 438 1149 419 1167 q 457 1104 457 1132 q 438 1059 457 1076 q 393 1042 419 1042 z "},"Ẓ":{"ha":768,"x_min":36,"x_max":732,"o":"m 681 235 l 732 235 l 719 0 l 36 0 l 36 36 l 617 890 l 138 890 l 106 701 l 54 701 l 65 936 l 704 936 l 704 900 l 126 46 l 647 46 l 681 235 m 400 -250 q 355 -233 374 -250 q 336 -189 336 -217 q 355 -144 336 -161 q 400 -126 374 -126 q 445 -144 426 -126 q 464 -189 464 -161 q 445 -233 464 -217 q 400 -250 426 -250 z "},"Ð":{"ha":985,"x_min":74,"x_max":906,"o":"m 538 457 l 292 457 q 292 235 292 335 q 294 44 292 136 l 419 44 q 719 158 619 44 q 819 467 819 271 q 722 783 819 675 q 436 892 624 892 l 294 892 q 292 699 292 796 q 292 501 292 601 l 538 501 l 538 457 m 74 0 l 74 39 l 215 50 q 217 245 217 146 q 217 457 217 344 l 74 457 l 74 501 l 217 501 q 217 703 217 610 q 215 886 217 796 l 74 897 l 74 936 l 451 936 q 641 906 557 936 q 784 815 725 875 q 874 668 843 756 q 906 467 906 581 q 873 272 906 358 q 779 124 840 185 q 631 32 718 64 q 433 0 543 0 l 74 0 z "},"Þ":{"ha":833,"x_min":74,"x_max":779,"o":"m 217 431 l 217 506 q 217 696 217 601 q 215 886 217 790 l 74 897 l 74 936 l 443 936 l 443 897 l 294 886 q 294 818 294 851 q 293 750 293 785 l 435 750 q 590 731 525 750 q 697 676 656 711 q 759 594 739 642 q 779 488 779 546 q 761 390 779 436 q 701 309 743 344 q 590 253 660 274 q 419 232 521 232 l 293 232 q 294 141 293 186 q 294 50 294 96 l 443 39 l 443 0 l 74 0 l 74 39 l 215 50 q 217 240 217 146 q 217 431 217 335 m 292 431 l 292 276 l 429 276 q 637 335 572 276 q 701 493 701 393 q 637 650 701 594 q 428 706 572 706 l 293 706 q 292 607 292 657 q 292 507 292 557 l 292 431 z "},"Ə":{"ha":913,"x_min":79,"x_max":833,"o":"m 79 383 q 82 450 79 419 q 89 500 85 481 l 753 500 q 719 682 749 606 q 642 807 689 758 q 537 879 596 856 q 414 903 478 903 q 268 872 333 903 q 153 783 203 840 l 128 810 q 256 917 181 878 q 428 956 332 956 q 581 926 507 956 q 710 838 654 897 q 800 687 767 778 q 833 474 833 596 q 804 267 833 358 q 724 111 775 175 q 603 14 672 47 q 456 -19 535 -19 q 295 10 365 -19 q 177 94 225 40 q 104 221 129 147 q 79 383 79 294 m 458 28 q 673 141 596 28 q 753 456 750 254 l 165 456 q 160 415 161 432 q 158 365 158 397 q 178 238 158 299 q 235 130 197 176 q 328 56 272 83 q 458 28 385 28 z "},"à":{"ha":703,"x_min":74,"x_max":683,"o":"m 275 40 q 323 47 300 40 q 369 67 346 53 q 419 102 393 81 q 476 153 444 124 l 476 372 q 385 347 432 361 q 301 319 338 333 q 179 247 213 286 q 146 163 146 207 q 181 71 146 101 q 275 40 217 40 m 585 -17 q 510 16 536 -17 q 478 110 485 49 q 367 13 417 44 q 250 -18 317 -18 q 124 24 175 -18 q 74 149 74 67 q 122 267 74 218 q 289 357 171 317 q 382 385 333 372 q 476 408 431 397 l 476 447 q 467 538 476 503 q 438 594 457 574 q 391 623 419 615 q 324 631 363 631 q 266 625 294 631 q 208 604 238 619 l 182 515 q 133 472 169 472 q 90 511 97 472 q 176 631 111 589 q 338 674 242 674 q 493 624 442 674 q 544 457 544 574 l 544 150 q 560 57 544 82 q 607 32 576 32 q 664 58 633 32 l 683 35 q 585 -17 644 -17 m 422 797 l 399 779 q 314 863 354 822 q 238 938 274 903 q 205 975 214 961 q 196 1001 196 989 q 206 1027 196 1018 q 231 1036 217 1036 q 257 1026 244 1036 q 289 988 269 1015 q 353 897 319 946 q 422 797 388 847 z "},"á":{"ha":703,"x_min":74,"x_max":683,"o":"m 275 40 q 323 47 300 40 q 369 67 346 53 q 419 102 393 81 q 476 153 444 124 l 476 372 q 385 347 432 361 q 301 319 338 333 q 179 247 213 286 q 146 163 146 207 q 181 71 146 101 q 275 40 217 40 m 585 -17 q 510 16 536 -17 q 478 110 485 49 q 367 13 417 44 q 250 -18 317 -18 q 124 24 175 -18 q 74 149 74 67 q 122 267 74 218 q 289 357 171 317 q 382 385 333 372 q 476 408 431 397 l 476 447 q 467 538 476 503 q 438 594 457 574 q 391 623 419 615 q 324 631 363 631 q 266 625 294 631 q 208 604 238 619 l 182 515 q 133 472 169 472 q 90 511 97 472 q 176 631 111 589 q 338 674 242 674 q 493 624 442 674 q 544 457 544 574 l 544 150 q 560 57 544 82 q 607 32 576 32 q 664 58 633 32 l 683 35 q 585 -17 644 -17 m 296 797 q 365 897 331 847 q 429 988 399 946 q 461 1026 449 1015 q 488 1036 474 1036 q 512 1027 501 1036 q 522 1001 522 1018 q 513 975 522 989 q 479 938 503 961 q 403 862 444 903 q 318 779 363 821 l 296 797 z "},"â":{"ha":703,"x_min":74,"x_max":683,"o":"m 275 40 q 323 47 300 40 q 369 67 346 53 q 419 102 393 81 q 476 153 444 124 l 476 372 q 385 347 432 361 q 301 319 338 333 q 179 247 213 286 q 146 163 146 207 q 181 71 146 101 q 275 40 217 40 m 585 -17 q 510 16 536 -17 q 478 110 485 49 q 367 13 417 44 q 250 -18 317 -18 q 124 24 175 -18 q 74 149 74 67 q 122 267 74 218 q 289 357 171 317 q 382 385 333 372 q 476 408 431 397 l 476 447 q 467 538 476 503 q 438 594 457 574 q 391 623 419 615 q 324 631 363 631 q 266 625 294 631 q 208 604 238 619 l 182 515 q 133 472 169 472 q 90 511 97 472 q 176 631 111 589 q 338 674 242 674 q 493 624 442 674 q 544 457 544 574 l 544 150 q 560 57 544 82 q 607 32 576 32 q 664 58 633 32 l 683 35 q 585 -17 644 -17 m 503 764 l 342 931 l 181 764 l 160 783 l 326 1013 l 357 1013 l 524 783 l 503 764 z "},"ã":{"ha":703,"x_min":74,"x_max":683,"o":"m 275 40 q 323 47 300 40 q 369 67 346 53 q 419 102 393 81 q 476 153 444 124 l 476 372 q 385 347 432 361 q 301 319 338 333 q 179 247 213 286 q 146 163 146 207 q 181 71 146 101 q 275 40 217 40 m 585 -17 q 510 16 536 -17 q 478 110 485 49 q 367 13 417 44 q 250 -18 317 -18 q 124 24 175 -18 q 74 149 74 67 q 122 267 74 218 q 289 357 171 317 q 382 385 333 372 q 476 408 431 397 l 476 447 q 467 538 476 503 q 438 594 457 574 q 391 623 419 615 q 324 631 363 631 q 266 625 294 631 q 208 604 238 619 l 182 515 q 133 472 169 472 q 90 511 97 472 q 176 631 111 589 q 338 674 242 674 q 493 624 442 674 q 544 457 544 574 l 544 150 q 560 57 544 82 q 607 32 576 32 q 664 58 633 32 l 683 35 q 585 -17 644 -17 m 124 825 q 165 933 135 892 q 246 974 194 974 q 304 957 281 974 q 347 919 328 940 q 388 878 369 896 q 435 860 407 860 q 489 888 468 860 q 524 965 510 915 l 551 957 q 511 850 540 890 q 429 810 482 810 q 369 826 393 810 q 328 863 346 843 q 287 905 306 886 q 240 924 268 924 q 186 895 207 924 q 151 817 165 867 l 124 825 z "},"ä":{"ha":703,"x_min":74,"x_max":683,"o":"m 275 40 q 323 47 300 40 q 369 67 346 53 q 419 102 393 81 q 476 153 444 124 l 476 372 q 385 347 432 361 q 301 319 338 333 q 179 247 213 286 q 146 163 146 207 q 181 71 146 101 q 275 40 217 40 m 585 -17 q 510 16 536 -17 q 478 110 485 49 q 367 13 417 44 q 250 -18 317 -18 q 124 24 175 -18 q 74 149 74 67 q 122 267 74 218 q 289 357 171 317 q 382 385 333 372 q 476 408 431 397 l 476 447 q 467 538 476 503 q 438 594 457 574 q 391 623 419 615 q 324 631 363 631 q 266 625 294 631 q 208 604 238 619 l 182 515 q 133 472 169 472 q 90 511 97 472 q 176 631 111 589 q 338 674 242 674 q 493 624 442 674 q 544 457 544 574 l 544 150 q 560 57 544 82 q 607 32 576 32 q 664 58 633 32 l 683 35 q 585 -17 644 -17 m 476 868 q 436 883 453 868 q 419 924 419 899 q 436 964 419 949 q 476 979 453 979 q 517 964 500 979 q 533 924 533 949 q 517 883 533 899 q 476 868 500 868 m 204 868 q 164 883 181 868 q 147 924 147 899 q 164 964 147 949 q 204 979 181 979 q 244 964 228 979 q 261 924 261 949 q 244 883 261 899 q 204 868 228 868 z "},"ā":{"ha":703,"x_min":74,"x_max":683,"o":"m 275 40 q 323 47 300 40 q 369 67 346 53 q 419 102 393 81 q 476 153 444 124 l 476 372 q 385 347 432 361 q 301 319 338 333 q 179 247 213 286 q 146 163 146 207 q 181 71 146 101 q 275 40 217 40 m 585 -17 q 510 16 536 -17 q 478 110 485 49 q 367 13 417 44 q 250 -18 317 -18 q 124 24 175 -18 q 74 149 74 67 q 122 267 74 218 q 289 357 171 317 q 382 385 333 372 q 476 408 431 397 l 476 447 q 467 538 476 503 q 438 594 457 574 q 391 623 419 615 q 324 631 363 631 q 266 625 294 631 q 208 604 238 619 l 182 515 q 133 472 169 472 q 90 511 97 472 q 176 631 111 589 q 338 674 242 674 q 493 624 442 674 q 544 457 544 574 l 544 150 q 560 57 544 82 q 607 32 576 32 q 664 58 633 32 l 683 35 q 585 -17 644 -17 m 168 857 l 168 913 l 513 913 l 513 857 l 168 857 z "},"ă":{"ha":703,"x_min":74,"x_max":683,"o":"m 275 40 q 323 47 300 40 q 369 67 346 53 q 419 102 393 81 q 476 153 444 124 l 476 372 q 385 347 432 361 q 301 319 338 333 q 179 247 213 286 q 146 163 146 207 q 181 71 146 101 q 275 40 217 40 m 585 -17 q 510 16 536 -17 q 478 110 485 49 q 367 13 417 44 q 250 -18 317 -18 q 124 24 175 -18 q 74 149 74 67 q 122 267 74 218 q 289 357 171 317 q 382 385 333 372 q 476 408 431 397 l 476 447 q 467 538 476 503 q 438 594 457 574 q 391 623 419 615 q 324 631 363 631 q 266 625 294 631 q 208 604 238 619 l 182 515 q 133 472 169 472 q 90 511 97 472 q 176 631 111 589 q 338 674 242 674 q 493 624 442 674 q 544 457 544 574 l 544 150 q 560 57 544 82 q 607 32 576 32 q 664 58 633 32 l 683 35 q 585 -17 644 -17 m 144 1007 l 174 1017 q 235 908 194 951 q 346 865 275 865 q 457 908 417 865 q 518 1017 497 951 l 547 1007 q 526 928 542 965 q 484 865 510 892 q 424 822 458 838 q 346 807 389 807 q 268 822 303 807 q 208 865 233 838 q 166 928 182 892 q 144 1007 150 965 z "},"ắ":{"ha":703,"x_min":74,"x_max":683,"o":"m 275 40 q 323 47 300 40 q 369 67 346 53 q 419 102 393 81 q 476 153 444 124 l 476 372 q 385 347 432 361 q 301 319 338 333 q 179 247 213 286 q 146 163 146 207 q 181 71 146 101 q 275 40 217 40 m 585 -17 q 510 16 536 -17 q 478 110 485 49 q 367 13 417 44 q 250 -18 317 -18 q 124 24 175 -18 q 74 149 74 67 q 122 267 74 218 q 289 357 171 317 q 382 385 333 372 q 476 408 431 397 l 476 447 q 467 538 476 503 q 438 594 457 574 q 391 623 419 615 q 324 631 363 631 q 266 625 294 631 q 208 604 238 619 l 182 515 q 133 472 169 472 q 90 511 97 472 q 176 631 111 589 q 338 674 242 674 q 493 624 442 674 q 544 457 544 574 l 544 150 q 560 57 544 82 q 607 32 576 32 q 664 58 633 32 l 683 35 q 585 -17 644 -17 m 346 807 q 268 822 301 807 q 211 861 235 838 q 174 915 188 885 q 154 975 160 946 l 183 985 q 242 896 203 929 q 346 863 281 863 q 451 896 411 863 q 508 985 490 929 l 538 975 q 518 915 532 946 q 481 861 504 885 q 424 822 457 838 q 346 807 390 807 m 306 961 l 396 1108 q 442 1146 418 1146 q 465 1138 454 1146 q 475 1115 475 1129 q 447 1065 475 1093 l 329 943 l 306 961 z "},"ặ":{"ha":703,"x_min":74,"x_max":683,"o":"m 275 40 q 323 47 300 40 q 369 67 346 53 q 419 102 393 81 q 476 153 444 124 l 476 372 q 385 347 432 361 q 301 319 338 333 q 179 247 213 286 q 146 163 146 207 q 181 71 146 101 q 275 40 217 40 m 585 -17 q 510 16 536 -17 q 478 110 485 49 q 367 13 417 44 q 250 -18 317 -18 q 124 24 175 -18 q 74 149 74 67 q 122 267 74 218 q 289 357 171 317 q 382 385 333 372 q 476 408 431 397 l 476 447 q 467 538 476 503 q 438 594 457 574 q 391 623 419 615 q 324 631 363 631 q 266 625 294 631 q 208 604 238 619 l 182 515 q 133 472 169 472 q 90 511 97 472 q 176 631 111 589 q 338 674 242 674 q 493 624 442 674 q 544 457 544 574 l 544 150 q 560 57 544 82 q 607 32 576 32 q 664 58 633 32 l 683 35 q 585 -17 644 -17 m 144 1007 l 174 1017 q 235 908 194 951 q 346 865 275 865 q 457 908 417 865 q 518 1017 497 951 l 547 1007 q 526 928 542 965 q 484 865 510 892 q 424 822 458 838 q 346 807 389 807 q 268 822 303 807 q 208 865 233 838 q 166 928 182 892 q 144 1007 150 965 m 342 -250 q 297 -233 315 -250 q 278 -189 278 -217 q 297 -144 278 -161 q 342 -126 315 -126 q 387 -144 368 -126 q 406 -189 406 -161 q 387 -233 406 -217 q 342 -250 368 -250 z "},"ằ":{"ha":703,"x_min":74,"x_max":683,"o":"m 275 40 q 323 47 300 40 q 369 67 346 53 q 419 102 393 81 q 476 153 444 124 l 476 372 q 385 347 432 361 q 301 319 338 333 q 179 247 213 286 q 146 163 146 207 q 181 71 146 101 q 275 40 217 40 m 585 -17 q 510 16 536 -17 q 478 110 485 49 q 367 13 417 44 q 250 -18 317 -18 q 124 24 175 -18 q 74 149 74 67 q 122 267 74 218 q 289 357 171 317 q 382 385 333 372 q 476 408 431 397 l 476 447 q 467 538 476 503 q 438 594 457 574 q 391 623 419 615 q 324 631 363 631 q 266 625 294 631 q 208 604 238 619 l 182 515 q 133 472 169 472 q 90 511 97 472 q 176 631 111 589 q 338 674 242 674 q 493 624 442 674 q 544 457 544 574 l 544 150 q 560 57 544 82 q 607 32 576 32 q 664 58 633 32 l 683 35 q 585 -17 644 -17 m 154 975 l 183 985 q 242 896 203 929 q 346 863 281 863 q 451 896 411 863 q 508 985 490 929 l 538 975 q 518 915 532 946 q 481 861 504 885 q 424 822 457 838 q 346 807 390 807 q 268 822 301 807 q 211 861 235 838 q 174 915 188 885 q 154 975 160 946 m 244 1065 q 217 1115 217 1093 q 227 1138 217 1129 q 250 1146 238 1146 q 296 1108 274 1146 l 386 961 l 363 943 l 244 1065 z "},"ẳ":{"ha":703,"x_min":74,"x_max":683,"o":"m 275 40 q 323 47 300 40 q 369 67 346 53 q 419 102 393 81 q 476 153 444 124 l 476 372 q 385 347 432 361 q 301 319 338 333 q 179 247 213 286 q 146 163 146 207 q 181 71 146 101 q 275 40 217 40 m 585 -17 q 510 16 536 -17 q 478 110 485 49 q 367 13 417 44 q 250 -18 317 -18 q 124 24 175 -18 q 74 149 74 67 q 122 267 74 218 q 289 357 171 317 q 382 385 333 372 q 476 408 431 397 l 476 447 q 467 538 476 503 q 438 594 457 574 q 391 623 419 615 q 324 631 363 631 q 266 625 294 631 q 208 604 238 619 l 182 515 q 133 472 169 472 q 90 511 97 472 q 176 631 111 589 q 338 674 242 674 q 493 624 442 674 q 544 457 544 574 l 544 150 q 560 57 544 82 q 607 32 576 32 q 664 58 633 32 l 683 35 q 585 -17 644 -17 m 321 950 l 313 979 q 378 1003 357 990 q 399 1040 399 1017 q 374 1078 399 1064 q 282 1101 350 1092 l 292 1160 q 411 1122 375 1149 q 447 1050 447 1094 q 414 984 447 1011 q 321 950 381 957 m 154 975 l 183 985 q 242 897 201 931 q 346 863 282 863 q 450 897 411 863 q 508 985 489 931 l 538 975 q 517 915 532 946 q 479 861 503 885 q 422 822 456 838 q 346 807 389 807 q 269 822 301 807 q 213 861 236 838 q 174 915 189 885 q 154 975 160 946 z "},"ẵ":{"ha":703,"x_min":74,"x_max":683,"o":"m 275 40 q 323 47 300 40 q 369 67 346 53 q 419 102 393 81 q 476 153 444 124 l 476 372 q 385 347 432 361 q 301 319 338 333 q 179 247 213 286 q 146 163 146 207 q 181 71 146 101 q 275 40 217 40 m 585 -17 q 510 16 536 -17 q 478 110 485 49 q 367 13 417 44 q 250 -18 317 -18 q 124 24 175 -18 q 74 149 74 67 q 122 267 74 218 q 289 357 171 317 q 382 385 333 372 q 476 408 431 397 l 476 447 q 467 538 476 503 q 438 594 457 574 q 391 623 419 615 q 324 631 363 631 q 266 625 294 631 q 208 604 238 619 l 182 515 q 133 472 169 472 q 90 511 97 472 q 176 631 111 589 q 338 674 242 674 q 493 624 442 674 q 544 457 544 574 l 544 150 q 560 57 544 82 q 607 32 576 32 q 664 58 633 32 l 683 35 q 585 -17 644 -17 m 346 807 q 272 819 306 807 q 215 853 239 832 q 174 901 190 874 q 150 960 157 929 l 178 974 q 240 893 200 924 q 346 863 281 863 q 452 893 411 863 q 514 972 493 924 l 542 960 q 518 901 535 929 q 477 853 501 874 q 419 819 453 832 q 346 807 386 807 m 132 1008 q 172 1089 142 1058 q 254 1119 203 1119 q 313 1109 289 1119 q 357 1085 336 1099 q 399 1060 379 1069 q 446 1051 418 1051 q 535 1119 510 1051 l 560 1110 q 520 1031 550 1061 q 438 1001 490 1001 q 378 1011 401 1001 q 335 1035 356 1021 q 293 1059 313 1050 q 246 1068 274 1068 q 191 1051 213 1068 q 157 1001 169 1033 l 132 1008 z "},"ǎ":{"ha":703,"x_min":74,"x_max":683,"o":"m 275 40 q 323 47 300 40 q 369 67 346 53 q 419 102 393 81 q 476 153 444 124 l 476 372 q 385 347 432 361 q 301 319 338 333 q 179 247 213 286 q 146 163 146 207 q 181 71 146 101 q 275 40 217 40 m 585 -17 q 510 16 536 -17 q 478 110 485 49 q 367 13 417 44 q 250 -18 317 -18 q 124 24 175 -18 q 74 149 74 67 q 122 267 74 218 q 289 357 171 317 q 382 385 333 372 q 476 408 431 397 l 476 447 q 467 538 476 503 q 438 594 457 574 q 391 623 419 615 q 324 631 363 631 q 266 625 294 631 q 208 604 238 619 l 182 515 q 133 472 169 472 q 90 511 97 472 q 176 631 111 589 q 338 674 242 674 q 493 624 442 674 q 544 457 544 574 l 544 150 q 560 57 544 82 q 607 32 576 32 q 664 58 633 32 l 683 35 q 585 -17 644 -17 m 182 1007 l 343 857 l 504 1007 l 526 988 l 372 792 l 314 792 l 160 988 l 182 1007 z "},"ấ":{"ha":703,"x_min":74,"x_max":683,"o":"m 275 40 q 323 47 300 40 q 369 67 346 53 q 419 102 393 81 q 476 153 444 124 l 476 372 q 385 347 432 361 q 301 319 338 333 q 179 247 213 286 q 146 163 146 207 q 181 71 146 101 q 275 40 217 40 m 585 -17 q 510 16 536 -17 q 478 110 485 49 q 367 13 417 44 q 250 -18 317 -18 q 124 24 175 -18 q 74 149 74 67 q 122 267 74 218 q 289 357 171 317 q 382 385 333 372 q 476 408 431 397 l 476 447 q 467 538 476 503 q 438 594 457 574 q 391 623 419 615 q 324 631 363 631 q 266 625 294 631 q 208 604 238 619 l 182 515 q 133 472 169 472 q 90 511 97 472 q 176 631 111 589 q 338 674 242 674 q 493 624 442 674 q 544 457 544 574 l 544 150 q 560 57 544 82 q 607 32 576 32 q 664 58 633 32 l 683 35 q 585 -17 644 -17 m 179 751 l 161 774 l 325 929 l 356 929 l 519 774 l 501 751 l 340 861 l 179 751 m 493 867 l 471 886 l 551 1014 q 597 1050 574 1050 q 621 1042 611 1050 q 631 1017 631 1033 q 601 969 631 996 l 493 867 z "},"ậ":{"ha":703,"x_min":74,"x_max":683,"o":"m 275 40 q 323 47 300 40 q 369 67 346 53 q 419 102 393 81 q 476 153 444 124 l 476 372 q 385 347 432 361 q 301 319 338 333 q 179 247 213 286 q 146 163 146 207 q 181 71 146 101 q 275 40 217 40 m 585 -17 q 510 16 536 -17 q 478 110 485 49 q 367 13 417 44 q 250 -18 317 -18 q 124 24 175 -18 q 74 149 74 67 q 122 267 74 218 q 289 357 171 317 q 382 385 333 372 q 476 408 431 397 l 476 447 q 467 538 476 503 q 438 594 457 574 q 391 623 419 615 q 324 631 363 631 q 266 625 294 631 q 208 604 238 619 l 182 515 q 133 472 169 472 q 90 511 97 472 q 176 631 111 589 q 338 674 242 674 q 493 624 442 674 q 544 457 544 574 l 544 150 q 560 57 544 82 q 607 32 576 32 q 664 58 633 32 l 683 35 q 585 -17 644 -17 m 503 764 l 342 931 l 181 764 l 160 783 l 326 1013 l 357 1013 l 524 783 l 503 764 m 342 -250 q 297 -233 315 -250 q 278 -189 278 -217 q 297 -144 278 -161 q 342 -126 315 -126 q 387 -144 368 -126 q 406 -189 406 -161 q 387 -233 406 -217 q 342 -250 368 -250 z "},"ầ":{"ha":703,"x_min":56,"x_max":683,"o":"m 275 40 q 323 47 300 40 q 369 67 346 53 q 419 102 393 81 q 476 153 444 124 l 476 372 q 385 347 432 361 q 301 319 338 333 q 179 247 213 286 q 146 163 146 207 q 181 71 146 101 q 275 40 217 40 m 585 -17 q 510 16 536 -17 q 478 110 485 49 q 367 13 417 44 q 250 -18 317 -18 q 124 24 175 -18 q 74 149 74 67 q 122 267 74 218 q 289 357 171 317 q 382 385 333 372 q 476 408 431 397 l 476 447 q 467 538 476 503 q 438 594 457 574 q 391 623 419 615 q 324 631 363 631 q 266 625 294 631 q 208 604 238 619 l 182 515 q 133 472 169 472 q 90 511 97 472 q 176 631 111 589 q 338 674 242 674 q 493 624 442 674 q 544 457 544 574 l 544 150 q 560 57 544 82 q 607 32 576 32 q 664 58 633 32 l 683 35 q 585 -17 644 -17 m 85 969 q 56 1017 56 996 q 66 1042 56 1033 q 89 1050 76 1050 q 135 1014 113 1050 l 215 886 l 193 867 l 85 969 m 179 751 l 161 774 l 325 929 l 356 929 l 519 774 l 501 751 l 340 861 l 179 751 z "},"ẩ":{"ha":703,"x_min":74,"x_max":683,"o":"m 275 40 q 323 47 300 40 q 369 67 346 53 q 419 102 393 81 q 476 153 444 124 l 476 372 q 385 347 432 361 q 301 319 338 333 q 179 247 213 286 q 146 163 146 207 q 181 71 146 101 q 275 40 217 40 m 585 -17 q 510 16 536 -17 q 478 110 485 49 q 367 13 417 44 q 250 -18 317 -18 q 124 24 175 -18 q 74 149 74 67 q 122 267 74 218 q 289 357 171 317 q 382 385 333 372 q 476 408 431 397 l 476 447 q 467 538 476 503 q 438 594 457 574 q 391 623 419 615 q 324 631 363 631 q 266 625 294 631 q 208 604 238 619 l 182 515 q 133 472 169 472 q 90 511 97 472 q 176 631 111 589 q 338 674 242 674 q 493 624 442 674 q 544 457 544 574 l 544 150 q 560 57 544 82 q 607 32 576 32 q 664 58 633 32 l 683 35 q 585 -17 644 -17 m 179 751 l 161 774 l 325 929 l 356 929 l 519 774 l 501 751 l 340 861 l 179 751 m 481 888 q 544 918 525 899 q 563 967 563 938 q 534 1017 563 1001 q 436 1043 506 1033 l 444 1100 q 611 978 611 1085 q 579 898 611 931 q 489 858 547 865 l 481 888 z "},"ẫ":{"ha":703,"x_min":74,"x_max":683,"o":"m 275 40 q 323 47 300 40 q 369 67 346 53 q 419 102 393 81 q 476 153 444 124 l 476 372 q 385 347 432 361 q 301 319 338 333 q 179 247 213 286 q 146 163 146 207 q 181 71 146 101 q 275 40 217 40 m 585 -17 q 510 16 536 -17 q 478 110 485 49 q 367 13 417 44 q 250 -18 317 -18 q 124 24 175 -18 q 74 149 74 67 q 122 267 74 218 q 289 357 171 317 q 382 385 333 372 q 476 408 431 397 l 476 447 q 467 538 476 503 q 438 594 457 574 q 391 623 419 615 q 324 631 363 631 q 266 625 294 631 q 208 604 238 619 l 182 515 q 133 472 169 472 q 90 511 97 472 q 176 631 111 589 q 338 674 242 674 q 493 624 442 674 q 544 457 544 574 l 544 150 q 560 57 544 82 q 607 32 576 32 q 664 58 633 32 l 683 35 q 585 -17 644 -17 m 179 751 l 161 774 l 325 929 l 356 929 l 519 774 l 501 751 l 340 861 l 179 751 m 126 964 q 167 1043 136 1013 q 249 1074 197 1074 q 307 1063 283 1074 q 351 1039 331 1053 q 393 1015 374 1024 q 440 1006 413 1006 q 529 1074 504 1006 l 554 1064 q 515 985 544 1015 q 432 956 485 956 q 373 965 396 956 q 329 989 350 975 q 288 1013 307 1004 q 240 1022 268 1022 q 185 1005 207 1022 q 151 956 164 988 l 126 964 z "},"ạ":{"ha":703,"x_min":74,"x_max":683,"o":"m 275 40 q 323 47 300 40 q 369 67 346 53 q 419 102 393 81 q 476 153 444 124 l 476 372 q 385 347 432 361 q 301 319 338 333 q 179 247 213 286 q 146 163 146 207 q 181 71 146 101 q 275 40 217 40 m 585 -17 q 510 16 536 -17 q 478 110 485 49 q 367 13 417 44 q 250 -18 317 -18 q 124 24 175 -18 q 74 149 74 67 q 122 267 74 218 q 289 357 171 317 q 382 385 333 372 q 476 408 431 397 l 476 447 q 467 538 476 503 q 438 594 457 574 q 391 623 419 615 q 324 631 363 631 q 266 625 294 631 q 208 604 238 619 l 182 515 q 133 472 169 472 q 90 511 97 472 q 176 631 111 589 q 338 674 242 674 q 493 624 442 674 q 544 457 544 574 l 544 150 q 560 57 544 82 q 607 32 576 32 q 664 58 633 32 l 683 35 q 585 -17 644 -17 m 342 -250 q 297 -233 315 -250 q 278 -189 278 -217 q 297 -144 278 -161 q 342 -126 315 -126 q 387 -144 368 -126 q 406 -189 406 -161 q 387 -233 406 -217 q 342 -250 368 -250 z "},"ả":{"ha":703,"x_min":74,"x_max":683,"o":"m 275 40 q 323 47 300 40 q 369 67 346 53 q 419 102 393 81 q 476 153 444 124 l 476 372 q 385 347 432 361 q 301 319 338 333 q 179 247 213 286 q 146 163 146 207 q 181 71 146 101 q 275 40 217 40 m 585 -17 q 510 16 536 -17 q 478 110 485 49 q 367 13 417 44 q 250 -18 317 -18 q 124 24 175 -18 q 74 149 74 67 q 122 267 74 218 q 289 357 171 317 q 382 385 333 372 q 476 408 431 397 l 476 447 q 467 538 476 503 q 438 594 457 574 q 391 623 419 615 q 324 631 363 631 q 266 625 294 631 q 208 604 238 619 l 182 515 q 133 472 169 472 q 90 511 97 472 q 176 631 111 589 q 338 674 242 674 q 493 624 442 674 q 544 457 544 574 l 544 150 q 560 57 544 82 q 607 32 576 32 q 664 58 633 32 l 683 35 q 585 -17 644 -17 m 340 771 l 332 800 q 398 831 378 811 q 418 879 418 850 q 394 934 418 915 q 301 964 371 953 l 311 1022 q 431 978 394 1011 q 467 890 467 944 q 433 810 467 843 q 340 771 400 778 z "},"å":{"ha":703,"x_min":74,"x_max":683,"o":"m 275 40 q 323 47 300 40 q 369 67 346 53 q 419 102 393 81 q 476 153 444 124 l 476 372 q 385 347 432 361 q 301 319 338 333 q 179 247 213 286 q 146 163 146 207 q 181 71 146 101 q 275 40 217 40 m 585 -17 q 510 16 536 -17 q 478 110 485 49 q 367 13 417 44 q 250 -18 317 -18 q 124 24 175 -18 q 74 149 74 67 q 122 267 74 218 q 289 357 171 317 q 382 385 333 372 q 476 408 431 397 l 476 447 q 467 538 476 503 q 438 594 457 574 q 391 623 419 615 q 324 631 363 631 q 266 625 294 631 q 208 604 238 619 l 182 515 q 133 472 169 472 q 90 511 97 472 q 176 631 111 589 q 338 674 242 674 q 493 624 442 674 q 544 457 544 574 l 544 150 q 560 57 544 82 q 607 32 576 32 q 664 58 633 32 l 683 35 q 585 -17 644 -17 m 349 818 q 410 845 388 818 q 433 908 433 872 q 410 972 433 944 q 349 999 388 999 q 287 972 310 999 q 264 908 264 944 q 287 845 264 872 q 349 818 310 818 m 349 779 q 259 813 299 779 q 219 908 219 847 q 259 1002 219 968 q 349 1036 299 1036 q 438 1003 399 1036 q 478 908 478 969 q 467 855 478 879 q 438 814 456 831 q 397 788 421 797 q 349 779 374 779 z "},"ą":{"ha":703,"x_min":74,"x_max":710,"o":"m 74 149 q 122 267 74 218 q 289 356 171 315 q 382 383 333 371 q 476 406 431 396 l 476 447 q 467 538 476 503 q 438 594 457 574 q 391 623 419 615 q 324 631 363 631 q 267 625 294 631 q 210 606 239 619 l 186 511 q 135 469 174 469 q 90 510 97 469 q 176 631 111 589 q 338 674 242 674 q 493 624 442 674 q 544 457 544 574 l 544 154 q 560 60 544 88 q 603 33 575 33 q 634 40 619 33 q 665 58 649 46 l 683 36 q 658 12 671 21 q 629 -8 644 3 q 551 -74 583 -39 q 519 -150 519 -110 q 545 -224 519 -199 q 611 -250 571 -250 q 651 -244 632 -250 q 694 -221 671 -239 l 710 -242 q 583 -301 667 -301 q 497 -269 532 -301 q 463 -178 463 -237 q 499 -84 463 -125 q 583 -14 535 -43 q 507 19 532 -11 q 478 107 482 50 q 367 12 417 42 q 250 -18 317 -18 q 124 24 175 -18 q 74 149 74 67 m 275 40 q 323 47 300 40 q 369 66 346 53 q 419 100 393 79 q 476 151 444 121 l 476 369 q 385 345 432 358 q 301 318 338 332 q 179 246 213 285 q 146 163 146 207 q 181 71 146 101 q 275 40 217 40 z "},"æ":{"ha":1093,"x_min":74,"x_max":1029,"o":"m 146 161 q 181 72 146 104 q 279 40 217 40 q 322 45 300 40 q 368 64 343 50 q 424 103 393 78 q 499 167 456 128 q 471 326 471 238 q 472 349 471 338 q 474 371 472 360 q 383 346 429 360 q 301 318 338 332 q 179 246 213 285 q 146 161 146 207 m 778 -18 q 624 19 694 -18 q 513 136 553 57 q 435 60 469 90 q 372 13 401 31 q 313 -11 342 -4 q 254 -18 285 -18 q 124 24 175 -18 q 74 150 74 67 q 122 267 74 219 q 289 356 171 315 q 381 383 333 371 q 476 407 429 396 l 476 447 q 467 538 476 503 q 438 594 457 574 q 391 623 419 615 q 325 631 363 631 q 267 625 296 631 q 210 606 239 619 l 186 511 q 135 469 174 469 q 90 510 97 469 q 176 631 111 589 q 338 674 242 674 q 469 640 417 674 q 536 532 521 607 q 640 638 579 601 q 775 674 701 674 q 880 654 833 674 q 960 599 926 635 q 1011 516 993 564 q 1029 413 1029 468 q 1026 369 1029 389 q 1019 335 1024 350 l 546 335 q 566 203 546 258 q 620 110 586 147 q 699 56 654 74 q 794 39 744 39 q 912 63 861 39 q 1003 132 963 88 l 1025 113 q 921 17 985 51 q 778 -18 857 -18 m 772 631 q 691 613 729 631 q 622 563 653 596 q 572 483 592 531 q 547 376 553 436 l 910 376 q 949 392 938 376 q 960 438 960 407 q 947 510 960 475 q 910 572 933 544 q 851 615 886 599 q 772 631 815 631 z "},"ç":{"ha":676,"x_min":67,"x_max":619,"o":"m 385 631 q 288 610 332 631 q 210 551 243 589 q 159 457 178 513 q 140 333 140 401 q 159 212 140 267 q 210 119 178 157 q 288 60 243 81 q 388 39 333 39 q 503 64 450 39 q 596 138 556 89 l 619 122 q 523 19 583 57 q 375 -18 463 -18 q 249 7 306 -18 q 151 77 192 32 q 89 185 111 122 q 67 326 67 249 q 93 473 67 408 q 164 582 119 538 q 265 650 208 626 q 385 674 322 674 q 529 631 465 674 q 617 514 593 589 q 572 476 608 476 q 539 488 550 476 q 521 518 528 499 l 490 606 q 437 625 463 619 q 385 631 411 631 m 335 -112 l 353 1 l 390 1 l 379 -82 q 473 -117 438 -89 q 508 -192 508 -146 q 473 -270 508 -240 q 368 -300 438 -300 q 322 -297 343 -300 q 282 -286 301 -293 l 290 -257 q 326 -262 310 -260 q 361 -265 343 -265 q 427 -245 406 -265 q 449 -192 449 -225 q 423 -135 449 -156 q 335 -112 397 -115 z "},"ć":{"ha":676,"x_min":67,"x_max":619,"o":"m 385 631 q 288 610 332 631 q 210 551 243 589 q 159 457 178 513 q 140 333 140 401 q 159 212 140 267 q 210 119 178 157 q 288 60 243 81 q 388 39 333 39 q 503 64 450 39 q 596 138 556 89 l 619 122 q 523 19 583 57 q 375 -18 463 -18 q 249 7 306 -18 q 151 77 192 32 q 89 185 111 122 q 67 326 67 249 q 93 473 67 408 q 164 582 119 538 q 265 650 208 626 q 385 674 322 674 q 529 631 465 674 q 617 514 593 589 q 572 476 608 476 q 539 488 550 476 q 521 518 528 499 l 490 606 q 437 625 463 619 q 385 631 411 631 m 322 797 q 391 897 357 847 q 456 988 425 946 q 488 1026 475 1015 q 514 1036 500 1036 q 538 1027 528 1036 q 549 1001 549 1018 q 539 975 549 989 q 506 938 529 961 q 430 862 471 903 q 344 779 389 821 l 322 797 z "},"č":{"ha":676,"x_min":67,"x_max":619,"o":"m 385 631 q 288 610 332 631 q 210 551 243 589 q 159 457 178 513 q 140 333 140 401 q 159 212 140 267 q 210 119 178 157 q 288 60 243 81 q 388 39 333 39 q 503 64 450 39 q 596 138 556 89 l 619 122 q 523 19 583 57 q 375 -18 463 -18 q 249 7 306 -18 q 151 77 192 32 q 89 185 111 122 q 67 326 67 249 q 93 473 67 408 q 164 582 119 538 q 265 650 208 626 q 385 674 322 674 q 529 631 465 674 q 617 514 593 589 q 572 476 608 476 q 539 488 550 476 q 521 518 528 499 l 490 606 q 437 625 463 619 q 385 631 411 631 m 219 1007 l 381 857 l 542 1007 l 564 988 l 410 792 l 351 792 l 197 988 l 219 1007 z "},"ĉ":{"ha":676,"x_min":67,"x_max":619,"o":"m 385 631 q 288 610 332 631 q 210 551 243 589 q 159 457 178 513 q 140 333 140 401 q 159 212 140 267 q 210 119 178 157 q 288 60 243 81 q 388 39 333 39 q 503 64 450 39 q 596 138 556 89 l 619 122 q 523 19 583 57 q 375 -18 463 -18 q 249 7 306 -18 q 151 77 192 32 q 89 185 111 122 q 67 326 67 249 q 93 473 67 408 q 164 582 119 538 q 265 650 208 626 q 385 674 322 674 q 529 631 465 674 q 617 514 593 589 q 572 476 608 476 q 539 488 550 476 q 521 518 528 499 l 490 606 q 437 625 463 619 q 385 631 411 631 m 540 764 l 379 931 l 218 764 l 197 783 l 364 1013 l 394 1013 l 561 783 l 540 764 z "},"ċ":{"ha":676,"x_min":67,"x_max":619,"o":"m 385 631 q 288 610 332 631 q 210 551 243 589 q 159 457 178 513 q 140 333 140 401 q 159 212 140 267 q 210 119 178 157 q 288 60 243 81 q 388 39 333 39 q 503 64 450 39 q 596 138 556 89 l 619 122 q 523 19 583 57 q 375 -18 463 -18 q 249 7 306 -18 q 151 77 192 32 q 89 185 111 122 q 67 326 67 249 q 93 473 67 408 q 164 582 119 538 q 265 650 208 626 q 385 674 322 674 q 529 631 465 674 q 617 514 593 589 q 572 476 608 476 q 539 488 550 476 q 521 518 528 499 l 490 606 q 437 625 463 619 q 385 631 411 631 m 393 849 q 348 865 367 849 q 329 910 329 882 q 348 955 329 938 q 393 972 367 972 q 438 955 419 972 q 457 910 457 938 q 438 865 457 882 q 393 849 419 849 z "},"ď":{"ha":821,"x_min":69,"x_max":821,"o":"m 143 319 q 160 194 143 249 q 206 105 176 140 q 275 51 235 69 q 361 33 315 33 q 465 58 419 33 q 558 139 511 82 l 558 528 q 465 599 510 576 q 371 621 419 621 q 283 603 324 621 q 210 548 242 585 q 161 454 179 511 q 143 319 143 397 m 561 -11 l 558 90 q 346 -18 475 -18 q 233 7 285 -18 q 146 76 182 32 q 90 183 110 121 q 69 318 69 244 q 92 466 69 400 q 153 578 114 532 q 247 649 193 624 q 364 674 301 674 q 464 650 414 674 q 560 571 514 626 l 560 957 l 436 963 l 436 999 l 611 1035 l 631 1024 l 626 829 l 626 49 l 761 36 l 761 0 l 561 -11 m 788 1031 q 821 993 821 1031 q 811 915 821 963 q 790 811 801 867 l 774 721 l 743 721 l 747 1019 q 788 1031 764 1031 z "},"đ":{"ha":793,"x_min":69,"x_max":761,"o":"m 290 786 l 290 832 l 560 832 l 560 957 l 436 963 l 436 999 l 611 1035 l 631 1024 l 626 832 l 750 832 l 750 786 l 626 786 l 626 49 l 761 36 l 761 0 l 561 -11 l 558 90 q 460 7 514 32 q 346 -18 407 -18 q 233 6 285 -18 q 146 74 182 31 q 90 178 110 118 q 69 313 69 239 q 92 455 69 392 q 153 563 114 518 q 246 631 193 607 q 361 656 299 656 q 464 632 414 656 q 560 553 514 608 l 560 786 l 290 786 m 143 314 q 160 191 143 243 q 206 103 176 139 q 275 51 235 68 q 361 33 315 33 q 465 58 418 33 q 558 139 511 82 l 558 510 q 465 581 510 558 q 372 603 421 603 q 283 585 325 603 q 210 533 242 568 q 161 443 179 497 q 143 314 143 389 z "},"ḍ":{"ha":793,"x_min":69,"x_max":761,"o":"m 143 319 q 160 194 143 249 q 206 105 176 140 q 275 51 235 69 q 361 33 315 33 q 465 58 419 33 q 558 139 511 82 l 558 528 q 465 599 510 576 q 371 621 419 621 q 283 603 324 621 q 210 548 242 585 q 161 454 179 511 q 143 319 143 397 m 561 -11 l 558 90 q 346 -18 475 -18 q 233 7 285 -18 q 146 76 182 32 q 90 183 110 121 q 69 318 69 244 q 92 466 69 400 q 153 578 114 532 q 247 649 193 624 q 364 674 301 674 q 464 650 414 674 q 560 571 514 626 l 560 957 l 436 963 l 436 999 l 611 1035 l 631 1024 l 626 829 l 626 49 l 761 36 l 761 0 l 561 -11 m 421 -250 q 376 -233 394 -250 q 357 -189 357 -217 q 376 -144 357 -161 q 421 -126 394 -126 q 466 -144 447 -126 q 485 -189 485 -161 q 466 -233 485 -217 q 421 -250 447 -250 z "},"ḏ":{"ha":793,"x_min":69,"x_max":761,"o":"m 143 319 q 160 194 143 249 q 206 105 176 140 q 275 51 235 69 q 361 33 315 33 q 465 58 419 33 q 558 139 511 82 l 558 528 q 465 599 510 576 q 371 621 419 621 q 283 603 324 621 q 210 548 242 585 q 161 454 179 511 q 143 319 143 397 m 561 -11 l 558 90 q 346 -18 475 -18 q 233 7 285 -18 q 146 76 182 32 q 90 183 110 121 q 69 318 69 244 q 92 466 69 400 q 153 578 114 532 q 247 649 193 624 q 364 674 301 674 q 464 650 414 674 q 560 571 514 626 l 560 957 l 436 963 l 436 999 l 611 1035 l 631 1024 l 626 829 l 626 49 l 761 36 l 761 0 l 561 -11 m 240 -208 l 240 -153 l 585 -153 l 585 -208 l 240 -208 z "},"è":{"ha":692,"x_min":69,"x_max":626,"o":"m 371 631 q 288 613 326 631 q 219 561 249 594 q 169 481 189 528 q 144 376 149 435 l 507 376 q 547 392 536 376 q 557 438 557 407 q 544 510 557 475 q 507 572 531 544 q 449 615 483 599 q 371 631 414 631 m 374 674 q 477 654 431 674 q 557 600 524 635 q 608 517 590 565 q 626 414 626 469 q 624 369 626 389 q 617 335 621 350 l 143 336 q 165 203 144 258 q 219 110 185 147 q 297 56 253 74 q 392 39 342 39 q 509 63 458 39 q 600 132 560 88 l 622 113 q 519 17 582 51 q 376 -18 456 -18 q 258 3 314 -18 q 160 68 203 25 q 94 176 118 111 q 69 326 69 240 q 94 469 69 406 q 161 579 119 533 q 258 649 203 625 q 374 674 313 674 m 424 797 l 400 779 q 315 863 356 822 q 239 938 275 903 q 206 975 215 961 q 197 1001 197 989 q 208 1027 197 1018 q 232 1036 218 1036 q 258 1026 246 1036 q 290 988 271 1015 q 355 897 321 946 q 424 797 389 847 z "},"é":{"ha":692,"x_min":69,"x_max":626,"o":"m 371 631 q 288 613 326 631 q 219 561 249 594 q 169 481 189 528 q 144 376 149 435 l 507 376 q 547 392 536 376 q 557 438 557 407 q 544 510 557 475 q 507 572 531 544 q 449 615 483 599 q 371 631 414 631 m 374 674 q 477 654 431 674 q 557 600 524 635 q 608 517 590 565 q 626 414 626 469 q 624 369 626 389 q 617 335 621 350 l 143 336 q 165 203 144 258 q 219 110 185 147 q 297 56 253 74 q 392 39 342 39 q 509 63 458 39 q 600 132 560 88 l 622 113 q 519 17 582 51 q 376 -18 456 -18 q 258 3 314 -18 q 160 68 203 25 q 94 176 118 111 q 69 326 69 240 q 94 469 69 406 q 161 579 119 533 q 258 649 203 625 q 374 674 313 674 m 310 797 q 378 897 344 847 q 443 988 413 946 q 475 1026 463 1015 q 501 1036 488 1036 q 526 1027 515 1036 q 536 1001 536 1018 q 526 975 536 989 q 493 938 517 961 q 417 862 458 903 q 332 779 376 821 l 310 797 z "},"ê":{"ha":692,"x_min":69,"x_max":626,"o":"m 371 631 q 288 613 326 631 q 219 561 249 594 q 169 481 189 528 q 144 376 149 435 l 507 376 q 547 392 536 376 q 557 438 557 407 q 544 510 557 475 q 507 572 531 544 q 449 615 483 599 q 371 631 414 631 m 374 674 q 477 654 431 674 q 557 600 524 635 q 608 517 590 565 q 626 414 626 469 q 624 369 626 389 q 617 335 621 350 l 143 336 q 165 203 144 258 q 219 110 185 147 q 297 56 253 74 q 392 39 342 39 q 509 63 458 39 q 600 132 560 88 l 622 113 q 519 17 582 51 q 376 -18 456 -18 q 258 3 314 -18 q 160 68 203 25 q 94 176 118 111 q 69 326 69 240 q 94 469 69 406 q 161 579 119 533 q 258 649 203 625 q 374 674 313 674 m 535 764 l 374 931 l 213 764 l 192 783 l 358 1013 l 389 1013 l 556 783 l 535 764 z "},"ě":{"ha":692,"x_min":69,"x_max":626,"o":"m 371 631 q 288 613 326 631 q 219 561 249 594 q 169 481 189 528 q 144 376 149 435 l 507 376 q 547 392 536 376 q 557 438 557 407 q 544 510 557 475 q 507 572 531 544 q 449 615 483 599 q 371 631 414 631 m 374 674 q 477 654 431 674 q 557 600 524 635 q 608 517 590 565 q 626 414 626 469 q 624 369 626 389 q 617 335 621 350 l 143 336 q 165 203 144 258 q 219 110 185 147 q 297 56 253 74 q 392 39 342 39 q 509 63 458 39 q 600 132 560 88 l 622 113 q 519 17 582 51 q 376 -18 456 -18 q 258 3 314 -18 q 160 68 203 25 q 94 176 118 111 q 69 326 69 240 q 94 469 69 406 q 161 579 119 533 q 258 649 203 625 q 374 674 313 674 m 213 1007 l 374 857 l 535 1007 l 557 988 l 403 792 l 344 792 l 190 988 l 213 1007 z "},"ë":{"ha":692,"x_min":69,"x_max":626,"o":"m 371 631 q 288 613 326 631 q 219 561 249 594 q 169 481 189 528 q 144 376 149 435 l 507 376 q 547 392 536 376 q 557 438 557 407 q 544 510 557 475 q 507 572 531 544 q 449 615 483 599 q 371 631 414 631 m 374 674 q 477 654 431 674 q 557 600 524 635 q 608 517 590 565 q 626 414 626 469 q 624 369 626 389 q 617 335 621 350 l 143 336 q 165 203 144 258 q 219 110 185 147 q 297 56 253 74 q 392 39 342 39 q 509 63 458 39 q 600 132 560 88 l 622 113 q 519 17 582 51 q 376 -18 456 -18 q 258 3 314 -18 q 160 68 203 25 q 94 176 118 111 q 69 326 69 240 q 94 469 69 406 q 161 579 119 533 q 258 649 203 625 q 374 674 313 674 m 507 868 q 467 883 483 868 q 450 924 450 899 q 467 964 450 949 q 507 979 483 979 q 547 964 531 979 q 564 924 564 949 q 547 883 564 899 q 507 868 531 868 m 235 868 q 194 883 211 868 q 178 924 178 899 q 194 964 178 949 q 235 979 211 979 q 275 964 258 979 q 292 924 292 949 q 275 883 292 899 q 235 868 258 868 z "},"ē":{"ha":692,"x_min":69,"x_max":626,"o":"m 371 631 q 288 613 326 631 q 219 561 249 594 q 169 481 189 528 q 144 376 149 435 l 507 376 q 547 392 536 376 q 557 438 557 407 q 544 510 557 475 q 507 572 531 544 q 449 615 483 599 q 371 631 414 631 m 374 674 q 477 654 431 674 q 557 600 524 635 q 608 517 590 565 q 626 414 626 469 q 624 369 626 389 q 617 335 621 350 l 143 336 q 165 203 144 258 q 219 110 185 147 q 297 56 253 74 q 392 39 342 39 q 509 63 458 39 q 600 132 560 88 l 622 113 q 519 17 582 51 q 376 -18 456 -18 q 258 3 314 -18 q 160 68 203 25 q 94 176 118 111 q 69 326 69 240 q 94 469 69 406 q 161 579 119 533 q 258 649 203 625 q 374 674 313 674 m 196 857 l 196 913 l 540 913 l 540 857 l 196 857 z "},"ė":{"ha":692,"x_min":69,"x_max":626,"o":"m 371 631 q 288 613 326 631 q 219 561 249 594 q 169 481 189 528 q 144 376 149 435 l 507 376 q 547 392 536 376 q 557 438 557 407 q 544 510 557 475 q 507 572 531 544 q 449 615 483 599 q 371 631 414 631 m 374 674 q 477 654 431 674 q 557 600 524 635 q 608 517 590 565 q 626 414 626 469 q 624 369 626 389 q 617 335 621 350 l 143 336 q 165 203 144 258 q 219 110 185 147 q 297 56 253 74 q 392 39 342 39 q 509 63 458 39 q 600 132 560 88 l 622 113 q 519 17 582 51 q 376 -18 456 -18 q 258 3 314 -18 q 160 68 203 25 q 94 176 118 111 q 69 326 69 240 q 94 469 69 406 q 161 579 119 533 q 258 649 203 625 q 374 674 313 674 m 375 849 q 330 865 349 849 q 311 910 311 882 q 330 955 311 938 q 375 972 349 972 q 420 955 401 972 q 439 910 439 938 q 420 865 439 882 q 375 849 401 849 z "},"ę":{"ha":692,"x_min":69,"x_max":626,"o":"m 361 -178 q 390 -85 361 -129 q 456 -10 418 -42 q 376 -18 415 -18 q 258 3 314 -18 q 160 68 203 25 q 94 176 118 111 q 69 329 69 242 q 94 471 69 407 q 160 580 118 535 q 256 649 201 625 q 372 674 311 674 q 477 654 431 674 q 557 600 524 635 q 608 517 590 565 q 626 414 626 469 q 624 371 626 390 q 617 336 621 351 l 143 336 q 163 204 143 260 q 217 112 183 149 q 297 57 251 75 q 392 39 342 39 q 509 63 458 39 q 600 132 560 88 l 622 113 q 576 58 601 81 q 519 11 551 35 q 447 -65 476 -21 q 418 -150 418 -108 q 444 -224 418 -199 q 511 -250 471 -250 q 551 -244 531 -250 q 593 -221 571 -239 l 608 -242 q 482 -301 565 -301 q 396 -269 431 -301 q 361 -178 361 -237 m 369 631 q 288 613 326 631 q 219 563 250 596 q 169 483 189 531 q 144 376 150 436 l 507 376 q 547 391 536 376 q 557 438 557 406 q 544 510 557 475 q 507 572 531 546 q 448 615 483 599 q 369 631 413 631 z "},"ĕ":{"ha":692,"x_min":69,"x_max":626,"o":"m 371 631 q 288 613 326 631 q 219 561 249 594 q 169 481 189 528 q 144 376 149 435 l 507 376 q 547 392 536 376 q 557 438 557 407 q 544 510 557 475 q 507 572 531 544 q 449 615 483 599 q 371 631 414 631 m 374 674 q 477 654 431 674 q 557 600 524 635 q 608 517 590 565 q 626 414 626 469 q 624 369 626 389 q 617 335 621 350 l 143 336 q 165 203 144 258 q 219 110 185 147 q 297 56 253 74 q 392 39 342 39 q 509 63 458 39 q 600 132 560 88 l 622 113 q 519 17 582 51 q 376 -18 456 -18 q 258 3 314 -18 q 160 68 203 25 q 94 176 118 111 q 69 326 69 240 q 94 469 69 406 q 161 579 119 533 q 258 649 203 625 q 374 674 313 674 m 171 1007 l 200 1017 q 261 908 221 951 q 372 865 301 865 q 483 908 443 865 q 544 1017 524 951 l 574 1007 q 552 928 568 965 q 510 865 536 892 q 450 822 485 838 q 372 807 415 807 q 294 822 329 807 q 234 865 260 838 q 192 928 208 892 q 171 1007 176 965 z "},"ế":{"ha":692,"x_min":69,"x_max":663,"o":"m 371 631 q 288 613 326 631 q 219 561 249 594 q 169 481 189 528 q 144 376 149 435 l 507 376 q 547 392 536 376 q 557 438 557 407 q 544 510 557 475 q 507 572 531 544 q 449 615 483 599 q 371 631 414 631 m 374 674 q 477 654 431 674 q 557 600 524 635 q 608 517 590 565 q 626 414 626 469 q 624 369 626 389 q 617 335 621 350 l 143 336 q 165 203 144 258 q 219 110 185 147 q 297 56 253 74 q 392 39 342 39 q 509 63 458 39 q 600 132 560 88 l 622 113 q 519 17 582 51 q 376 -18 456 -18 q 258 3 314 -18 q 160 68 203 25 q 94 176 118 111 q 69 326 69 240 q 94 469 69 406 q 161 579 119 533 q 258 649 203 625 q 374 674 313 674 m 211 751 l 193 774 l 357 929 l 388 929 l 551 774 l 533 751 l 372 861 l 211 751 m 525 867 l 503 886 l 583 1014 q 629 1050 606 1050 q 653 1042 643 1050 q 663 1017 663 1033 q 633 969 663 996 l 525 867 z "},"ệ":{"ha":692,"x_min":69,"x_max":626,"o":"m 371 631 q 288 613 326 631 q 219 561 249 594 q 169 481 189 528 q 144 376 149 435 l 507 376 q 547 392 536 376 q 557 438 557 407 q 544 510 557 475 q 507 572 531 544 q 449 615 483 599 q 371 631 414 631 m 374 674 q 477 654 431 674 q 557 600 524 635 q 608 517 590 565 q 626 414 626 469 q 624 369 626 389 q 617 335 621 350 l 143 336 q 165 203 144 258 q 219 110 185 147 q 297 56 253 74 q 392 39 342 39 q 509 63 458 39 q 600 132 560 88 l 622 113 q 519 17 582 51 q 376 -18 456 -18 q 258 3 314 -18 q 160 68 203 25 q 94 176 118 111 q 69 326 69 240 q 94 469 69 406 q 161 579 119 533 q 258 649 203 625 q 374 674 313 674 m 535 764 l 374 931 l 213 764 l 192 783 l 358 1013 l 389 1013 l 556 783 l 535 764 m 367 -250 q 322 -233 340 -250 q 303 -189 303 -217 q 322 -144 303 -161 q 367 -126 340 -126 q 412 -144 393 -126 q 431 -189 431 -161 q 412 -233 431 -217 q 367 -250 393 -250 z "},"ề":{"ha":692,"x_min":69,"x_max":626,"o":"m 371 631 q 288 613 326 631 q 219 561 249 594 q 169 481 189 528 q 144 376 149 435 l 507 376 q 547 392 536 376 q 557 438 557 407 q 544 510 557 475 q 507 572 531 544 q 449 615 483 599 q 371 631 414 631 m 374 674 q 477 654 431 674 q 557 600 524 635 q 608 517 590 565 q 626 414 626 469 q 624 369 626 389 q 617 335 621 350 l 143 336 q 165 203 144 258 q 219 110 185 147 q 297 56 253 74 q 392 39 342 39 q 509 63 458 39 q 600 132 560 88 l 622 113 q 519 17 582 51 q 376 -18 456 -18 q 258 3 314 -18 q 160 68 203 25 q 94 176 118 111 q 69 326 69 240 q 94 469 69 406 q 161 579 119 533 q 258 649 203 625 q 374 674 313 674 m 117 969 q 88 1017 88 996 q 98 1042 88 1033 q 121 1050 108 1050 q 167 1014 144 1050 l 247 886 l 225 867 l 117 969 m 211 751 l 193 774 l 357 929 l 388 929 l 551 774 l 533 751 l 372 861 l 211 751 z "},"ể":{"ha":692,"x_min":69,"x_max":643,"o":"m 371 631 q 288 613 326 631 q 219 561 249 594 q 169 481 189 528 q 144 376 149 435 l 507 376 q 547 392 536 376 q 557 438 557 407 q 544 510 557 475 q 507 572 531 544 q 449 615 483 599 q 371 631 414 631 m 374 674 q 477 654 431 674 q 557 600 524 635 q 608 517 590 565 q 626 414 626 469 q 624 369 626 389 q 617 335 621 350 l 143 336 q 165 203 144 258 q 219 110 185 147 q 297 56 253 74 q 392 39 342 39 q 509 63 458 39 q 600 132 560 88 l 622 113 q 519 17 582 51 q 376 -18 456 -18 q 258 3 314 -18 q 160 68 203 25 q 94 176 118 111 q 69 326 69 240 q 94 469 69 406 q 161 579 119 533 q 258 649 203 625 q 374 674 313 674 m 211 751 l 193 774 l 357 929 l 388 929 l 551 774 l 533 751 l 372 861 l 211 751 m 513 888 q 576 918 557 899 q 594 967 594 938 q 566 1017 594 1001 q 468 1043 538 1033 l 476 1100 q 643 978 643 1085 q 611 898 643 931 q 521 858 579 865 l 513 888 z "},"ễ":{"ha":692,"x_min":69,"x_max":626,"o":"m 371 631 q 288 613 326 631 q 219 561 249 594 q 169 481 189 528 q 144 376 149 435 l 507 376 q 547 392 536 376 q 557 438 557 407 q 544 510 557 475 q 507 572 531 544 q 449 615 483 599 q 371 631 414 631 m 374 674 q 477 654 431 674 q 557 600 524 635 q 608 517 590 565 q 626 414 626 469 q 624 369 626 389 q 617 335 621 350 l 143 336 q 165 203 144 258 q 219 110 185 147 q 297 56 253 74 q 392 39 342 39 q 509 63 458 39 q 600 132 560 88 l 622 113 q 519 17 582 51 q 376 -18 456 -18 q 258 3 314 -18 q 160 68 203 25 q 94 176 118 111 q 69 326 69 240 q 94 469 69 406 q 161 579 119 533 q 258 649 203 625 q 374 674 313 674 m 211 751 l 193 774 l 357 929 l 388 929 l 551 774 l 533 751 l 372 861 l 211 751 m 158 964 q 199 1043 168 1013 q 281 1074 229 1074 q 339 1063 315 1074 q 383 1039 363 1053 q 425 1015 406 1024 q 472 1006 444 1006 q 561 1074 536 1006 l 586 1064 q 547 985 576 1015 q 464 956 517 956 q 405 965 428 956 q 361 989 382 975 q 319 1013 339 1004 q 272 1022 300 1022 q 217 1005 239 1022 q 183 956 196 988 l 158 964 z "},"ẹ":{"ha":692,"x_min":69,"x_max":626,"o":"m 371 631 q 288 613 326 631 q 219 561 249 594 q 169 481 189 528 q 144 376 149 435 l 507 376 q 547 392 536 376 q 557 438 557 407 q 544 510 557 475 q 507 572 531 544 q 449 615 483 599 q 371 631 414 631 m 374 674 q 477 654 431 674 q 557 600 524 635 q 608 517 590 565 q 626 414 626 469 q 624 369 626 389 q 617 335 621 350 l 143 336 q 165 203 144 258 q 219 110 185 147 q 297 56 253 74 q 392 39 342 39 q 509 63 458 39 q 600 132 560 88 l 622 113 q 519 17 582 51 q 376 -18 456 -18 q 258 3 314 -18 q 160 68 203 25 q 94 176 118 111 q 69 326 69 240 q 94 469 69 406 q 161 579 119 533 q 258 649 203 625 q 374 674 313 674 m 368 -250 q 323 -233 342 -250 q 304 -189 304 -217 q 323 -144 304 -161 q 368 -126 342 -126 q 413 -144 394 -126 q 432 -189 432 -161 q 413 -233 432 -217 q 368 -250 394 -250 z "},"ẻ":{"ha":692,"x_min":69,"x_max":626,"o":"m 371 631 q 288 613 326 631 q 219 561 249 594 q 169 481 189 528 q 144 376 149 435 l 507 376 q 547 392 536 376 q 557 438 557 407 q 544 510 557 475 q 507 572 531 544 q 449 615 483 599 q 371 631 414 631 m 374 674 q 477 654 431 674 q 557 600 524 635 q 608 517 590 565 q 626 414 626 469 q 624 369 626 389 q 617 335 621 350 l 143 336 q 165 203 144 258 q 219 110 185 147 q 297 56 253 74 q 392 39 342 39 q 509 63 458 39 q 600 132 560 88 l 622 113 q 519 17 582 51 q 376 -18 456 -18 q 258 3 314 -18 q 160 68 203 25 q 94 176 118 111 q 69 326 69 240 q 94 469 69 406 q 161 579 119 533 q 258 649 203 625 q 374 674 313 674 m 347 771 l 339 800 q 405 831 385 811 q 425 879 425 850 q 401 934 425 915 q 308 964 378 953 l 318 1022 q 438 978 401 1011 q 474 890 474 944 q 440 810 474 843 q 347 771 407 778 z "},"ẽ":{"ha":692,"x_min":69,"x_max":626,"o":"m 371 631 q 288 613 326 631 q 219 561 249 594 q 169 481 189 528 q 144 376 149 435 l 507 376 q 547 392 536 376 q 557 438 557 407 q 544 510 557 475 q 507 572 531 544 q 449 615 483 599 q 371 631 414 631 m 374 674 q 477 654 431 674 q 557 600 524 635 q 608 517 590 565 q 626 414 626 469 q 624 369 626 389 q 617 335 621 350 l 143 336 q 165 203 144 258 q 219 110 185 147 q 297 56 253 74 q 392 39 342 39 q 509 63 458 39 q 600 132 560 88 l 622 113 q 519 17 582 51 q 376 -18 456 -18 q 258 3 314 -18 q 160 68 203 25 q 94 176 118 111 q 69 326 69 240 q 94 469 69 406 q 161 579 119 533 q 258 649 203 625 q 374 674 313 674 m 158 825 q 199 933 169 892 q 281 974 229 974 q 339 957 315 974 q 382 919 363 940 q 423 878 404 896 q 469 860 442 860 q 524 888 503 860 q 558 965 544 915 l 586 957 q 546 850 575 890 q 464 810 517 810 q 404 826 428 810 q 363 863 381 843 q 322 905 340 886 q 275 924 303 924 q 221 895 242 924 q 186 817 200 867 l 158 825 z "},"ğ":{"ha":711,"x_min":63,"x_max":669,"o":"m 350 -292 q 459 -278 413 -292 q 538 -243 506 -265 q 585 -191 569 -221 q 601 -126 601 -161 q 594 -82 601 -103 q 569 -46 586 -61 q 525 -22 553 -31 q 457 -12 497 -12 l 288 -12 q 249 -11 268 -12 q 211 -7 229 -10 q 153 -69 172 -37 q 133 -144 133 -100 q 190 -255 133 -218 q 350 -292 247 -292 m 94 444 q 112 540 94 497 q 161 612 129 582 q 236 658 193 642 q 332 674 279 674 q 489 624 426 674 l 649 667 l 669 653 l 669 593 l 519 593 q 556 528 543 565 q 568 444 568 490 q 550 349 568 392 q 500 277 532 307 q 425 231 468 247 q 331 215 382 215 q 226 235 274 215 q 183 177 197 203 q 168 122 168 151 q 192 73 168 92 q 278 54 217 54 l 471 54 q 617 12 567 54 q 667 -111 667 -31 q 647 -194 667 -154 q 587 -267 626 -235 q 487 -318 547 -299 q 346 -337 426 -337 q 135 -287 207 -337 q 63 -158 63 -237 q 94 -67 63 -107 q 186 3 126 -28 q 128 38 149 14 q 107 97 107 61 q 130 172 107 138 q 199 249 153 207 q 122 326 150 276 q 94 444 94 375 m 332 633 q 209 581 256 633 q 163 444 163 528 q 208 307 163 360 q 329 254 254 254 q 453 308 406 254 q 500 446 500 361 q 454 581 500 529 q 332 633 408 633 m 136 1007 l 165 1017 q 226 908 186 951 q 338 865 267 865 q 449 908 408 865 q 510 1017 489 951 l 539 1007 q 517 928 533 965 q 476 865 501 892 q 415 822 450 838 q 338 807 381 807 q 260 822 294 807 q 199 865 225 838 q 158 928 174 892 q 136 1007 142 965 z "},"ġ":{"ha":711,"x_min":63,"x_max":669,"o":"m 350 -292 q 459 -278 413 -292 q 538 -243 506 -265 q 585 -191 569 -221 q 601 -126 601 -161 q 594 -82 601 -103 q 569 -46 586 -61 q 525 -22 553 -31 q 457 -12 497 -12 l 288 -12 q 249 -11 268 -12 q 211 -7 229 -10 q 153 -69 172 -37 q 133 -144 133 -100 q 190 -255 133 -218 q 350 -292 247 -292 m 94 444 q 112 540 94 497 q 161 612 129 582 q 236 658 193 642 q 332 674 279 674 q 489 624 426 674 l 649 667 l 669 653 l 669 593 l 519 593 q 556 528 543 565 q 568 444 568 490 q 550 349 568 392 q 500 277 532 307 q 425 231 468 247 q 331 215 382 215 q 226 235 274 215 q 183 177 197 203 q 168 122 168 151 q 192 73 168 92 q 278 54 217 54 l 471 54 q 617 12 567 54 q 667 -111 667 -31 q 647 -194 667 -154 q 587 -267 626 -235 q 487 -318 547 -299 q 346 -337 426 -337 q 135 -287 207 -337 q 63 -158 63 -237 q 94 -67 63 -107 q 186 3 126 -28 q 128 38 149 14 q 107 97 107 61 q 130 172 107 138 q 199 249 153 207 q 122 326 150 276 q 94 444 94 375 m 332 633 q 209 581 256 633 q 163 444 163 528 q 208 307 163 360 q 329 254 254 254 q 453 308 406 254 q 500 446 500 361 q 454 581 500 529 q 332 633 408 633 m 340 849 q 295 865 314 849 q 276 910 276 882 q 295 955 276 938 q 340 972 314 972 q 385 955 367 972 q 404 910 404 938 q 385 865 404 882 q 340 849 367 849 z "},"ģ":{"ha":711,"x_min":63,"x_max":669,"o":"m 350 -292 q 459 -278 413 -292 q 538 -243 506 -265 q 585 -191 569 -221 q 601 -126 601 -161 q 594 -82 601 -103 q 569 -46 586 -61 q 525 -22 553 -31 q 457 -12 497 -12 l 288 -12 q 249 -11 268 -12 q 211 -7 229 -10 q 153 -69 172 -37 q 133 -144 133 -100 q 190 -255 133 -218 q 350 -292 247 -292 m 94 444 q 112 540 94 497 q 161 612 129 582 q 236 658 193 642 q 332 674 279 674 q 489 624 426 674 l 649 667 l 669 653 l 669 593 l 519 593 q 556 528 543 565 q 568 444 568 490 q 550 349 568 392 q 500 277 532 307 q 425 231 468 247 q 331 215 382 215 q 226 235 274 215 q 183 177 197 203 q 168 122 168 151 q 192 73 168 92 q 278 54 217 54 l 471 54 q 617 12 567 54 q 667 -111 667 -31 q 647 -194 667 -154 q 587 -267 626 -235 q 487 -318 547 -299 q 346 -337 426 -337 q 135 -287 207 -337 q 63 -158 63 -237 q 94 -67 63 -107 q 186 3 126 -28 q 128 38 149 14 q 107 97 107 61 q 130 172 107 138 q 199 249 153 207 q 122 326 150 276 q 94 444 94 375 m 332 633 q 209 581 256 633 q 163 444 163 528 q 208 307 163 360 q 329 254 254 254 q 453 308 406 254 q 500 446 500 361 q 454 581 500 529 q 332 633 408 633 m 289 869 q 302 932 289 903 q 338 984 315 961 q 390 1024 360 1007 q 451 1050 419 1040 l 463 1021 q 388 978 418 1003 q 340 917 358 953 q 382 889 365 907 q 399 851 399 871 q 383 815 399 828 q 347 803 368 803 q 322 807 335 803 q 297 822 308 811 q 289 869 289 847 z "},"ǧ":{"ha":711,"x_min":63,"x_max":669,"o":"m 350 -292 q 459 -278 413 -292 q 538 -243 506 -265 q 585 -191 569 -221 q 601 -126 601 -161 q 594 -82 601 -103 q 569 -46 586 -61 q 525 -22 553 -31 q 457 -12 497 -12 l 288 -12 q 249 -11 268 -12 q 211 -7 229 -10 q 153 -69 172 -37 q 133 -144 133 -100 q 190 -255 133 -218 q 350 -292 247 -292 m 94 444 q 112 540 94 497 q 161 612 129 582 q 236 658 193 642 q 332 674 279 674 q 489 624 426 674 l 649 667 l 669 653 l 669 593 l 519 593 q 556 528 543 565 q 568 444 568 490 q 550 349 568 392 q 500 277 532 307 q 425 231 468 247 q 331 215 382 215 q 226 235 274 215 q 183 177 197 203 q 168 122 168 151 q 192 73 168 92 q 278 54 217 54 l 471 54 q 617 12 567 54 q 667 -111 667 -31 q 647 -194 667 -154 q 587 -267 626 -235 q 487 -318 547 -299 q 346 -337 426 -337 q 135 -287 207 -337 q 63 -158 63 -237 q 94 -67 63 -107 q 186 3 126 -28 q 128 38 149 14 q 107 97 107 61 q 130 172 107 138 q 199 249 153 207 q 122 326 150 276 q 94 444 94 375 m 332 633 q 209 581 256 633 q 163 444 163 528 q 208 307 163 360 q 329 254 254 254 q 453 308 406 254 q 500 446 500 361 q 454 581 500 529 q 332 633 408 633 m 174 1007 l 335 857 l 496 1007 l 518 988 l 364 792 l 306 792 l 151 988 l 174 1007 z "}}}
